<mxfile host="Electron" agent="Mozilla/5.0 (Windows NT 10.0; Win64; x64) AppleWebKit/537.36 (KHTML, like Gecko) draw.io/27.0.9 Chrome/134.0.6998.205 Electron/35.4.0 Safari/537.36" version="27.0.9" pages="2">
  <diagram id="R2lEEEUBdFMjLlhIrx00" name="Diagram">
    <mxGraphModel dx="1105" dy="1625" grid="1" gridSize="10" guides="1" tooltips="1" connect="1" arrows="1" fold="1" page="1" pageScale="1" pageWidth="850" pageHeight="1100" math="0" shadow="0" extFonts="Permanent Marker^https://fonts.googleapis.com/css?family=Permanent+Marker">
      <root>
        <mxCell id="0" />
        <mxCell id="1" parent="0" />
        <mxCell id="C-vyLk0tnHw3VtMMgP7b-23" value="User" style="shape=table;startSize=30;container=1;collapsible=1;childLayout=tableLayout;fixedRows=1;rowLines=0;fontStyle=0;align=center;resizeLast=1;strokeColor=#00FF00;fillColor=#00FF00;fontColor=#000000;" parent="1" vertex="1">
          <mxGeometry y="-740" width="280" height="570" as="geometry">
            <mxRectangle y="-740" width="70" height="30" as="alternateBounds" />
          </mxGeometry>
        </mxCell>
        <mxCell id="sZ9AA6oVAfDoWRBkB18B-30" style="shape=partialRectangle;collapsible=0;dropTarget=0;pointerEvents=0;fillColor=none;points=[[0,0.5],[1,0.5]];portConstraint=eastwest;top=0;left=0;right=0;bottom=1;strokeColor=#00FF00;fontStyle=0" parent="C-vyLk0tnHw3VtMMgP7b-23" vertex="1">
          <mxGeometry y="30" width="280" height="30" as="geometry" />
        </mxCell>
        <mxCell id="sZ9AA6oVAfDoWRBkB18B-31" value="1" style="shape=partialRectangle;overflow=hidden;connectable=0;fillColor=none;top=0;left=0;bottom=0;right=0;fontStyle=0;strokeColor=#00FF00;" parent="sZ9AA6oVAfDoWRBkB18B-30" vertex="1">
          <mxGeometry width="30" height="30" as="geometry">
            <mxRectangle width="30" height="30" as="alternateBounds" />
          </mxGeometry>
        </mxCell>
        <mxCell id="sZ9AA6oVAfDoWRBkB18B-32" value="_id" style="shape=partialRectangle;overflow=hidden;connectable=0;fillColor=none;top=0;left=0;bottom=0;right=0;align=left;spacingLeft=6;fontStyle=0;strokeColor=#00FF00;" parent="sZ9AA6oVAfDoWRBkB18B-30" vertex="1">
          <mxGeometry x="30" width="250" height="30" as="geometry">
            <mxRectangle width="250" height="30" as="alternateBounds" />
          </mxGeometry>
        </mxCell>
        <mxCell id="sZ9AA6oVAfDoWRBkB18B-27" style="shape=partialRectangle;collapsible=0;dropTarget=0;pointerEvents=0;fillColor=none;points=[[0,0.5],[1,0.5]];portConstraint=eastwest;top=0;left=0;right=0;bottom=1;strokeColor=#00FF00;fontStyle=0" parent="C-vyLk0tnHw3VtMMgP7b-23" vertex="1">
          <mxGeometry y="60" width="280" height="30" as="geometry" />
        </mxCell>
        <mxCell id="sZ9AA6oVAfDoWRBkB18B-28" value="2" style="shape=partialRectangle;overflow=hidden;connectable=0;fillColor=none;top=0;left=0;bottom=0;right=0;fontStyle=0;strokeColor=#00FF00;" parent="sZ9AA6oVAfDoWRBkB18B-27" vertex="1">
          <mxGeometry width="30" height="30" as="geometry">
            <mxRectangle width="30" height="30" as="alternateBounds" />
          </mxGeometry>
        </mxCell>
        <mxCell id="sZ9AA6oVAfDoWRBkB18B-29" value="name" style="shape=partialRectangle;overflow=hidden;connectable=0;fillColor=none;top=0;left=0;bottom=0;right=0;align=left;spacingLeft=6;fontStyle=0;strokeColor=#00FF00;" parent="sZ9AA6oVAfDoWRBkB18B-27" vertex="1">
          <mxGeometry x="30" width="250" height="30" as="geometry">
            <mxRectangle width="250" height="30" as="alternateBounds" />
          </mxGeometry>
        </mxCell>
        <mxCell id="sZ9AA6oVAfDoWRBkB18B-36" style="shape=partialRectangle;collapsible=0;dropTarget=0;pointerEvents=0;fillColor=none;points=[[0,0.5],[1,0.5]];portConstraint=eastwest;top=0;left=0;right=0;bottom=1;strokeColor=#00FF00;fontStyle=0" parent="C-vyLk0tnHw3VtMMgP7b-23" vertex="1">
          <mxGeometry y="90" width="280" height="30" as="geometry" />
        </mxCell>
        <mxCell id="sZ9AA6oVAfDoWRBkB18B-37" value="3" style="shape=partialRectangle;overflow=hidden;connectable=0;fillColor=none;top=0;left=0;bottom=0;right=0;fontStyle=0;strokeColor=#00FF00;" parent="sZ9AA6oVAfDoWRBkB18B-36" vertex="1">
          <mxGeometry width="30" height="30" as="geometry">
            <mxRectangle width="30" height="30" as="alternateBounds" />
          </mxGeometry>
        </mxCell>
        <mxCell id="sZ9AA6oVAfDoWRBkB18B-38" value="email" style="shape=partialRectangle;overflow=hidden;connectable=0;fillColor=none;top=0;left=0;bottom=0;right=0;align=left;spacingLeft=6;fontStyle=0;strokeColor=#00FF00;" parent="sZ9AA6oVAfDoWRBkB18B-36" vertex="1">
          <mxGeometry x="30" width="250" height="30" as="geometry">
            <mxRectangle width="250" height="30" as="alternateBounds" />
          </mxGeometry>
        </mxCell>
        <mxCell id="sZ9AA6oVAfDoWRBkB18B-33" style="shape=partialRectangle;collapsible=0;dropTarget=0;pointerEvents=0;fillColor=none;points=[[0,0.5],[1,0.5]];portConstraint=eastwest;top=0;left=0;right=0;bottom=1;strokeColor=#00FF00;fontStyle=0" parent="C-vyLk0tnHw3VtMMgP7b-23" vertex="1">
          <mxGeometry y="120" width="280" height="30" as="geometry" />
        </mxCell>
        <mxCell id="sZ9AA6oVAfDoWRBkB18B-34" value="4" style="shape=partialRectangle;overflow=hidden;connectable=0;fillColor=none;top=0;left=0;bottom=0;right=0;fontStyle=0;strokeColor=#00FF00;" parent="sZ9AA6oVAfDoWRBkB18B-33" vertex="1">
          <mxGeometry width="30" height="30" as="geometry">
            <mxRectangle width="30" height="30" as="alternateBounds" />
          </mxGeometry>
        </mxCell>
        <mxCell id="sZ9AA6oVAfDoWRBkB18B-35" value="phone" style="shape=partialRectangle;overflow=hidden;connectable=0;fillColor=none;top=0;left=0;bottom=0;right=0;align=left;spacingLeft=6;fontStyle=0;strokeColor=#00FF00;" parent="sZ9AA6oVAfDoWRBkB18B-33" vertex="1">
          <mxGeometry x="30" width="250" height="30" as="geometry">
            <mxRectangle width="250" height="30" as="alternateBounds" />
          </mxGeometry>
        </mxCell>
        <mxCell id="NCPCcDAu_NDGkJqAFtBE-2" style="shape=partialRectangle;collapsible=0;dropTarget=0;pointerEvents=0;fillColor=none;points=[[0,0.5],[1,0.5]];portConstraint=eastwest;top=0;left=0;right=0;bottom=1;strokeColor=#00FF00;fontStyle=0" parent="C-vyLk0tnHw3VtMMgP7b-23" vertex="1">
          <mxGeometry y="150" width="280" height="30" as="geometry" />
        </mxCell>
        <mxCell id="NCPCcDAu_NDGkJqAFtBE-3" value="" style="shape=partialRectangle;overflow=hidden;connectable=0;fillColor=none;top=0;left=0;bottom=0;right=0;fontStyle=0;strokeColor=#00FF00;" parent="NCPCcDAu_NDGkJqAFtBE-2" vertex="1">
          <mxGeometry width="30" height="30" as="geometry">
            <mxRectangle width="30" height="30" as="alternateBounds" />
          </mxGeometry>
        </mxCell>
        <mxCell id="NCPCcDAu_NDGkJqAFtBE-4" value="address" style="shape=partialRectangle;overflow=hidden;connectable=0;fillColor=none;top=0;left=0;bottom=0;right=0;align=left;spacingLeft=6;fontStyle=0;strokeColor=#00FF00;" parent="NCPCcDAu_NDGkJqAFtBE-2" vertex="1">
          <mxGeometry x="30" width="250" height="30" as="geometry">
            <mxRectangle width="250" height="30" as="alternateBounds" />
          </mxGeometry>
        </mxCell>
        <mxCell id="fkXzJvVuXwwJ45A30nSw-26" style="shape=partialRectangle;collapsible=0;dropTarget=0;pointerEvents=0;fillColor=none;points=[[0,0.5],[1,0.5]];portConstraint=eastwest;top=0;left=0;right=0;bottom=1;strokeColor=#00FF00;fontStyle=0" parent="C-vyLk0tnHw3VtMMgP7b-23" vertex="1">
          <mxGeometry y="180" width="280" height="30" as="geometry" />
        </mxCell>
        <mxCell id="fkXzJvVuXwwJ45A30nSw-27" style="shape=partialRectangle;overflow=hidden;connectable=0;fillColor=none;top=0;left=0;bottom=0;right=0;fontStyle=0;strokeColor=#00FF00;" parent="fkXzJvVuXwwJ45A30nSw-26" vertex="1">
          <mxGeometry width="30" height="30" as="geometry">
            <mxRectangle width="30" height="30" as="alternateBounds" />
          </mxGeometry>
        </mxCell>
        <mxCell id="fkXzJvVuXwwJ45A30nSw-28" value="location" style="shape=partialRectangle;overflow=hidden;connectable=0;fillColor=none;top=0;left=0;bottom=0;right=0;align=left;spacingLeft=6;fontStyle=0;strokeColor=#00FF00;" parent="fkXzJvVuXwwJ45A30nSw-26" vertex="1">
          <mxGeometry x="30" width="250" height="30" as="geometry">
            <mxRectangle width="250" height="30" as="alternateBounds" />
          </mxGeometry>
        </mxCell>
        <mxCell id="mTnyvaakH5OzPfA6hFWk-1486" style="shape=partialRectangle;collapsible=0;dropTarget=0;pointerEvents=0;fillColor=none;points=[[0,0.5],[1,0.5]];portConstraint=eastwest;top=0;left=0;right=0;bottom=1;strokeColor=#00FF00;fontStyle=0" parent="C-vyLk0tnHw3VtMMgP7b-23" vertex="1">
          <mxGeometry y="210" width="280" height="30" as="geometry" />
        </mxCell>
        <mxCell id="mTnyvaakH5OzPfA6hFWk-1487" style="shape=partialRectangle;overflow=hidden;connectable=0;fillColor=none;top=0;left=0;bottom=0;right=0;fontStyle=0;strokeColor=#00FF00;" parent="mTnyvaakH5OzPfA6hFWk-1486" vertex="1">
          <mxGeometry width="30" height="30" as="geometry">
            <mxRectangle width="30" height="30" as="alternateBounds" />
          </mxGeometry>
        </mxCell>
        <mxCell id="mTnyvaakH5OzPfA6hFWk-1488" value="profileImage" style="shape=partialRectangle;overflow=hidden;connectable=0;fillColor=none;top=0;left=0;bottom=0;right=0;align=left;spacingLeft=6;fontStyle=0;strokeColor=#00FF00;" parent="mTnyvaakH5OzPfA6hFWk-1486" vertex="1">
          <mxGeometry x="30" width="250" height="30" as="geometry">
            <mxRectangle width="250" height="30" as="alternateBounds" />
          </mxGeometry>
        </mxCell>
        <mxCell id="9j3H_LcjLFZRQ34MltGA-1" style="shape=partialRectangle;collapsible=0;dropTarget=0;pointerEvents=0;fillColor=none;points=[[0,0.5],[1,0.5]];portConstraint=eastwest;top=0;left=0;right=0;bottom=1;strokeColor=#00FF00;fontStyle=0" parent="C-vyLk0tnHw3VtMMgP7b-23" vertex="1">
          <mxGeometry y="240" width="280" height="30" as="geometry" />
        </mxCell>
        <mxCell id="9j3H_LcjLFZRQ34MltGA-2" style="shape=partialRectangle;overflow=hidden;connectable=0;fillColor=none;top=0;left=0;bottom=0;right=0;fontStyle=0;strokeColor=#00FF00;" parent="9j3H_LcjLFZRQ34MltGA-1" vertex="1">
          <mxGeometry width="30" height="30" as="geometry">
            <mxRectangle width="30" height="30" as="alternateBounds" />
          </mxGeometry>
        </mxCell>
        <mxCell id="9j3H_LcjLFZRQ34MltGA-3" value="wallet | number" style="shape=partialRectangle;overflow=hidden;connectable=0;fillColor=none;top=0;left=0;bottom=0;right=0;align=left;spacingLeft=6;fontStyle=0;strokeColor=#00FF00;" parent="9j3H_LcjLFZRQ34MltGA-1" vertex="1">
          <mxGeometry x="30" width="250" height="30" as="geometry">
            <mxRectangle width="250" height="30" as="alternateBounds" />
          </mxGeometry>
        </mxCell>
        <mxCell id="sZ9AA6oVAfDoWRBkB18B-87" style="shape=partialRectangle;collapsible=0;dropTarget=0;pointerEvents=0;fillColor=none;points=[[0,0.5],[1,0.5]];portConstraint=eastwest;top=0;left=0;right=0;bottom=1;strokeColor=#00FF00;fontStyle=0" parent="C-vyLk0tnHw3VtMMgP7b-23" vertex="1">
          <mxGeometry y="270" width="280" height="30" as="geometry" />
        </mxCell>
        <mxCell id="sZ9AA6oVAfDoWRBkB18B-88" value="" style="shape=partialRectangle;overflow=hidden;connectable=0;fillColor=none;top=0;left=0;bottom=0;right=0;fontStyle=0;strokeColor=#00FF00;" parent="sZ9AA6oVAfDoWRBkB18B-87" vertex="1">
          <mxGeometry width="30" height="30" as="geometry">
            <mxRectangle width="30" height="30" as="alternateBounds" />
          </mxGeometry>
        </mxCell>
        <mxCell id="sZ9AA6oVAfDoWRBkB18B-89" value="role ( admin, user, provider )" style="shape=partialRectangle;overflow=hidden;connectable=0;fillColor=none;top=0;left=0;bottom=0;right=0;align=left;spacingLeft=6;fontStyle=0;strokeColor=#00FF00;" parent="sZ9AA6oVAfDoWRBkB18B-87" vertex="1">
          <mxGeometry x="30" width="250" height="30" as="geometry">
            <mxRectangle width="250" height="30" as="alternateBounds" />
          </mxGeometry>
        </mxCell>
        <mxCell id="sZ9AA6oVAfDoWRBkB18B-148" style="shape=partialRectangle;collapsible=0;dropTarget=0;pointerEvents=0;fillColor=none;points=[[0,0.5],[1,0.5]];portConstraint=eastwest;top=0;left=0;right=0;bottom=1;strokeColor=#00FF00;fontStyle=0" parent="C-vyLk0tnHw3VtMMgP7b-23" vertex="1">
          <mxGeometry y="300" width="280" height="30" as="geometry" />
        </mxCell>
        <mxCell id="sZ9AA6oVAfDoWRBkB18B-149" value="" style="shape=partialRectangle;overflow=hidden;connectable=0;fillColor=none;top=0;left=0;bottom=0;right=0;fontStyle=0;strokeColor=#00FF00;" parent="sZ9AA6oVAfDoWRBkB18B-148" vertex="1">
          <mxGeometry width="30" height="30" as="geometry">
            <mxRectangle width="30" height="30" as="alternateBounds" />
          </mxGeometry>
        </mxCell>
        <mxCell id="sZ9AA6oVAfDoWRBkB18B-150" value="password" style="shape=partialRectangle;overflow=hidden;connectable=0;fillColor=none;top=0;left=0;bottom=0;right=0;align=left;spacingLeft=6;fontStyle=0;strokeColor=#00FF00;" parent="sZ9AA6oVAfDoWRBkB18B-148" vertex="1">
          <mxGeometry x="30" width="250" height="30" as="geometry">
            <mxRectangle width="250" height="30" as="alternateBounds" />
          </mxGeometry>
        </mxCell>
        <mxCell id="mTnyvaakH5OzPfA6hFWk-1505" style="shape=partialRectangle;collapsible=0;dropTarget=0;pointerEvents=0;fillColor=none;points=[[0,0.5],[1,0.5]];portConstraint=eastwest;top=0;left=0;right=0;bottom=1;strokeColor=#00FF00;fontStyle=0" parent="C-vyLk0tnHw3VtMMgP7b-23" vertex="1">
          <mxGeometry y="330" width="280" height="30" as="geometry" />
        </mxCell>
        <mxCell id="mTnyvaakH5OzPfA6hFWk-1506" style="shape=partialRectangle;overflow=hidden;connectable=0;fillColor=none;top=0;left=0;bottom=0;right=0;fontStyle=0;strokeColor=#00FF00;" parent="mTnyvaakH5OzPfA6hFWk-1505" vertex="1">
          <mxGeometry width="30" height="30" as="geometry">
            <mxRectangle width="30" height="30" as="alternateBounds" />
          </mxGeometry>
        </mxCell>
        <mxCell id="mTnyvaakH5OzPfA6hFWk-1507" value="status (verified, rejected, pending)" style="shape=partialRectangle;overflow=hidden;connectable=0;fillColor=none;top=0;left=0;bottom=0;right=0;align=left;spacingLeft=6;fontStyle=0;strokeColor=#00FF00;" parent="mTnyvaakH5OzPfA6hFWk-1505" vertex="1">
          <mxGeometry x="30" width="250" height="30" as="geometry">
            <mxRectangle width="250" height="30" as="alternateBounds" />
          </mxGeometry>
        </mxCell>
        <mxCell id="mTnyvaakH5OzPfA6hFWk-1502" style="shape=partialRectangle;collapsible=0;dropTarget=0;pointerEvents=0;fillColor=none;points=[[0,0.5],[1,0.5]];portConstraint=eastwest;top=0;left=0;right=0;bottom=1;strokeColor=#00FF00;fontStyle=0" parent="C-vyLk0tnHw3VtMMgP7b-23" vertex="1">
          <mxGeometry y="360" width="280" height="30" as="geometry" />
        </mxCell>
        <mxCell id="mTnyvaakH5OzPfA6hFWk-1503" style="shape=partialRectangle;overflow=hidden;connectable=0;fillColor=none;top=0;left=0;bottom=0;right=0;fontStyle=0;strokeColor=#00FF00;" parent="mTnyvaakH5OzPfA6hFWk-1502" vertex="1">
          <mxGeometry width="30" height="30" as="geometry">
            <mxRectangle width="30" height="30" as="alternateBounds" />
          </mxGeometry>
        </mxCell>
        <mxCell id="mTnyvaakH5OzPfA6hFWk-1504" value="is_email_verified | bool" style="shape=partialRectangle;overflow=hidden;connectable=0;fillColor=none;top=0;left=0;bottom=0;right=0;align=left;spacingLeft=6;fontStyle=0;strokeColor=#00FF00;" parent="mTnyvaakH5OzPfA6hFWk-1502" vertex="1">
          <mxGeometry x="30" width="250" height="30" as="geometry">
            <mxRectangle width="250" height="30" as="alternateBounds" />
          </mxGeometry>
        </mxCell>
        <mxCell id="fkoqZ3wQ1sZLYYmMfVTe-18" style="shape=partialRectangle;collapsible=0;dropTarget=0;pointerEvents=0;fillColor=none;points=[[0,0.5],[1,0.5]];portConstraint=eastwest;top=0;left=0;right=0;bottom=1;strokeColor=#00FF00;fontStyle=0" parent="C-vyLk0tnHw3VtMMgP7b-23" vertex="1">
          <mxGeometry y="390" width="280" height="30" as="geometry" />
        </mxCell>
        <mxCell id="fkoqZ3wQ1sZLYYmMfVTe-19" style="shape=partialRectangle;overflow=hidden;connectable=0;fillColor=none;top=0;left=0;bottom=0;right=0;fontStyle=0;strokeColor=#00FF00;" parent="fkoqZ3wQ1sZLYYmMfVTe-18" vertex="1">
          <mxGeometry width="30" height="30" as="geometry">
            <mxRectangle width="30" height="30" as="alternateBounds" />
          </mxGeometry>
        </mxCell>
        <mxCell id="fkoqZ3wQ1sZLYYmMfVTe-20" value="isResetPassword" style="shape=partialRectangle;overflow=hidden;connectable=0;fillColor=none;top=0;left=0;bottom=0;right=0;align=left;spacingLeft=6;fontStyle=0;strokeColor=#00FF00;" parent="fkoqZ3wQ1sZLYYmMfVTe-18" vertex="1">
          <mxGeometry x="30" width="250" height="30" as="geometry">
            <mxRectangle width="250" height="30" as="alternateBounds" />
          </mxGeometry>
        </mxCell>
        <mxCell id="fkoqZ3wQ1sZLYYmMfVTe-21" style="shape=partialRectangle;collapsible=0;dropTarget=0;pointerEvents=0;fillColor=none;points=[[0,0.5],[1,0.5]];portConstraint=eastwest;top=0;left=0;right=0;bottom=1;strokeColor=#00FF00;fontStyle=0" parent="C-vyLk0tnHw3VtMMgP7b-23" vertex="1">
          <mxGeometry y="420" width="280" height="30" as="geometry" />
        </mxCell>
        <mxCell id="fkoqZ3wQ1sZLYYmMfVTe-22" style="shape=partialRectangle;overflow=hidden;connectable=0;fillColor=none;top=0;left=0;bottom=0;right=0;fontStyle=0;strokeColor=#00FF00;" parent="fkoqZ3wQ1sZLYYmMfVTe-21" vertex="1">
          <mxGeometry width="30" height="30" as="geometry">
            <mxRectangle width="30" height="30" as="alternateBounds" />
          </mxGeometry>
        </mxCell>
        <mxCell id="fkoqZ3wQ1sZLYYmMfVTe-23" value="isDeleted" style="shape=partialRectangle;overflow=hidden;connectable=0;fillColor=none;top=0;left=0;bottom=0;right=0;align=left;spacingLeft=6;fontStyle=0;strokeColor=#00FF00;" parent="fkoqZ3wQ1sZLYYmMfVTe-21" vertex="1">
          <mxGeometry x="30" width="250" height="30" as="geometry">
            <mxRectangle width="250" height="30" as="alternateBounds" />
          </mxGeometry>
        </mxCell>
        <mxCell id="mTnyvaakH5OzPfA6hFWk-1499" style="shape=partialRectangle;collapsible=0;dropTarget=0;pointerEvents=0;fillColor=none;points=[[0,0.5],[1,0.5]];portConstraint=eastwest;top=0;left=0;right=0;bottom=1;strokeColor=#00FF00;fontStyle=0" parent="C-vyLk0tnHw3VtMMgP7b-23" vertex="1">
          <mxGeometry y="450" width="280" height="30" as="geometry" />
        </mxCell>
        <mxCell id="mTnyvaakH5OzPfA6hFWk-1500" style="shape=partialRectangle;overflow=hidden;connectable=0;fillColor=none;top=0;left=0;bottom=0;right=0;fontStyle=0;strokeColor=#00FF00;" parent="mTnyvaakH5OzPfA6hFWk-1499" vertex="1">
          <mxGeometry width="30" height="30" as="geometry">
            <mxRectangle width="30" height="30" as="alternateBounds" />
          </mxGeometry>
        </mxCell>
        <mxCell id="mTnyvaakH5OzPfA6hFWk-1501" value="lastPasswordChange | date" style="shape=partialRectangle;overflow=hidden;connectable=0;fillColor=none;top=0;left=0;bottom=0;right=0;align=left;spacingLeft=6;fontStyle=0;strokeColor=#00FF00;" parent="mTnyvaakH5OzPfA6hFWk-1499" vertex="1">
          <mxGeometry x="30" width="250" height="30" as="geometry">
            <mxRectangle width="250" height="30" as="alternateBounds" />
          </mxGeometry>
        </mxCell>
        <mxCell id="mTnyvaakH5OzPfA6hFWk-1508" style="shape=partialRectangle;collapsible=0;dropTarget=0;pointerEvents=0;fillColor=none;points=[[0,0.5],[1,0.5]];portConstraint=eastwest;top=0;left=0;right=0;bottom=1;strokeColor=#00FF00;fontStyle=0" parent="C-vyLk0tnHw3VtMMgP7b-23" vertex="1">
          <mxGeometry y="480" width="280" height="30" as="geometry" />
        </mxCell>
        <mxCell id="mTnyvaakH5OzPfA6hFWk-1509" style="shape=partialRectangle;overflow=hidden;connectable=0;fillColor=none;top=0;left=0;bottom=0;right=0;fontStyle=0;strokeColor=#00FF00;" parent="mTnyvaakH5OzPfA6hFWk-1508" vertex="1">
          <mxGeometry width="30" height="30" as="geometry">
            <mxRectangle width="30" height="30" as="alternateBounds" />
          </mxGeometry>
        </mxCell>
        <mxCell id="mTnyvaakH5OzPfA6hFWk-1510" value="failedLoginAttempts | number" style="shape=partialRectangle;overflow=hidden;connectable=0;fillColor=none;top=0;left=0;bottom=0;right=0;align=left;spacingLeft=6;fontStyle=0;strokeColor=#00FF00;" parent="mTnyvaakH5OzPfA6hFWk-1508" vertex="1">
          <mxGeometry x="30" width="250" height="30" as="geometry">
            <mxRectangle width="250" height="30" as="alternateBounds" />
          </mxGeometry>
        </mxCell>
        <mxCell id="MEF5gCWYzO0Li5uqjRld-7" style="shape=partialRectangle;collapsible=0;dropTarget=0;pointerEvents=0;fillColor=none;points=[[0,0.5],[1,0.5]];portConstraint=eastwest;top=0;left=0;right=0;bottom=1;strokeColor=#00FF00;fontStyle=0" parent="C-vyLk0tnHw3VtMMgP7b-23" vertex="1">
          <mxGeometry y="510" width="280" height="30" as="geometry" />
        </mxCell>
        <mxCell id="MEF5gCWYzO0Li5uqjRld-8" style="shape=partialRectangle;overflow=hidden;connectable=0;fillColor=none;top=0;left=0;bottom=0;right=0;fontStyle=0;strokeColor=#00FF00;" parent="MEF5gCWYzO0Li5uqjRld-7" vertex="1">
          <mxGeometry width="30" height="30" as="geometry">
            <mxRectangle width="30" height="30" as="alternateBounds" />
          </mxGeometry>
        </mxCell>
        <mxCell id="MEF5gCWYzO0Li5uqjRld-9" value="lockUntil" style="shape=partialRectangle;overflow=hidden;connectable=0;fillColor=none;top=0;left=0;bottom=0;right=0;align=left;spacingLeft=6;fontStyle=0;strokeColor=#00FF00;" parent="MEF5gCWYzO0Li5uqjRld-7" vertex="1">
          <mxGeometry x="30" width="250" height="30" as="geometry">
            <mxRectangle width="250" height="30" as="alternateBounds" />
          </mxGeometry>
        </mxCell>
        <mxCell id="C-vyLk0tnHw3VtMMgP7b-27" value="" style="shape=partialRectangle;collapsible=0;dropTarget=0;pointerEvents=0;fillColor=none;points=[[0,0.5],[1,0.5]];portConstraint=eastwest;top=0;left=0;right=0;bottom=0;strokeColor=#00FF00;fontStyle=0" parent="C-vyLk0tnHw3VtMMgP7b-23" vertex="1">
          <mxGeometry y="540" width="280" height="30" as="geometry" />
        </mxCell>
        <mxCell id="C-vyLk0tnHw3VtMMgP7b-28" value="" style="shape=partialRectangle;overflow=hidden;connectable=0;fillColor=none;top=0;left=0;bottom=0;right=0;strokeColor=#00FF00;fontStyle=0" parent="C-vyLk0tnHw3VtMMgP7b-27" vertex="1">
          <mxGeometry width="30" height="30" as="geometry">
            <mxRectangle width="30" height="30" as="alternateBounds" />
          </mxGeometry>
        </mxCell>
        <mxCell id="C-vyLk0tnHw3VtMMgP7b-29" value="step (registation step complete yet) | int" style="shape=partialRectangle;overflow=hidden;connectable=0;fillColor=none;top=0;left=0;bottom=0;right=0;align=left;spacingLeft=6;strokeColor=#00FF00;fontStyle=0" parent="C-vyLk0tnHw3VtMMgP7b-27" vertex="1">
          <mxGeometry x="30" width="250" height="30" as="geometry">
            <mxRectangle width="250" height="30" as="alternateBounds" />
          </mxGeometry>
        </mxCell>
        <mxCell id="sZ9AA6oVAfDoWRBkB18B-116" value="Job" style="shape=table;startSize=30;container=1;collapsible=1;childLayout=tableLayout;fixedRows=1;rowLines=0;fontStyle=0;align=center;resizeLast=1;fontColor=default;strokeColor=#33FFFF;fillColor=#00CCCC;" parent="1" vertex="1">
          <mxGeometry x="40" y="-75" width="250" height="330" as="geometry">
            <mxRectangle x="120" y="110" width="70" height="30" as="alternateBounds" />
          </mxGeometry>
        </mxCell>
        <mxCell id="sZ9AA6oVAfDoWRBkB18B-117" style="shape=partialRectangle;collapsible=0;dropTarget=0;pointerEvents=0;fillColor=none;points=[[0,0.5],[1,0.5]];portConstraint=eastwest;top=0;left=0;right=0;bottom=1;fontColor=default;strokeColor=#33FFFF;fontStyle=0" parent="sZ9AA6oVAfDoWRBkB18B-116" vertex="1">
          <mxGeometry y="30" width="250" height="30" as="geometry" />
        </mxCell>
        <mxCell id="sZ9AA6oVAfDoWRBkB18B-118" value="" style="shape=partialRectangle;overflow=hidden;connectable=0;fillColor=none;top=0;left=0;bottom=0;right=0;fontStyle=0;fontColor=default;strokeColor=#33FFFF;" parent="sZ9AA6oVAfDoWRBkB18B-117" vertex="1">
          <mxGeometry width="30" height="30" as="geometry">
            <mxRectangle width="30" height="30" as="alternateBounds" />
          </mxGeometry>
        </mxCell>
        <mxCell id="sZ9AA6oVAfDoWRBkB18B-119" value="_id" style="shape=partialRectangle;overflow=hidden;connectable=0;fillColor=none;top=0;left=0;bottom=0;right=0;align=left;spacingLeft=6;fontStyle=0;fontColor=default;strokeColor=#33FFFF;" parent="sZ9AA6oVAfDoWRBkB18B-117" vertex="1">
          <mxGeometry x="30" width="220" height="30" as="geometry">
            <mxRectangle width="220" height="30" as="alternateBounds" />
          </mxGeometry>
        </mxCell>
        <mxCell id="sZ9AA6oVAfDoWRBkB18B-120" style="shape=partialRectangle;collapsible=0;dropTarget=0;pointerEvents=0;fillColor=none;points=[[0,0.5],[1,0.5]];portConstraint=eastwest;top=0;left=0;right=0;bottom=1;fontColor=default;strokeColor=#33FFFF;fontStyle=0" parent="sZ9AA6oVAfDoWRBkB18B-116" vertex="1">
          <mxGeometry y="60" width="250" height="30" as="geometry" />
        </mxCell>
        <mxCell id="sZ9AA6oVAfDoWRBkB18B-121" value="" style="shape=partialRectangle;overflow=hidden;connectable=0;fillColor=none;top=0;left=0;bottom=0;right=0;fontStyle=0;fontColor=default;strokeColor=#33FFFF;" parent="sZ9AA6oVAfDoWRBkB18B-120" vertex="1">
          <mxGeometry width="30" height="30" as="geometry">
            <mxRectangle width="30" height="30" as="alternateBounds" />
          </mxGeometry>
        </mxCell>
        <mxCell id="sZ9AA6oVAfDoWRBkB18B-122" value="user_id" style="shape=partialRectangle;overflow=hidden;connectable=0;fillColor=#00FF00;top=0;left=0;bottom=0;right=0;align=left;spacingLeft=6;fontStyle=0;fontColor=#000000;strokeColor=#33FFFF;" parent="sZ9AA6oVAfDoWRBkB18B-120" vertex="1">
          <mxGeometry x="30" width="220" height="30" as="geometry">
            <mxRectangle width="220" height="30" as="alternateBounds" />
          </mxGeometry>
        </mxCell>
        <mxCell id="ezP1WiZqv_afubqY5u5t-87" style="shape=partialRectangle;collapsible=0;dropTarget=0;pointerEvents=0;fillColor=none;points=[[0,0.5],[1,0.5]];portConstraint=eastwest;top=0;left=0;right=0;bottom=1;fontColor=default;strokeColor=#33FFFF;fontStyle=0" parent="sZ9AA6oVAfDoWRBkB18B-116" vertex="1">
          <mxGeometry y="90" width="250" height="30" as="geometry" />
        </mxCell>
        <mxCell id="ezP1WiZqv_afubqY5u5t-88" style="shape=partialRectangle;overflow=hidden;connectable=0;fillColor=none;top=0;left=0;bottom=0;right=0;fontStyle=0;fontColor=default;strokeColor=#33FFFF;" parent="ezP1WiZqv_afubqY5u5t-87" vertex="1">
          <mxGeometry width="30" height="30" as="geometry">
            <mxRectangle width="30" height="30" as="alternateBounds" />
          </mxGeometry>
        </mxCell>
        <mxCell id="ezP1WiZqv_afubqY5u5t-89" value="provider_id" style="shape=partialRectangle;overflow=hidden;connectable=0;fillColor=#00FF00;top=0;left=0;bottom=0;right=0;align=left;spacingLeft=6;fontStyle=0;fontColor=#000000;strokeColor=#33FFFF;" parent="ezP1WiZqv_afubqY5u5t-87" vertex="1">
          <mxGeometry x="30" width="220" height="30" as="geometry">
            <mxRectangle width="220" height="30" as="alternateBounds" />
          </mxGeometry>
        </mxCell>
        <mxCell id="sZ9AA6oVAfDoWRBkB18B-123" style="shape=partialRectangle;collapsible=0;dropTarget=0;pointerEvents=0;fillColor=none;points=[[0,0.5],[1,0.5]];portConstraint=eastwest;top=0;left=0;right=0;bottom=1;fontColor=default;strokeColor=#33FFFF;fontStyle=0" parent="sZ9AA6oVAfDoWRBkB18B-116" vertex="1">
          <mxGeometry y="120" width="250" height="30" as="geometry" />
        </mxCell>
        <mxCell id="sZ9AA6oVAfDoWRBkB18B-124" value="" style="shape=partialRectangle;overflow=hidden;connectable=0;fillColor=none;top=0;left=0;bottom=0;right=0;fontStyle=0;fontColor=default;strokeColor=#33FFFF;" parent="sZ9AA6oVAfDoWRBkB18B-123" vertex="1">
          <mxGeometry width="30" height="30" as="geometry">
            <mxRectangle width="30" height="30" as="alternateBounds" />
          </mxGeometry>
        </mxCell>
        <mxCell id="sZ9AA6oVAfDoWRBkB18B-125" value="carTypeId" style="shape=partialRectangle;overflow=hidden;connectable=0;top=0;left=0;bottom=0;right=0;align=left;spacingLeft=6;fontStyle=0;fillColor=none;strokeColor=#BD7000;fontColor=default;" parent="sZ9AA6oVAfDoWRBkB18B-123" vertex="1">
          <mxGeometry x="30" width="220" height="30" as="geometry">
            <mxRectangle width="220" height="30" as="alternateBounds" />
          </mxGeometry>
        </mxCell>
        <mxCell id="4tHRz1EdZJaxCaaJX6uf-1" style="shape=partialRectangle;collapsible=0;dropTarget=0;pointerEvents=0;fillColor=none;points=[[0,0.5],[1,0.5]];portConstraint=eastwest;top=0;left=0;right=0;bottom=1;fontColor=default;strokeColor=#33FFFF;fontStyle=0" parent="sZ9AA6oVAfDoWRBkB18B-116" vertex="1">
          <mxGeometry y="150" width="250" height="30" as="geometry" />
        </mxCell>
        <mxCell id="4tHRz1EdZJaxCaaJX6uf-2" style="shape=partialRectangle;overflow=hidden;connectable=0;fillColor=none;top=0;left=0;bottom=0;right=0;fontStyle=0;fontColor=default;strokeColor=#33FFFF;" parent="4tHRz1EdZJaxCaaJX6uf-1" vertex="1">
          <mxGeometry width="30" height="30" as="geometry">
            <mxRectangle width="30" height="30" as="alternateBounds" />
          </mxGeometry>
        </mxCell>
        <mxCell id="4tHRz1EdZJaxCaaJX6uf-3" value="essue | str enum" style="shape=partialRectangle;overflow=hidden;connectable=0;fillColor=none;top=0;left=0;bottom=0;right=0;align=left;spacingLeft=6;fontStyle=0;fontColor=default;strokeColor=#33FFFF;" parent="4tHRz1EdZJaxCaaJX6uf-1" vertex="1">
          <mxGeometry x="30" width="220" height="30" as="geometry">
            <mxRectangle width="220" height="30" as="alternateBounds" />
          </mxGeometry>
        </mxCell>
        <mxCell id="4tHRz1EdZJaxCaaJX6uf-46" style="shape=partialRectangle;collapsible=0;dropTarget=0;pointerEvents=0;fillColor=none;points=[[0,0.5],[1,0.5]];portConstraint=eastwest;top=0;left=0;right=0;bottom=1;fontColor=default;strokeColor=#33FFFF;fontStyle=0" parent="sZ9AA6oVAfDoWRBkB18B-116" vertex="1">
          <mxGeometry y="180" width="250" height="30" as="geometry" />
        </mxCell>
        <mxCell id="4tHRz1EdZJaxCaaJX6uf-47" style="shape=partialRectangle;overflow=hidden;connectable=0;fillColor=none;top=0;left=0;bottom=0;right=0;fontStyle=0;fontColor=default;strokeColor=#33FFFF;" parent="4tHRz1EdZJaxCaaJX6uf-46" vertex="1">
          <mxGeometry width="30" height="30" as="geometry">
            <mxRectangle width="30" height="30" as="alternateBounds" />
          </mxGeometry>
        </mxCell>
        <mxCell id="4tHRz1EdZJaxCaaJX6uf-48" value="note" style="shape=partialRectangle;overflow=hidden;connectable=0;fillColor=none;top=0;left=0;bottom=0;right=0;align=left;spacingLeft=6;fontStyle=0;fontColor=default;strokeColor=#33FFFF;" parent="4tHRz1EdZJaxCaaJX6uf-46" vertex="1">
          <mxGeometry x="30" width="220" height="30" as="geometry">
            <mxRectangle width="220" height="30" as="alternateBounds" />
          </mxGeometry>
        </mxCell>
        <mxCell id="K79rnn6yO6uU4JDVxM2G-1" style="shape=partialRectangle;collapsible=0;dropTarget=0;pointerEvents=0;fillColor=none;points=[[0,0.5],[1,0.5]];portConstraint=eastwest;top=0;left=0;right=0;bottom=1;fontColor=default;strokeColor=#33FFFF;fontStyle=0" parent="sZ9AA6oVAfDoWRBkB18B-116" vertex="1">
          <mxGeometry y="210" width="250" height="30" as="geometry" />
        </mxCell>
        <mxCell id="K79rnn6yO6uU4JDVxM2G-2" style="shape=partialRectangle;overflow=hidden;connectable=0;fillColor=none;top=0;left=0;bottom=0;right=0;fontStyle=0;fontColor=default;strokeColor=#33FFFF;" parent="K79rnn6yO6uU4JDVxM2G-1" vertex="1">
          <mxGeometry width="30" height="30" as="geometry">
            <mxRectangle width="30" height="30" as="alternateBounds" />
          </mxGeometry>
        </mxCell>
        <mxCell id="K79rnn6yO6uU4JDVxM2G-3" value="fromLocation" style="shape=partialRectangle;overflow=hidden;connectable=0;fillColor=none;top=0;left=0;bottom=0;right=0;align=left;spacingLeft=6;fontStyle=0;fontColor=default;strokeColor=#33FFFF;" parent="K79rnn6yO6uU4JDVxM2G-1" vertex="1">
          <mxGeometry x="30" width="220" height="30" as="geometry">
            <mxRectangle width="220" height="30" as="alternateBounds" />
          </mxGeometry>
        </mxCell>
        <mxCell id="ezP1WiZqv_afubqY5u5t-125" style="shape=partialRectangle;collapsible=0;dropTarget=0;pointerEvents=0;fillColor=none;points=[[0,0.5],[1,0.5]];portConstraint=eastwest;top=0;left=0;right=0;bottom=1;fontColor=default;strokeColor=#33FFFF;fontStyle=0" parent="sZ9AA6oVAfDoWRBkB18B-116" vertex="1">
          <mxGeometry y="240" width="250" height="30" as="geometry" />
        </mxCell>
        <mxCell id="ezP1WiZqv_afubqY5u5t-126" style="shape=partialRectangle;overflow=hidden;connectable=0;fillColor=none;top=0;left=0;bottom=0;right=0;fontStyle=0;fontColor=default;strokeColor=#33FFFF;" parent="ezP1WiZqv_afubqY5u5t-125" vertex="1">
          <mxGeometry width="30" height="30" as="geometry">
            <mxRectangle width="30" height="30" as="alternateBounds" />
          </mxGeometry>
        </mxCell>
        <mxCell id="ezP1WiZqv_afubqY5u5t-127" value="toLocation" style="shape=partialRectangle;overflow=hidden;connectable=0;fillColor=none;top=0;left=0;bottom=0;right=0;align=left;spacingLeft=6;fontStyle=0;fontColor=default;strokeColor=#33FFFF;" parent="ezP1WiZqv_afubqY5u5t-125" vertex="1">
          <mxGeometry x="30" width="220" height="30" as="geometry">
            <mxRectangle width="220" height="30" as="alternateBounds" />
          </mxGeometry>
        </mxCell>
        <mxCell id="ezP1WiZqv_afubqY5u5t-128" style="shape=partialRectangle;collapsible=0;dropTarget=0;pointerEvents=0;fillColor=none;points=[[0,0.5],[1,0.5]];portConstraint=eastwest;top=0;left=0;right=0;bottom=1;fontColor=default;strokeColor=#33FFFF;fontStyle=0" parent="sZ9AA6oVAfDoWRBkB18B-116" vertex="1">
          <mxGeometry y="270" width="250" height="30" as="geometry" />
        </mxCell>
        <mxCell id="ezP1WiZqv_afubqY5u5t-129" style="shape=partialRectangle;overflow=hidden;connectable=0;fillColor=none;top=0;left=0;bottom=0;right=0;fontStyle=0;fontColor=default;strokeColor=#33FFFF;" parent="ezP1WiZqv_afubqY5u5t-128" vertex="1">
          <mxGeometry width="30" height="30" as="geometry">
            <mxRectangle width="30" height="30" as="alternateBounds" />
          </mxGeometry>
        </mxCell>
        <mxCell id="ezP1WiZqv_afubqY5u5t-130" value="distance | float (km)" style="shape=partialRectangle;overflow=hidden;connectable=0;fillColor=none;top=0;left=0;bottom=0;right=0;align=left;spacingLeft=6;fontStyle=0;fontColor=default;strokeColor=#33FFFF;" parent="ezP1WiZqv_afubqY5u5t-128" vertex="1">
          <mxGeometry x="30" width="220" height="30" as="geometry">
            <mxRectangle width="220" height="30" as="alternateBounds" />
          </mxGeometry>
        </mxCell>
        <mxCell id="sZ9AA6oVAfDoWRBkB18B-129" style="shape=partialRectangle;collapsible=0;dropTarget=0;pointerEvents=0;fillColor=none;points=[[0,0.5],[1,0.5]];portConstraint=eastwest;top=0;left=0;right=0;bottom=1;fontColor=default;strokeColor=#33FFFF;fontStyle=0" parent="sZ9AA6oVAfDoWRBkB18B-116" vertex="1">
          <mxGeometry y="300" width="250" height="30" as="geometry" />
        </mxCell>
        <mxCell id="sZ9AA6oVAfDoWRBkB18B-130" value="" style="shape=partialRectangle;overflow=hidden;connectable=0;fillColor=none;top=0;left=0;bottom=0;right=0;fontStyle=0;fontColor=default;strokeColor=#33FFFF;" parent="sZ9AA6oVAfDoWRBkB18B-129" vertex="1">
          <mxGeometry width="30" height="30" as="geometry">
            <mxRectangle width="30" height="30" as="alternateBounds" />
          </mxGeometry>
        </mxCell>
        <mxCell id="sZ9AA6oVAfDoWRBkB18B-131" value="status | str enum" style="shape=partialRectangle;overflow=hidden;connectable=0;fillColor=none;top=0;left=0;bottom=0;right=0;align=left;spacingLeft=6;fontStyle=0;fontColor=default;strokeColor=#33FFFF;" parent="sZ9AA6oVAfDoWRBkB18B-129" vertex="1">
          <mxGeometry x="30" width="220" height="30" as="geometry">
            <mxRectangle width="220" height="30" as="alternateBounds" />
          </mxGeometry>
        </mxCell>
        <mxCell id="sZ9AA6oVAfDoWRBkB18B-185" value="Provider" style="shape=table;startSize=30;container=1;collapsible=1;childLayout=tableLayout;fixedRows=1;rowLines=0;fontStyle=0;align=center;resizeLast=1;strokeColor=#3333FF;fontColor=default;fillColor=#3333FF;" parent="1" vertex="1">
          <mxGeometry x="425" y="-740" width="250" height="560.0000000000002" as="geometry">
            <mxRectangle x="425" y="-740" width="70" height="30" as="alternateBounds" />
          </mxGeometry>
        </mxCell>
        <mxCell id="sZ9AA6oVAfDoWRBkB18B-186" style="shape=partialRectangle;collapsible=0;dropTarget=0;pointerEvents=0;fillColor=none;points=[[0,0.5],[1,0.5]];portConstraint=eastwest;top=0;left=0;right=0;bottom=1;strokeColor=#3333FF;fontStyle=0" parent="sZ9AA6oVAfDoWRBkB18B-185" vertex="1">
          <mxGeometry y="30" width="250" height="30" as="geometry" />
        </mxCell>
        <mxCell id="sZ9AA6oVAfDoWRBkB18B-187" value="1" style="shape=partialRectangle;overflow=hidden;connectable=0;fillColor=none;top=0;left=0;bottom=0;right=0;fontStyle=0;strokeColor=#3333FF;" parent="sZ9AA6oVAfDoWRBkB18B-186" vertex="1">
          <mxGeometry width="30" height="30" as="geometry">
            <mxRectangle width="30" height="30" as="alternateBounds" />
          </mxGeometry>
        </mxCell>
        <mxCell id="sZ9AA6oVAfDoWRBkB18B-188" value="_id" style="shape=partialRectangle;overflow=hidden;connectable=0;fillColor=none;top=0;left=0;bottom=0;right=0;align=left;spacingLeft=6;fontStyle=0;strokeColor=#3333FF;" parent="sZ9AA6oVAfDoWRBkB18B-186" vertex="1">
          <mxGeometry x="30" width="220" height="30" as="geometry">
            <mxRectangle width="220" height="30" as="alternateBounds" />
          </mxGeometry>
        </mxCell>
        <mxCell id="sZ9AA6oVAfDoWRBkB18B-189" style="shape=partialRectangle;collapsible=0;dropTarget=0;pointerEvents=0;fillColor=none;points=[[0,0.5],[1,0.5]];portConstraint=eastwest;top=0;left=0;right=0;bottom=1;strokeColor=#3333FF;fontStyle=0" parent="sZ9AA6oVAfDoWRBkB18B-185" vertex="1">
          <mxGeometry y="60" width="250" height="30" as="geometry" />
        </mxCell>
        <mxCell id="sZ9AA6oVAfDoWRBkB18B-190" value="2" style="shape=partialRectangle;overflow=hidden;connectable=0;fillColor=none;top=0;left=0;bottom=0;right=0;fontStyle=0;strokeColor=#3333FF;" parent="sZ9AA6oVAfDoWRBkB18B-189" vertex="1">
          <mxGeometry width="30" height="30" as="geometry">
            <mxRectangle width="30" height="30" as="alternateBounds" />
          </mxGeometry>
        </mxCell>
        <mxCell id="sZ9AA6oVAfDoWRBkB18B-191" value="user_id" style="shape=partialRectangle;overflow=hidden;connectable=0;fillColor=#00FF00;top=0;left=0;bottom=0;right=0;align=left;spacingLeft=6;fontStyle=0;strokeColor=#3333FF;fontColor=#000000;" parent="sZ9AA6oVAfDoWRBkB18B-189" vertex="1">
          <mxGeometry x="30" width="220" height="30" as="geometry">
            <mxRectangle width="220" height="30" as="alternateBounds" />
          </mxGeometry>
        </mxCell>
        <mxCell id="sZ9AA6oVAfDoWRBkB18B-198" style="shape=partialRectangle;collapsible=0;dropTarget=0;pointerEvents=0;fillColor=none;points=[[0,0.5],[1,0.5]];portConstraint=eastwest;top=0;left=0;right=0;bottom=1;strokeColor=#3333FF;fontStyle=0" parent="sZ9AA6oVAfDoWRBkB18B-185" vertex="1">
          <mxGeometry y="90" width="250" height="30" as="geometry" />
        </mxCell>
        <mxCell id="sZ9AA6oVAfDoWRBkB18B-199" value="5" style="shape=partialRectangle;overflow=hidden;connectable=0;fillColor=none;top=0;left=0;bottom=0;right=0;fontStyle=0;strokeColor=#3333FF;" parent="sZ9AA6oVAfDoWRBkB18B-198" vertex="1">
          <mxGeometry width="30" height="30" as="geometry">
            <mxRectangle width="30" height="30" as="alternateBounds" />
          </mxGeometry>
        </mxCell>
        <mxCell id="sZ9AA6oVAfDoWRBkB18B-200" value="towTypeId" style="shape=partialRectangle;overflow=hidden;connectable=0;fillColor=none;top=0;left=0;bottom=0;right=0;align=left;spacingLeft=6;fontStyle=0;strokeColor=#3333FF;" parent="sZ9AA6oVAfDoWRBkB18B-198" vertex="1">
          <mxGeometry x="30" width="220" height="30" as="geometry">
            <mxRectangle width="220" height="30" as="alternateBounds" />
          </mxGeometry>
        </mxCell>
        <mxCell id="sZ9AA6oVAfDoWRBkB18B-195" style="shape=partialRectangle;collapsible=0;dropTarget=0;pointerEvents=0;fillColor=none;points=[[0,0.5],[1,0.5]];portConstraint=eastwest;top=0;left=0;right=0;bottom=1;strokeColor=#3333FF;fontStyle=0" parent="sZ9AA6oVAfDoWRBkB18B-185" vertex="1">
          <mxGeometry y="120" width="250" height="30" as="geometry" />
        </mxCell>
        <mxCell id="sZ9AA6oVAfDoWRBkB18B-196" value="4" style="shape=partialRectangle;overflow=hidden;connectable=0;fillColor=none;top=0;left=0;bottom=0;right=0;fontStyle=0;strokeColor=#3333FF;" parent="sZ9AA6oVAfDoWRBkB18B-195" vertex="1">
          <mxGeometry width="30" height="30" as="geometry">
            <mxRectangle width="30" height="30" as="alternateBounds" />
          </mxGeometry>
        </mxCell>
        <mxCell id="sZ9AA6oVAfDoWRBkB18B-197" value="companyName| str" style="shape=partialRectangle;overflow=hidden;connectable=0;fillColor=none;top=0;left=0;bottom=0;right=0;align=left;spacingLeft=6;fontStyle=0;strokeColor=#3333FF;" parent="sZ9AA6oVAfDoWRBkB18B-195" vertex="1">
          <mxGeometry x="30" width="220" height="30" as="geometry">
            <mxRectangle width="220" height="30" as="alternateBounds" />
          </mxGeometry>
        </mxCell>
        <mxCell id="sZ9AA6oVAfDoWRBkB18B-204" style="shape=partialRectangle;collapsible=0;dropTarget=0;pointerEvents=0;fillColor=none;points=[[0,0.5],[1,0.5]];portConstraint=eastwest;top=0;left=0;right=0;bottom=1;strokeColor=#3333FF;fontStyle=0" parent="sZ9AA6oVAfDoWRBkB18B-185" vertex="1">
          <mxGeometry y="150" width="250" height="20" as="geometry" />
        </mxCell>
        <mxCell id="sZ9AA6oVAfDoWRBkB18B-205" value="" style="shape=partialRectangle;overflow=hidden;connectable=0;fillColor=none;top=0;left=0;bottom=0;right=0;fontStyle=0;strokeColor=#3333FF;" parent="sZ9AA6oVAfDoWRBkB18B-204" vertex="1">
          <mxGeometry width="30" height="20" as="geometry">
            <mxRectangle width="30" height="20" as="alternateBounds" />
          </mxGeometry>
        </mxCell>
        <mxCell id="sZ9AA6oVAfDoWRBkB18B-206" value="dateOfBirth | str" style="shape=partialRectangle;overflow=hidden;connectable=0;fillColor=none;top=0;left=0;bottom=0;right=0;align=left;spacingLeft=6;fontStyle=0;strokeColor=#3333FF;" parent="sZ9AA6oVAfDoWRBkB18B-204" vertex="1">
          <mxGeometry x="30" width="220" height="20" as="geometry">
            <mxRectangle width="220" height="20" as="alternateBounds" />
          </mxGeometry>
        </mxCell>
        <mxCell id="sZ9AA6oVAfDoWRBkB18B-207" style="shape=partialRectangle;collapsible=0;dropTarget=0;pointerEvents=0;fillColor=none;points=[[0,0.5],[1,0.5]];portConstraint=eastwest;top=0;left=0;right=0;bottom=1;strokeColor=#3333FF;fontStyle=0" parent="sZ9AA6oVAfDoWRBkB18B-185" vertex="1">
          <mxGeometry y="170" width="250" height="30" as="geometry" />
        </mxCell>
        <mxCell id="sZ9AA6oVAfDoWRBkB18B-208" value="" style="shape=partialRectangle;overflow=hidden;connectable=0;fillColor=none;top=0;left=0;bottom=0;right=0;fontStyle=0;strokeColor=#3333FF;" parent="sZ9AA6oVAfDoWRBkB18B-207" vertex="1">
          <mxGeometry width="30" height="30" as="geometry">
            <mxRectangle width="30" height="30" as="alternateBounds" />
          </mxGeometry>
        </mxCell>
        <mxCell id="sZ9AA6oVAfDoWRBkB18B-209" value="gender | str enum" style="shape=partialRectangle;overflow=hidden;connectable=0;fillColor=none;top=0;left=0;bottom=0;right=0;align=left;spacingLeft=6;fontStyle=0;strokeColor=#3333FF;" parent="sZ9AA6oVAfDoWRBkB18B-207" vertex="1">
          <mxGeometry x="30" width="220" height="30" as="geometry">
            <mxRectangle width="220" height="30" as="alternateBounds" />
          </mxGeometry>
        </mxCell>
        <mxCell id="OKMqjzdBdKD5sZo1OvU0-35" style="shape=partialRectangle;collapsible=0;dropTarget=0;pointerEvents=0;fillColor=none;points=[[0,0.5],[1,0.5]];portConstraint=eastwest;top=0;left=0;right=0;bottom=1;strokeColor=#3333FF;fontStyle=0" parent="sZ9AA6oVAfDoWRBkB18B-185" vertex="1">
          <mxGeometry y="200" width="250" height="30" as="geometry" />
        </mxCell>
        <mxCell id="OKMqjzdBdKD5sZo1OvU0-36" style="shape=partialRectangle;overflow=hidden;connectable=0;fillColor=none;top=0;left=0;bottom=0;right=0;fontStyle=0;strokeColor=#3333FF;" parent="OKMqjzdBdKD5sZo1OvU0-35" vertex="1">
          <mxGeometry width="30" height="30" as="geometry">
            <mxRectangle width="30" height="30" as="alternateBounds" />
          </mxGeometry>
        </mxCell>
        <mxCell id="OKMqjzdBdKD5sZo1OvU0-37" value="description | str" style="shape=partialRectangle;overflow=hidden;connectable=0;fillColor=none;top=0;left=0;bottom=0;right=0;align=left;spacingLeft=6;fontStyle=0;strokeColor=#3333FF;" parent="OKMqjzdBdKD5sZo1OvU0-35" vertex="1">
          <mxGeometry x="30" width="220" height="30" as="geometry">
            <mxRectangle width="220" height="30" as="alternateBounds" />
          </mxGeometry>
        </mxCell>
        <mxCell id="wnW_JezUA_VMFMuwWTgn-21" style="shape=partialRectangle;collapsible=0;dropTarget=0;pointerEvents=0;fillColor=none;points=[[0,0.5],[1,0.5]];portConstraint=eastwest;top=0;left=0;right=0;bottom=1;strokeColor=#3333FF;fontStyle=0" parent="sZ9AA6oVAfDoWRBkB18B-185" vertex="1">
          <mxGeometry y="230" width="250" height="30" as="geometry" />
        </mxCell>
        <mxCell id="wnW_JezUA_VMFMuwWTgn-22" style="shape=partialRectangle;overflow=hidden;connectable=0;fillColor=none;top=0;left=0;bottom=0;right=0;fontStyle=0;strokeColor=#3333FF;" parent="wnW_JezUA_VMFMuwWTgn-21" vertex="1">
          <mxGeometry width="30" height="30" as="geometry">
            <mxRectangle width="30" height="30" as="alternateBounds" />
          </mxGeometry>
        </mxCell>
        <mxCell id="wnW_JezUA_VMFMuwWTgn-23" value="nidNo | str" style="shape=partialRectangle;overflow=hidden;connectable=0;fillColor=none;top=0;left=0;bottom=0;right=0;align=left;spacingLeft=6;fontStyle=0;strokeColor=#3333FF;" parent="wnW_JezUA_VMFMuwWTgn-21" vertex="1">
          <mxGeometry x="30" width="220" height="30" as="geometry">
            <mxRectangle width="220" height="30" as="alternateBounds" />
          </mxGeometry>
        </mxCell>
        <mxCell id="OKMqjzdBdKD5sZo1OvU0-8" style="shape=partialRectangle;collapsible=0;dropTarget=0;pointerEvents=0;fillColor=none;points=[[0,0.5],[1,0.5]];portConstraint=eastwest;top=0;left=0;right=0;bottom=1;strokeColor=#3333FF;fontStyle=0" parent="sZ9AA6oVAfDoWRBkB18B-185" vertex="1">
          <mxGeometry y="260" width="250" height="30" as="geometry" />
        </mxCell>
        <mxCell id="OKMqjzdBdKD5sZo1OvU0-9" style="shape=partialRectangle;overflow=hidden;connectable=0;fillColor=none;top=0;left=0;bottom=0;right=0;fontStyle=0;strokeColor=#3333FF;" parent="OKMqjzdBdKD5sZo1OvU0-8" vertex="1">
          <mxGeometry width="30" height="30" as="geometry">
            <mxRectangle width="30" height="30" as="alternateBounds" />
          </mxGeometry>
        </mxCell>
        <mxCell id="OKMqjzdBdKD5sZo1OvU0-10" value="nidFront | str" style="shape=partialRectangle;overflow=hidden;connectable=0;fillColor=none;top=0;left=0;bottom=0;right=0;align=left;spacingLeft=6;fontStyle=0;strokeColor=#3333FF;" parent="OKMqjzdBdKD5sZo1OvU0-8" vertex="1">
          <mxGeometry x="30" width="220" height="30" as="geometry">
            <mxRectangle width="220" height="30" as="alternateBounds" />
          </mxGeometry>
        </mxCell>
        <mxCell id="OKMqjzdBdKD5sZo1OvU0-5" style="shape=partialRectangle;collapsible=0;dropTarget=0;pointerEvents=0;fillColor=none;points=[[0,0.5],[1,0.5]];portConstraint=eastwest;top=0;left=0;right=0;bottom=1;strokeColor=#3333FF;fontStyle=0" parent="sZ9AA6oVAfDoWRBkB18B-185" vertex="1">
          <mxGeometry y="290" width="250" height="30" as="geometry" />
        </mxCell>
        <mxCell id="OKMqjzdBdKD5sZo1OvU0-6" style="shape=partialRectangle;overflow=hidden;connectable=0;fillColor=none;top=0;left=0;bottom=0;right=0;fontStyle=0;strokeColor=#3333FF;" parent="OKMqjzdBdKD5sZo1OvU0-5" vertex="1">
          <mxGeometry width="30" height="30" as="geometry">
            <mxRectangle width="30" height="30" as="alternateBounds" />
          </mxGeometry>
        </mxCell>
        <mxCell id="OKMqjzdBdKD5sZo1OvU0-7" value="nidBack | str" style="shape=partialRectangle;overflow=hidden;connectable=0;fillColor=none;top=0;left=0;bottom=0;right=0;align=left;spacingLeft=6;fontStyle=0;strokeColor=#3333FF;" parent="OKMqjzdBdKD5sZo1OvU0-5" vertex="1">
          <mxGeometry x="30" width="220" height="30" as="geometry">
            <mxRectangle width="220" height="30" as="alternateBounds" />
          </mxGeometry>
        </mxCell>
        <mxCell id="wnW_JezUA_VMFMuwWTgn-15" style="shape=partialRectangle;collapsible=0;dropTarget=0;pointerEvents=0;fillColor=none;points=[[0,0.5],[1,0.5]];portConstraint=eastwest;top=0;left=0;right=0;bottom=1;strokeColor=#3333FF;fontStyle=0" parent="sZ9AA6oVAfDoWRBkB18B-185" vertex="1">
          <mxGeometry y="320" width="250" height="30" as="geometry" />
        </mxCell>
        <mxCell id="wnW_JezUA_VMFMuwWTgn-16" style="shape=partialRectangle;overflow=hidden;connectable=0;fillColor=none;top=0;left=0;bottom=0;right=0;fontStyle=0;strokeColor=#3333FF;" parent="wnW_JezUA_VMFMuwWTgn-15" vertex="1">
          <mxGeometry width="30" height="30" as="geometry">
            <mxRectangle width="30" height="30" as="alternateBounds" />
          </mxGeometry>
        </mxCell>
        <mxCell id="wnW_JezUA_VMFMuwWTgn-17" value="drivingLicenseNo | str" style="shape=partialRectangle;overflow=hidden;connectable=0;fillColor=none;top=0;left=0;bottom=0;right=0;align=left;spacingLeft=6;fontStyle=0;strokeColor=#3333FF;" parent="wnW_JezUA_VMFMuwWTgn-15" vertex="1">
          <mxGeometry x="30" width="220" height="30" as="geometry">
            <mxRectangle width="220" height="30" as="alternateBounds" />
          </mxGeometry>
        </mxCell>
        <mxCell id="wnW_JezUA_VMFMuwWTgn-10" style="shape=partialRectangle;collapsible=0;dropTarget=0;pointerEvents=0;fillColor=none;points=[[0,0.5],[1,0.5]];portConstraint=eastwest;top=0;left=0;right=0;bottom=1;strokeColor=#3333FF;fontStyle=0" parent="sZ9AA6oVAfDoWRBkB18B-185" vertex="1">
          <mxGeometry y="350" width="250" height="30" as="geometry" />
        </mxCell>
        <mxCell id="wnW_JezUA_VMFMuwWTgn-11" style="shape=partialRectangle;overflow=hidden;connectable=0;fillColor=none;top=0;left=0;bottom=0;right=0;fontStyle=0;strokeColor=#3333FF;" parent="wnW_JezUA_VMFMuwWTgn-10" vertex="1">
          <mxGeometry width="30" height="30" as="geometry">
            <mxRectangle width="30" height="30" as="alternateBounds" />
          </mxGeometry>
        </mxCell>
        <mxCell id="wnW_JezUA_VMFMuwWTgn-12" value="drivingLicenseFront | str" style="shape=partialRectangle;overflow=hidden;connectable=0;fillColor=none;top=0;left=0;bottom=0;right=0;align=left;spacingLeft=6;fontStyle=0;strokeColor=#3333FF;" parent="wnW_JezUA_VMFMuwWTgn-10" vertex="1">
          <mxGeometry x="30" width="220" height="30" as="geometry">
            <mxRectangle width="220" height="30" as="alternateBounds" />
          </mxGeometry>
        </mxCell>
        <mxCell id="wnW_JezUA_VMFMuwWTgn-7" style="shape=partialRectangle;collapsible=0;dropTarget=0;pointerEvents=0;fillColor=none;points=[[0,0.5],[1,0.5]];portConstraint=eastwest;top=0;left=0;right=0;bottom=1;strokeColor=#3333FF;fontStyle=0" parent="sZ9AA6oVAfDoWRBkB18B-185" vertex="1">
          <mxGeometry y="380" width="250" height="30" as="geometry" />
        </mxCell>
        <mxCell id="wnW_JezUA_VMFMuwWTgn-8" style="shape=partialRectangle;overflow=hidden;connectable=0;fillColor=none;top=0;left=0;bottom=0;right=0;fontStyle=0;strokeColor=#3333FF;" parent="wnW_JezUA_VMFMuwWTgn-7" vertex="1">
          <mxGeometry width="30" height="30" as="geometry">
            <mxRectangle width="30" height="30" as="alternateBounds" />
          </mxGeometry>
        </mxCell>
        <mxCell id="wnW_JezUA_VMFMuwWTgn-9" value="drivingLicenseBack | str" style="shape=partialRectangle;overflow=hidden;connectable=0;fillColor=none;top=0;left=0;bottom=0;right=0;align=left;spacingLeft=6;fontStyle=0;strokeColor=#3333FF;" parent="wnW_JezUA_VMFMuwWTgn-7" vertex="1">
          <mxGeometry x="30" width="220" height="30" as="geometry">
            <mxRectangle width="220" height="30" as="alternateBounds" />
          </mxGeometry>
        </mxCell>
        <mxCell id="wnW_JezUA_VMFMuwWTgn-4" style="shape=partialRectangle;collapsible=0;dropTarget=0;pointerEvents=0;fillColor=none;points=[[0,0.5],[1,0.5]];portConstraint=eastwest;top=0;left=0;right=0;bottom=1;strokeColor=#3333FF;fontStyle=0" parent="sZ9AA6oVAfDoWRBkB18B-185" vertex="1">
          <mxGeometry y="410" width="250" height="30" as="geometry" />
        </mxCell>
        <mxCell id="wnW_JezUA_VMFMuwWTgn-5" style="shape=partialRectangle;overflow=hidden;connectable=0;fillColor=none;top=0;left=0;bottom=0;right=0;fontStyle=0;strokeColor=#3333FF;" parent="wnW_JezUA_VMFMuwWTgn-4" vertex="1">
          <mxGeometry width="30" height="30" as="geometry">
            <mxRectangle width="30" height="30" as="alternateBounds" />
          </mxGeometry>
        </mxCell>
        <mxCell id="wnW_JezUA_VMFMuwWTgn-6" value="carRegistrationNo | str" style="shape=partialRectangle;overflow=hidden;connectable=0;fillColor=none;top=0;left=0;bottom=0;right=0;align=left;spacingLeft=6;fontStyle=0;strokeColor=#3333FF;" parent="wnW_JezUA_VMFMuwWTgn-4" vertex="1">
          <mxGeometry x="30" width="220" height="30" as="geometry">
            <mxRectangle width="220" height="30" as="alternateBounds" />
          </mxGeometry>
        </mxCell>
        <mxCell id="NCPCcDAu_NDGkJqAFtBE-11" style="shape=partialRectangle;collapsible=0;dropTarget=0;pointerEvents=0;fillColor=none;points=[[0,0.5],[1,0.5]];portConstraint=eastwest;top=0;left=0;right=0;bottom=1;strokeColor=#3333FF;fontStyle=0" parent="sZ9AA6oVAfDoWRBkB18B-185" vertex="1">
          <mxGeometry y="440" width="250" height="30" as="geometry" />
        </mxCell>
        <mxCell id="NCPCcDAu_NDGkJqAFtBE-12" style="shape=partialRectangle;overflow=hidden;connectable=0;fillColor=none;top=0;left=0;bottom=0;right=0;fontStyle=0;strokeColor=#3333FF;" parent="NCPCcDAu_NDGkJqAFtBE-11" vertex="1">
          <mxGeometry width="30" height="30" as="geometry">
            <mxRectangle width="30" height="30" as="alternateBounds" />
          </mxGeometry>
        </mxCell>
        <mxCell id="NCPCcDAu_NDGkJqAFtBE-13" value="carRegistrationFont | str" style="shape=partialRectangle;overflow=hidden;connectable=0;fillColor=none;top=0;left=0;bottom=0;right=0;align=left;spacingLeft=6;fontStyle=0;strokeColor=#3333FF;" parent="NCPCcDAu_NDGkJqAFtBE-11" vertex="1">
          <mxGeometry x="30" width="220" height="30" as="geometry">
            <mxRectangle width="220" height="30" as="alternateBounds" />
          </mxGeometry>
        </mxCell>
        <mxCell id="NCPCcDAu_NDGkJqAFtBE-14" style="shape=partialRectangle;collapsible=0;dropTarget=0;pointerEvents=0;fillColor=none;points=[[0,0.5],[1,0.5]];portConstraint=eastwest;top=0;left=0;right=0;bottom=1;strokeColor=#3333FF;fontStyle=0" parent="sZ9AA6oVAfDoWRBkB18B-185" vertex="1">
          <mxGeometry y="470" width="250" height="30" as="geometry" />
        </mxCell>
        <mxCell id="NCPCcDAu_NDGkJqAFtBE-15" style="shape=partialRectangle;overflow=hidden;connectable=0;fillColor=none;top=0;left=0;bottom=0;right=0;fontStyle=0;strokeColor=#3333FF;" parent="NCPCcDAu_NDGkJqAFtBE-14" vertex="1">
          <mxGeometry width="30" height="30" as="geometry">
            <mxRectangle width="30" height="30" as="alternateBounds" />
          </mxGeometry>
        </mxCell>
        <mxCell id="NCPCcDAu_NDGkJqAFtBE-16" value="carRegistrationBack | str" style="shape=partialRectangle;overflow=hidden;connectable=0;fillColor=none;top=0;left=0;bottom=0;right=0;align=left;spacingLeft=6;fontStyle=0;strokeColor=#3333FF;" parent="NCPCcDAu_NDGkJqAFtBE-14" vertex="1">
          <mxGeometry x="30" width="220" height="30" as="geometry">
            <mxRectangle width="220" height="30" as="alternateBounds" />
          </mxGeometry>
        </mxCell>
        <mxCell id="NCPCcDAu_NDGkJqAFtBE-20" style="shape=partialRectangle;collapsible=0;dropTarget=0;pointerEvents=0;fillColor=none;points=[[0,0.5],[1,0.5]];portConstraint=eastwest;top=0;left=0;right=0;bottom=1;strokeColor=#3333FF;fontStyle=0" parent="sZ9AA6oVAfDoWRBkB18B-185" vertex="1">
          <mxGeometry y="500" width="250" height="30" as="geometry" />
        </mxCell>
        <mxCell id="NCPCcDAu_NDGkJqAFtBE-21" style="shape=partialRectangle;overflow=hidden;connectable=0;fillColor=none;top=0;left=0;bottom=0;right=0;fontStyle=0;strokeColor=#3333FF;" parent="NCPCcDAu_NDGkJqAFtBE-20" vertex="1">
          <mxGeometry width="30" height="30" as="geometry">
            <mxRectangle width="30" height="30" as="alternateBounds" />
          </mxGeometry>
        </mxCell>
        <mxCell id="NCPCcDAu_NDGkJqAFtBE-22" value="driverImage | str" style="shape=partialRectangle;overflow=hidden;connectable=0;fillColor=none;top=0;left=0;bottom=0;right=0;align=left;spacingLeft=6;fontStyle=0;strokeColor=#3333FF;" parent="NCPCcDAu_NDGkJqAFtBE-20" vertex="1">
          <mxGeometry x="30" width="220" height="30" as="geometry">
            <mxRectangle width="220" height="30" as="alternateBounds" />
          </mxGeometry>
        </mxCell>
        <mxCell id="NCPCcDAu_NDGkJqAFtBE-23" style="shape=partialRectangle;collapsible=0;dropTarget=0;pointerEvents=0;fillColor=none;points=[[0,0.5],[1,0.5]];portConstraint=eastwest;top=0;left=0;right=0;bottom=1;strokeColor=#3333FF;fontStyle=0" parent="sZ9AA6oVAfDoWRBkB18B-185" vertex="1">
          <mxGeometry y="530" width="250" height="30" as="geometry" />
        </mxCell>
        <mxCell id="NCPCcDAu_NDGkJqAFtBE-24" style="shape=partialRectangle;overflow=hidden;connectable=0;fillColor=none;top=0;left=0;bottom=0;right=0;fontStyle=0;strokeColor=#3333FF;" parent="NCPCcDAu_NDGkJqAFtBE-23" vertex="1">
          <mxGeometry width="30" height="30" as="geometry">
            <mxRectangle width="30" height="30" as="alternateBounds" />
          </mxGeometry>
        </mxCell>
        <mxCell id="NCPCcDAu_NDGkJqAFtBE-25" value="carImage | str" style="shape=partialRectangle;overflow=hidden;connectable=0;fillColor=none;top=0;left=0;bottom=0;right=0;align=left;spacingLeft=6;fontStyle=0;strokeColor=#3333FF;" parent="NCPCcDAu_NDGkJqAFtBE-23" vertex="1">
          <mxGeometry x="30" width="220" height="30" as="geometry">
            <mxRectangle width="220" height="30" as="alternateBounds" />
          </mxGeometry>
        </mxCell>
        <mxCell id="mTnyvaakH5OzPfA6hFWk-1412" style="edgeStyle=orthogonalEdgeStyle;rounded=0;orthogonalLoop=1;jettySize=auto;html=1;" parent="1" target="sZ9AA6oVAfDoWRBkB18B-189" edge="1">
          <mxGeometry relative="1" as="geometry" />
        </mxCell>
        <mxCell id="mTnyvaakH5OzPfA6hFWk-1429" style="edgeStyle=orthogonalEdgeStyle;rounded=0;orthogonalLoop=1;jettySize=auto;html=1;entryX=1;entryY=0.5;entryDx=0;entryDy=0;" parent="1" target="sZ9AA6oVAfDoWRBkB18B-189" edge="1">
          <mxGeometry relative="1" as="geometry">
            <Array as="points">
              <mxPoint x="1170" y="685" />
              <mxPoint x="1170" y="105" />
            </Array>
          </mxGeometry>
        </mxCell>
        <mxCell id="mTnyvaakH5OzPfA6hFWk-1430" style="edgeStyle=orthogonalEdgeStyle;rounded=0;orthogonalLoop=1;jettySize=auto;html=1;strokeColor=#3333FF;" parent="1" target="sZ9AA6oVAfDoWRBkB18B-189" edge="1">
          <mxGeometry relative="1" as="geometry">
            <Array as="points">
              <mxPoint x="740" y="1125" />
              <mxPoint x="740" y="1095" />
              <mxPoint x="1180" y="1095" />
              <mxPoint x="1180" y="105" />
            </Array>
          </mxGeometry>
        </mxCell>
        <mxCell id="mTnyvaakH5OzPfA6hFWk-1431" style="edgeStyle=orthogonalEdgeStyle;rounded=0;orthogonalLoop=1;jettySize=auto;html=1;" parent="1" target="sZ9AA6oVAfDoWRBkB18B-189" edge="1">
          <mxGeometry relative="1" as="geometry" />
        </mxCell>
        <mxCell id="mTnyvaakH5OzPfA6hFWk-1435" value="Payments" style="shape=table;startSize=30;container=1;collapsible=1;childLayout=tableLayout;fixedRows=1;rowLines=0;fontStyle=0;align=center;resizeLast=1;shadow=0;strokeColor=#FFFFFF;" parent="1" vertex="1">
          <mxGeometry x="220" y="420" width="250" height="180" as="geometry">
            <mxRectangle x="120" y="110" width="70" height="30" as="alternateBounds" />
          </mxGeometry>
        </mxCell>
        <mxCell id="mTnyvaakH5OzPfA6hFWk-1436" style="shape=partialRectangle;collapsible=0;dropTarget=0;pointerEvents=0;fillColor=none;points=[[0,0.5],[1,0.5]];portConstraint=eastwest;top=0;left=0;right=0;bottom=1;shadow=0;strokeColor=#FFFFFF;fontStyle=0" parent="mTnyvaakH5OzPfA6hFWk-1435" vertex="1">
          <mxGeometry y="30" width="250" height="30" as="geometry" />
        </mxCell>
        <mxCell id="mTnyvaakH5OzPfA6hFWk-1437" value="1" style="shape=partialRectangle;overflow=hidden;connectable=0;fillColor=none;top=0;left=0;bottom=0;right=0;fontStyle=0;shadow=0;strokeColor=#FFFFFF;" parent="mTnyvaakH5OzPfA6hFWk-1436" vertex="1">
          <mxGeometry width="30" height="30" as="geometry">
            <mxRectangle width="30" height="30" as="alternateBounds" />
          </mxGeometry>
        </mxCell>
        <mxCell id="mTnyvaakH5OzPfA6hFWk-1438" value="_id" style="shape=partialRectangle;overflow=hidden;connectable=0;fillColor=none;top=0;left=0;bottom=0;right=0;align=left;spacingLeft=6;fontStyle=0;shadow=0;strokeColor=#FFFFFF;" parent="mTnyvaakH5OzPfA6hFWk-1436" vertex="1">
          <mxGeometry x="30" width="220" height="30" as="geometry">
            <mxRectangle width="220" height="30" as="alternateBounds" />
          </mxGeometry>
        </mxCell>
        <mxCell id="mn8GsZJM0ELMwDRYjjRj-164" style="shape=partialRectangle;collapsible=0;dropTarget=0;pointerEvents=0;fillColor=none;points=[[0,0.5],[1,0.5]];portConstraint=eastwest;top=0;left=0;right=0;bottom=1;shadow=0;strokeColor=#FFFFFF;fontStyle=0" parent="mTnyvaakH5OzPfA6hFWk-1435" vertex="1">
          <mxGeometry y="60" width="250" height="30" as="geometry" />
        </mxCell>
        <mxCell id="mn8GsZJM0ELMwDRYjjRj-165" style="shape=partialRectangle;overflow=hidden;connectable=0;fillColor=none;top=0;left=0;bottom=0;right=0;fontStyle=0;shadow=0;strokeColor=#FFFFFF;" parent="mn8GsZJM0ELMwDRYjjRj-164" vertex="1">
          <mxGeometry width="30" height="30" as="geometry">
            <mxRectangle width="30" height="30" as="alternateBounds" />
          </mxGeometry>
        </mxCell>
        <mxCell id="mn8GsZJM0ELMwDRYjjRj-166" value="userId" style="shape=partialRectangle;overflow=hidden;connectable=0;fillColor=#00FF00;top=0;left=0;bottom=0;right=0;align=left;spacingLeft=6;fontStyle=0;shadow=0;strokeColor=#FFFFFF;fontColor=#000000;" parent="mn8GsZJM0ELMwDRYjjRj-164" vertex="1">
          <mxGeometry x="30" width="220" height="30" as="geometry">
            <mxRectangle width="220" height="30" as="alternateBounds" />
          </mxGeometry>
        </mxCell>
        <mxCell id="SivkiCpdINrDMIz8WZc5-1" style="shape=partialRectangle;collapsible=0;dropTarget=0;pointerEvents=0;fillColor=none;points=[[0,0.5],[1,0.5]];portConstraint=eastwest;top=0;left=0;right=0;bottom=1;shadow=0;strokeColor=#FFFFFF;fontStyle=0" parent="mTnyvaakH5OzPfA6hFWk-1435" vertex="1">
          <mxGeometry y="90" width="250" height="30" as="geometry" />
        </mxCell>
        <mxCell id="SivkiCpdINrDMIz8WZc5-2" style="shape=partialRectangle;overflow=hidden;connectable=0;fillColor=none;top=0;left=0;bottom=0;right=0;fontStyle=0;shadow=0;strokeColor=#FFFFFF;" parent="SivkiCpdINrDMIz8WZc5-1" vertex="1">
          <mxGeometry width="30" height="30" as="geometry">
            <mxRectangle width="30" height="30" as="alternateBounds" />
          </mxGeometry>
        </mxCell>
        <mxCell id="SivkiCpdINrDMIz8WZc5-3" value="sessionId" style="shape=partialRectangle;overflow=hidden;connectable=0;fillColor=none;top=0;left=0;bottom=0;right=0;align=left;spacingLeft=6;fontStyle=0;shadow=0;strokeColor=#FFFFFF;" parent="SivkiCpdINrDMIz8WZc5-1" vertex="1">
          <mxGeometry x="30" width="220" height="30" as="geometry">
            <mxRectangle width="220" height="30" as="alternateBounds" />
          </mxGeometry>
        </mxCell>
        <mxCell id="RlktWBtb3LKV7X0zDZpE-7" style="shape=partialRectangle;collapsible=0;dropTarget=0;pointerEvents=0;fillColor=none;points=[[0,0.5],[1,0.5]];portConstraint=eastwest;top=0;left=0;right=0;bottom=1;shadow=0;strokeColor=#FFFFFF;fontStyle=0" parent="mTnyvaakH5OzPfA6hFWk-1435" vertex="1">
          <mxGeometry y="120" width="250" height="30" as="geometry" />
        </mxCell>
        <mxCell id="RlktWBtb3LKV7X0zDZpE-8" style="shape=partialRectangle;overflow=hidden;connectable=0;fillColor=none;top=0;left=0;bottom=0;right=0;fontStyle=0;shadow=0;strokeColor=#FFFFFF;" parent="RlktWBtb3LKV7X0zDZpE-7" vertex="1">
          <mxGeometry width="30" height="30" as="geometry">
            <mxRectangle width="30" height="30" as="alternateBounds" />
          </mxGeometry>
        </mxCell>
        <mxCell id="RlktWBtb3LKV7X0zDZpE-9" value="amount | int" style="shape=partialRectangle;overflow=hidden;connectable=0;fillColor=none;top=0;left=0;bottom=0;right=0;align=left;spacingLeft=6;fontStyle=0;shadow=0;strokeColor=#FFFFFF;" parent="RlktWBtb3LKV7X0zDZpE-7" vertex="1">
          <mxGeometry x="30" width="220" height="30" as="geometry">
            <mxRectangle width="220" height="30" as="alternateBounds" />
          </mxGeometry>
        </mxCell>
        <mxCell id="mTnyvaakH5OzPfA6hFWk-1458" style="shape=partialRectangle;collapsible=0;dropTarget=0;pointerEvents=0;fillColor=none;points=[[0,0.5],[1,0.5]];portConstraint=eastwest;top=0;left=0;right=0;bottom=1;shadow=0;strokeColor=#FFFFFF;fontStyle=0" parent="mTnyvaakH5OzPfA6hFWk-1435" vertex="1">
          <mxGeometry y="150" width="250" height="30" as="geometry" />
        </mxCell>
        <mxCell id="mTnyvaakH5OzPfA6hFWk-1459" style="shape=partialRectangle;overflow=hidden;connectable=0;fillColor=none;top=0;left=0;bottom=0;right=0;fontStyle=0;shadow=0;strokeColor=#FFFFFF;" parent="mTnyvaakH5OzPfA6hFWk-1458" vertex="1">
          <mxGeometry width="30" height="30" as="geometry">
            <mxRectangle width="30" height="30" as="alternateBounds" />
          </mxGeometry>
        </mxCell>
        <mxCell id="mTnyvaakH5OzPfA6hFWk-1460" value="staus | &quot;pending&quot;, &quot;success&quot;, &quot;failed&quot;" style="shape=partialRectangle;overflow=hidden;connectable=0;fillColor=none;top=0;left=0;bottom=0;right=0;align=left;spacingLeft=6;fontStyle=0;shadow=0;strokeColor=#FFFFFF;" parent="mTnyvaakH5OzPfA6hFWk-1458" vertex="1">
          <mxGeometry x="30" width="220" height="30" as="geometry">
            <mxRectangle width="220" height="30" as="alternateBounds" />
          </mxGeometry>
        </mxCell>
        <mxCell id="mTnyvaakH5OzPfA6hFWk-1451" style="edgeStyle=orthogonalEdgeStyle;rounded=0;orthogonalLoop=1;jettySize=auto;html=1;strokeColor=#FF33FF;" parent="1" target="sZ9AA6oVAfDoWRBkB18B-189" edge="1">
          <mxGeometry relative="1" as="geometry">
            <Array as="points">
              <mxPoint x="740" y="695" />
              <mxPoint x="740" y="-645" />
            </Array>
          </mxGeometry>
        </mxCell>
        <mxCell id="mTnyvaakH5OzPfA6hFWk-1453" style="edgeStyle=orthogonalEdgeStyle;rounded=0;orthogonalLoop=1;jettySize=auto;html=1;strokeColor=#33FFFF;" parent="1" target="sZ9AA6oVAfDoWRBkB18B-117" edge="1">
          <mxGeometry relative="1" as="geometry" />
        </mxCell>
        <mxCell id="OM2PtFSdT_WDv1JEF2DZ-1" value="Messages" style="shape=table;startSize=30;container=1;collapsible=1;childLayout=tableLayout;fixedRows=1;rowLines=0;fontStyle=0;align=center;resizeLast=1;fontColor=default;strokeColor=default;" parent="1" vertex="1">
          <mxGeometry x="-840" y="-710" width="250" height="240" as="geometry">
            <mxRectangle x="-840" y="-710" width="70" height="30" as="alternateBounds" />
          </mxGeometry>
        </mxCell>
        <mxCell id="OM2PtFSdT_WDv1JEF2DZ-2" style="shape=partialRectangle;collapsible=0;dropTarget=0;pointerEvents=0;fillColor=none;points=[[0,0.5],[1,0.5]];portConstraint=eastwest;top=0;left=0;right=0;bottom=1;fontColor=default;strokeColor=default;fontStyle=0" parent="OM2PtFSdT_WDv1JEF2DZ-1" vertex="1">
          <mxGeometry y="30" width="250" height="30" as="geometry" />
        </mxCell>
        <mxCell id="OM2PtFSdT_WDv1JEF2DZ-3" value="1" style="shape=partialRectangle;overflow=hidden;connectable=0;fillColor=none;top=0;left=0;bottom=0;right=0;fontStyle=0;fontColor=default;strokeColor=default;" parent="OM2PtFSdT_WDv1JEF2DZ-2" vertex="1">
          <mxGeometry width="30" height="30" as="geometry">
            <mxRectangle width="30" height="30" as="alternateBounds" />
          </mxGeometry>
        </mxCell>
        <mxCell id="OM2PtFSdT_WDv1JEF2DZ-4" value="_id" style="shape=partialRectangle;overflow=hidden;connectable=0;fillColor=none;top=0;left=0;bottom=0;right=0;align=left;spacingLeft=6;fontStyle=0;fontColor=default;strokeColor=default;" parent="OM2PtFSdT_WDv1JEF2DZ-2" vertex="1">
          <mxGeometry x="30" width="220" height="30" as="geometry">
            <mxRectangle width="220" height="30" as="alternateBounds" />
          </mxGeometry>
        </mxCell>
        <mxCell id="OM2PtFSdT_WDv1JEF2DZ-5" style="shape=partialRectangle;collapsible=0;dropTarget=0;pointerEvents=0;fillColor=none;points=[[0,0.5],[1,0.5]];portConstraint=eastwest;top=0;left=0;right=0;bottom=1;fontColor=default;strokeColor=default;fontStyle=0" parent="OM2PtFSdT_WDv1JEF2DZ-1" vertex="1">
          <mxGeometry y="60" width="250" height="30" as="geometry" />
        </mxCell>
        <mxCell id="OM2PtFSdT_WDv1JEF2DZ-6" value="2" style="shape=partialRectangle;overflow=hidden;connectable=0;fillColor=none;top=0;left=0;bottom=0;right=0;fontStyle=0;fontColor=default;strokeColor=default;" parent="OM2PtFSdT_WDv1JEF2DZ-5" vertex="1">
          <mxGeometry width="30" height="30" as="geometry">
            <mxRectangle width="30" height="30" as="alternateBounds" />
          </mxGeometry>
        </mxCell>
        <mxCell id="OM2PtFSdT_WDv1JEF2DZ-7" value="senderId" style="shape=partialRectangle;overflow=hidden;connectable=0;fillColor=#00FF00;top=0;left=0;bottom=0;right=0;align=left;spacingLeft=6;fontStyle=0;fontColor=#000000;strokeColor=default;" parent="OM2PtFSdT_WDv1JEF2DZ-5" vertex="1">
          <mxGeometry x="30" width="220" height="30" as="geometry">
            <mxRectangle width="220" height="30" as="alternateBounds" />
          </mxGeometry>
        </mxCell>
        <mxCell id="q44F4qtlCPMgeSK7Yo-w-34" style="shape=partialRectangle;collapsible=0;dropTarget=0;pointerEvents=0;fillColor=none;points=[[0,0.5],[1,0.5]];portConstraint=eastwest;top=0;left=0;right=0;bottom=1;fontColor=default;strokeColor=default;fontStyle=0" parent="OM2PtFSdT_WDv1JEF2DZ-1" vertex="1">
          <mxGeometry y="90" width="250" height="30" as="geometry" />
        </mxCell>
        <mxCell id="q44F4qtlCPMgeSK7Yo-w-35" style="shape=partialRectangle;overflow=hidden;connectable=0;fillColor=none;top=0;left=0;bottom=0;right=0;fontStyle=0;fontColor=default;strokeColor=default;" parent="q44F4qtlCPMgeSK7Yo-w-34" vertex="1">
          <mxGeometry width="30" height="30" as="geometry">
            <mxRectangle width="30" height="30" as="alternateBounds" />
          </mxGeometry>
        </mxCell>
        <mxCell id="q44F4qtlCPMgeSK7Yo-w-36" value="threadId" style="shape=partialRectangle;overflow=hidden;connectable=0;fillColor=none;top=0;left=0;bottom=0;right=0;align=left;spacingLeft=6;fontStyle=0;fontColor=default;strokeColor=default;" parent="q44F4qtlCPMgeSK7Yo-w-34" vertex="1">
          <mxGeometry x="30" width="220" height="30" as="geometry">
            <mxRectangle width="220" height="30" as="alternateBounds" />
          </mxGeometry>
        </mxCell>
        <mxCell id="OM2PtFSdT_WDv1JEF2DZ-11" style="shape=partialRectangle;collapsible=0;dropTarget=0;pointerEvents=0;fillColor=none;points=[[0,0.5],[1,0.5]];portConstraint=eastwest;top=0;left=0;right=0;bottom=1;fontColor=default;strokeColor=default;fontStyle=0" parent="OM2PtFSdT_WDv1JEF2DZ-1" vertex="1">
          <mxGeometry y="120" width="250" height="30" as="geometry" />
        </mxCell>
        <mxCell id="OM2PtFSdT_WDv1JEF2DZ-12" style="shape=partialRectangle;overflow=hidden;connectable=0;fillColor=none;top=0;left=0;bottom=0;right=0;fontStyle=0;fontColor=default;strokeColor=default;" parent="OM2PtFSdT_WDv1JEF2DZ-11" vertex="1">
          <mxGeometry width="30" height="30" as="geometry">
            <mxRectangle width="30" height="30" as="alternateBounds" />
          </mxGeometry>
        </mxCell>
        <mxCell id="OM2PtFSdT_WDv1JEF2DZ-13" value="content | str" style="shape=partialRectangle;overflow=hidden;connectable=0;fillColor=none;top=0;left=0;bottom=0;right=0;align=left;spacingLeft=6;fontStyle=0;fontColor=default;strokeColor=default;" parent="OM2PtFSdT_WDv1JEF2DZ-11" vertex="1">
          <mxGeometry x="30" width="220" height="30" as="geometry">
            <mxRectangle width="220" height="30" as="alternateBounds" />
          </mxGeometry>
        </mxCell>
        <mxCell id="ArsN-eyHdsOEsO3b-s-3-1" style="shape=partialRectangle;collapsible=0;dropTarget=0;pointerEvents=0;fillColor=none;points=[[0,0.5],[1,0.5]];portConstraint=eastwest;top=0;left=0;right=0;bottom=1;fontColor=default;strokeColor=default;fontStyle=0" parent="OM2PtFSdT_WDv1JEF2DZ-1" vertex="1">
          <mxGeometry y="150" width="250" height="30" as="geometry" />
        </mxCell>
        <mxCell id="ArsN-eyHdsOEsO3b-s-3-2" style="shape=partialRectangle;overflow=hidden;connectable=0;fillColor=none;top=0;left=0;bottom=0;right=0;fontStyle=0;fontColor=default;strokeColor=default;" parent="ArsN-eyHdsOEsO3b-s-3-1" vertex="1">
          <mxGeometry width="30" height="30" as="geometry">
            <mxRectangle width="30" height="30" as="alternateBounds" />
          </mxGeometry>
        </mxCell>
        <mxCell id="ArsN-eyHdsOEsO3b-s-3-3" value="attachments?: string[];" style="shape=partialRectangle;overflow=hidden;connectable=0;fillColor=none;top=0;left=0;bottom=0;right=0;align=left;spacingLeft=6;fontStyle=0;fontColor=default;strokeColor=default;" parent="ArsN-eyHdsOEsO3b-s-3-1" vertex="1">
          <mxGeometry x="30" width="220" height="30" as="geometry">
            <mxRectangle width="220" height="30" as="alternateBounds" />
          </mxGeometry>
        </mxCell>
        <mxCell id="OM2PtFSdT_WDv1JEF2DZ-14" style="shape=partialRectangle;collapsible=0;dropTarget=0;pointerEvents=0;fillColor=none;points=[[0,0.5],[1,0.5]];portConstraint=eastwest;top=0;left=0;right=0;bottom=1;fontColor=default;strokeColor=default;fontStyle=0" parent="OM2PtFSdT_WDv1JEF2DZ-1" vertex="1">
          <mxGeometry y="180" width="250" height="30" as="geometry" />
        </mxCell>
        <mxCell id="OM2PtFSdT_WDv1JEF2DZ-15" style="shape=partialRectangle;overflow=hidden;connectable=0;fillColor=none;top=0;left=0;bottom=0;right=0;fontStyle=0;fontColor=default;strokeColor=default;" parent="OM2PtFSdT_WDv1JEF2DZ-14" vertex="1">
          <mxGeometry width="30" height="30" as="geometry">
            <mxRectangle width="30" height="30" as="alternateBounds" />
          </mxGeometry>
        </mxCell>
        <mxCell id="OM2PtFSdT_WDv1JEF2DZ-16" value="receivedBy: Types.ObjectId[];" style="shape=partialRectangle;overflow=hidden;connectable=0;fillColor=none;top=0;left=0;bottom=0;right=0;align=left;spacingLeft=6;fontStyle=0;fontColor=default;strokeColor=default;" parent="OM2PtFSdT_WDv1JEF2DZ-14" vertex="1">
          <mxGeometry x="30" width="220" height="30" as="geometry">
            <mxRectangle width="220" height="30" as="alternateBounds" />
          </mxGeometry>
        </mxCell>
        <mxCell id="OM2PtFSdT_WDv1JEF2DZ-26" value="" style="shape=partialRectangle;collapsible=0;dropTarget=0;pointerEvents=0;fillColor=none;points=[[0,0.5],[1,0.5]];portConstraint=eastwest;top=0;left=0;right=0;bottom=0;fontColor=default;strokeColor=default;fontStyle=0" parent="OM2PtFSdT_WDv1JEF2DZ-1" vertex="1">
          <mxGeometry y="210" width="250" height="30" as="geometry" />
        </mxCell>
        <mxCell id="OM2PtFSdT_WDv1JEF2DZ-27" value="" style="shape=partialRectangle;overflow=hidden;connectable=0;fillColor=none;top=0;left=0;bottom=0;right=0;fontColor=default;strokeColor=default;fontStyle=0" parent="OM2PtFSdT_WDv1JEF2DZ-26" vertex="1">
          <mxGeometry width="30" height="30" as="geometry">
            <mxRectangle width="30" height="30" as="alternateBounds" />
          </mxGeometry>
        </mxCell>
        <mxCell id="OM2PtFSdT_WDv1JEF2DZ-28" value="readBy: Types.ObjectId[];" style="shape=partialRectangle;overflow=hidden;connectable=0;fillColor=none;top=0;left=0;bottom=0;right=0;align=left;spacingLeft=6;fontColor=default;strokeColor=default;fontStyle=0" parent="OM2PtFSdT_WDv1JEF2DZ-26" vertex="1">
          <mxGeometry x="30" width="220" height="30" as="geometry">
            <mxRectangle width="220" height="30" as="alternateBounds" />
          </mxGeometry>
        </mxCell>
        <mxCell id="OM2PtFSdT_WDv1JEF2DZ-36" style="edgeStyle=orthogonalEdgeStyle;rounded=0;orthogonalLoop=1;jettySize=auto;html=1;strokeColor=#00FF00;" parent="1" target="sZ9AA6oVAfDoWRBkB18B-30" edge="1">
          <mxGeometry relative="1" as="geometry" />
        </mxCell>
        <mxCell id="OM2PtFSdT_WDv1JEF2DZ-37" value="Notifications" style="shape=table;startSize=30;container=1;collapsible=1;childLayout=tableLayout;fixedRows=1;rowLines=0;fontStyle=0;align=center;resizeLast=1;fontColor=default;strokeColor=default;" parent="1" vertex="1">
          <mxGeometry x="-500" y="-430" width="250" height="210" as="geometry">
            <mxRectangle x="-500" y="-430" width="70" height="30" as="alternateBounds" />
          </mxGeometry>
        </mxCell>
        <mxCell id="OM2PtFSdT_WDv1JEF2DZ-38" style="shape=partialRectangle;collapsible=0;dropTarget=0;pointerEvents=0;fillColor=none;points=[[0,0.5],[1,0.5]];portConstraint=eastwest;top=0;left=0;right=0;bottom=1;fontColor=default;strokeColor=default;fontStyle=0" parent="OM2PtFSdT_WDv1JEF2DZ-37" vertex="1">
          <mxGeometry y="30" width="250" height="30" as="geometry" />
        </mxCell>
        <mxCell id="OM2PtFSdT_WDv1JEF2DZ-39" value="1" style="shape=partialRectangle;overflow=hidden;connectable=0;fillColor=none;top=0;left=0;bottom=0;right=0;fontStyle=0;fontColor=default;strokeColor=default;" parent="OM2PtFSdT_WDv1JEF2DZ-38" vertex="1">
          <mxGeometry width="30" height="30" as="geometry">
            <mxRectangle width="30" height="30" as="alternateBounds" />
          </mxGeometry>
        </mxCell>
        <mxCell id="OM2PtFSdT_WDv1JEF2DZ-40" value="_id" style="shape=partialRectangle;overflow=hidden;connectable=0;fillColor=none;top=0;left=0;bottom=0;right=0;align=left;spacingLeft=6;fontStyle=0;fontColor=default;strokeColor=default;" parent="OM2PtFSdT_WDv1JEF2DZ-38" vertex="1">
          <mxGeometry x="30" width="220" height="30" as="geometry">
            <mxRectangle width="220" height="30" as="alternateBounds" />
          </mxGeometry>
        </mxCell>
        <mxCell id="OM2PtFSdT_WDv1JEF2DZ-44" style="shape=partialRectangle;collapsible=0;dropTarget=0;pointerEvents=0;fillColor=none;points=[[0,0.5],[1,0.5]];portConstraint=eastwest;top=0;left=0;right=0;bottom=1;fontColor=default;strokeColor=default;fontStyle=0" parent="OM2PtFSdT_WDv1JEF2DZ-37" vertex="1">
          <mxGeometry y="60" width="250" height="30" as="geometry" />
        </mxCell>
        <mxCell id="OM2PtFSdT_WDv1JEF2DZ-45" style="shape=partialRectangle;overflow=hidden;connectable=0;fillColor=none;top=0;left=0;bottom=0;right=0;fontStyle=0;fontColor=default;strokeColor=default;" parent="OM2PtFSdT_WDv1JEF2DZ-44" vertex="1">
          <mxGeometry width="30" height="30" as="geometry">
            <mxRectangle width="30" height="30" as="alternateBounds" />
          </mxGeometry>
        </mxCell>
        <mxCell id="OM2PtFSdT_WDv1JEF2DZ-46" value="receiverId" style="shape=partialRectangle;overflow=hidden;connectable=0;fillColor=#00FF00;top=0;left=0;bottom=0;right=0;align=left;spacingLeft=6;fontStyle=0;fontColor=#000000;strokeColor=default;" parent="OM2PtFSdT_WDv1JEF2DZ-44" vertex="1">
          <mxGeometry x="30" width="220" height="30" as="geometry">
            <mxRectangle width="220" height="30" as="alternateBounds" />
          </mxGeometry>
        </mxCell>
        <mxCell id="OM2PtFSdT_WDv1JEF2DZ-47" style="shape=partialRectangle;collapsible=0;dropTarget=0;pointerEvents=0;fillColor=none;points=[[0,0.5],[1,0.5]];portConstraint=eastwest;top=0;left=0;right=0;bottom=1;fontColor=default;strokeColor=default;fontStyle=0" parent="OM2PtFSdT_WDv1JEF2DZ-37" vertex="1">
          <mxGeometry y="90" width="250" height="30" as="geometry" />
        </mxCell>
        <mxCell id="OM2PtFSdT_WDv1JEF2DZ-48" style="shape=partialRectangle;overflow=hidden;connectable=0;fillColor=none;top=0;left=0;bottom=0;right=0;fontStyle=0;fontColor=default;strokeColor=default;" parent="OM2PtFSdT_WDv1JEF2DZ-47" vertex="1">
          <mxGeometry width="30" height="30" as="geometry">
            <mxRectangle width="30" height="30" as="alternateBounds" />
          </mxGeometry>
        </mxCell>
        <mxCell id="OM2PtFSdT_WDv1JEF2DZ-49" value="title | str" style="shape=partialRectangle;overflow=hidden;connectable=0;fillColor=none;top=0;left=0;bottom=0;right=0;align=left;spacingLeft=6;fontStyle=0;fontColor=default;strokeColor=default;" parent="OM2PtFSdT_WDv1JEF2DZ-47" vertex="1">
          <mxGeometry x="30" width="220" height="30" as="geometry">
            <mxRectangle width="220" height="30" as="alternateBounds" />
          </mxGeometry>
        </mxCell>
        <mxCell id="OM2PtFSdT_WDv1JEF2DZ-57" style="shape=partialRectangle;collapsible=0;dropTarget=0;pointerEvents=0;fillColor=none;points=[[0,0.5],[1,0.5]];portConstraint=eastwest;top=0;left=0;right=0;bottom=1;fontColor=default;strokeColor=default;fontStyle=0" parent="OM2PtFSdT_WDv1JEF2DZ-37" vertex="1">
          <mxGeometry y="120" width="250" height="30" as="geometry" />
        </mxCell>
        <mxCell id="OM2PtFSdT_WDv1JEF2DZ-58" style="shape=partialRectangle;overflow=hidden;connectable=0;fillColor=none;top=0;left=0;bottom=0;right=0;fontStyle=0;fontColor=default;strokeColor=default;" parent="OM2PtFSdT_WDv1JEF2DZ-57" vertex="1">
          <mxGeometry width="30" height="30" as="geometry">
            <mxRectangle width="30" height="30" as="alternateBounds" />
          </mxGeometry>
        </mxCell>
        <mxCell id="OM2PtFSdT_WDv1JEF2DZ-59" value="message | srt" style="shape=partialRectangle;overflow=hidden;connectable=0;fillColor=none;top=0;left=0;bottom=0;right=0;align=left;spacingLeft=6;fontStyle=0;fontColor=default;strokeColor=default;" parent="OM2PtFSdT_WDv1JEF2DZ-57" vertex="1">
          <mxGeometry x="30" width="220" height="30" as="geometry">
            <mxRectangle width="220" height="30" as="alternateBounds" />
          </mxGeometry>
        </mxCell>
        <mxCell id="OM2PtFSdT_WDv1JEF2DZ-50" style="shape=partialRectangle;collapsible=0;dropTarget=0;pointerEvents=0;fillColor=none;points=[[0,0.5],[1,0.5]];portConstraint=eastwest;top=0;left=0;right=0;bottom=1;fontColor=default;strokeColor=default;fontStyle=0" parent="OM2PtFSdT_WDv1JEF2DZ-37" vertex="1">
          <mxGeometry y="150" width="250" height="30" as="geometry" />
        </mxCell>
        <mxCell id="OM2PtFSdT_WDv1JEF2DZ-51" style="shape=partialRectangle;overflow=hidden;connectable=0;fillColor=none;top=0;left=0;bottom=0;right=0;fontStyle=0;fontColor=default;strokeColor=default;" parent="OM2PtFSdT_WDv1JEF2DZ-50" vertex="1">
          <mxGeometry width="30" height="30" as="geometry">
            <mxRectangle width="30" height="30" as="alternateBounds" />
          </mxGeometry>
        </mxCell>
        <mxCell id="OM2PtFSdT_WDv1JEF2DZ-52" value="viewStatus | bool" style="shape=partialRectangle;overflow=hidden;connectable=0;fillColor=none;top=0;left=0;bottom=0;right=0;align=left;spacingLeft=6;fontStyle=0;fontColor=default;strokeColor=default;" parent="OM2PtFSdT_WDv1JEF2DZ-50" vertex="1">
          <mxGeometry x="30" width="220" height="30" as="geometry">
            <mxRectangle width="220" height="30" as="alternateBounds" />
          </mxGeometry>
        </mxCell>
        <mxCell id="OM2PtFSdT_WDv1JEF2DZ-53" value="" style="shape=partialRectangle;collapsible=0;dropTarget=0;pointerEvents=0;fillColor=none;points=[[0,0.5],[1,0.5]];portConstraint=eastwest;top=0;left=0;right=0;bottom=0;fontColor=default;strokeColor=default;fontStyle=0" parent="OM2PtFSdT_WDv1JEF2DZ-37" vertex="1">
          <mxGeometry y="180" width="250" height="30" as="geometry" />
        </mxCell>
        <mxCell id="OM2PtFSdT_WDv1JEF2DZ-54" value="" style="shape=partialRectangle;overflow=hidden;connectable=0;fillColor=none;top=0;left=0;bottom=0;right=0;fontColor=default;strokeColor=default;fontStyle=0" parent="OM2PtFSdT_WDv1JEF2DZ-53" vertex="1">
          <mxGeometry width="30" height="30" as="geometry">
            <mxRectangle width="30" height="30" as="alternateBounds" />
          </mxGeometry>
        </mxCell>
        <mxCell id="OM2PtFSdT_WDv1JEF2DZ-55" value="" style="shape=partialRectangle;overflow=hidden;connectable=0;fillColor=none;top=0;left=0;bottom=0;right=0;align=left;spacingLeft=6;fontColor=default;strokeColor=default;fontStyle=0" parent="OM2PtFSdT_WDv1JEF2DZ-53" vertex="1">
          <mxGeometry x="30" width="220" height="30" as="geometry">
            <mxRectangle width="220" height="30" as="alternateBounds" />
          </mxGeometry>
        </mxCell>
        <mxCell id="OM2PtFSdT_WDv1JEF2DZ-56" style="edgeStyle=orthogonalEdgeStyle;rounded=0;orthogonalLoop=1;jettySize=auto;html=1;strokeColor=#2D7600;fillColor=#60a917;fontStyle=0" parent="1" source="OM2PtFSdT_WDv1JEF2DZ-44" target="sZ9AA6oVAfDoWRBkB18B-30" edge="1">
          <mxGeometry relative="1" as="geometry" />
        </mxCell>
        <mxCell id="jiXmQ6CbQhFyGyrnd3u9-1" value="Setting" style="shape=table;startSize=30;container=1;collapsible=1;childLayout=tableLayout;fixedRows=1;rowLines=0;fontStyle=0;align=center;resizeLast=1;fontColor=default;strokeColor=default;" parent="1" vertex="1">
          <mxGeometry x="-810" y="490" width="250" height="150" as="geometry">
            <mxRectangle x="120" y="110" width="70" height="30" as="alternateBounds" />
          </mxGeometry>
        </mxCell>
        <mxCell id="jiXmQ6CbQhFyGyrnd3u9-2" style="shape=partialRectangle;collapsible=0;dropTarget=0;pointerEvents=0;fillColor=none;points=[[0,0.5],[1,0.5]];portConstraint=eastwest;top=0;left=0;right=0;bottom=1;fontColor=default;strokeColor=default;fontStyle=0" parent="jiXmQ6CbQhFyGyrnd3u9-1" vertex="1">
          <mxGeometry y="30" width="250" height="30" as="geometry" />
        </mxCell>
        <mxCell id="jiXmQ6CbQhFyGyrnd3u9-3" value="1" style="shape=partialRectangle;overflow=hidden;connectable=0;fillColor=none;top=0;left=0;bottom=0;right=0;fontStyle=0;fontColor=default;strokeColor=default;" parent="jiXmQ6CbQhFyGyrnd3u9-2" vertex="1">
          <mxGeometry width="30" height="30" as="geometry">
            <mxRectangle width="30" height="30" as="alternateBounds" />
          </mxGeometry>
        </mxCell>
        <mxCell id="jiXmQ6CbQhFyGyrnd3u9-4" value="_id" style="shape=partialRectangle;overflow=hidden;connectable=0;fillColor=none;top=0;left=0;bottom=0;right=0;align=left;spacingLeft=6;fontStyle=0;fontColor=default;strokeColor=default;" parent="jiXmQ6CbQhFyGyrnd3u9-2" vertex="1">
          <mxGeometry x="30" width="220" height="30" as="geometry">
            <mxRectangle width="220" height="30" as="alternateBounds" />
          </mxGeometry>
        </mxCell>
        <mxCell id="jiXmQ6CbQhFyGyrnd3u9-8" style="shape=partialRectangle;collapsible=0;dropTarget=0;pointerEvents=0;fillColor=none;points=[[0,0.5],[1,0.5]];portConstraint=eastwest;top=0;left=0;right=0;bottom=1;fontColor=default;strokeColor=default;fontStyle=0" parent="jiXmQ6CbQhFyGyrnd3u9-1" vertex="1">
          <mxGeometry y="60" width="250" height="30" as="geometry" />
        </mxCell>
        <mxCell id="jiXmQ6CbQhFyGyrnd3u9-9" style="shape=partialRectangle;overflow=hidden;connectable=0;fillColor=none;top=0;left=0;bottom=0;right=0;fontStyle=0;fontColor=default;strokeColor=default;" parent="jiXmQ6CbQhFyGyrnd3u9-8" vertex="1">
          <mxGeometry width="30" height="30" as="geometry">
            <mxRectangle width="30" height="30" as="alternateBounds" />
          </mxGeometry>
        </mxCell>
        <mxCell id="jiXmQ6CbQhFyGyrnd3u9-10" value="key | str" style="shape=partialRectangle;overflow=hidden;connectable=0;fillColor=none;top=0;left=0;bottom=0;right=0;align=left;spacingLeft=6;fontStyle=0;fontColor=default;strokeColor=default;" parent="jiXmQ6CbQhFyGyrnd3u9-8" vertex="1">
          <mxGeometry x="30" width="220" height="30" as="geometry">
            <mxRectangle width="220" height="30" as="alternateBounds" />
          </mxGeometry>
        </mxCell>
        <mxCell id="jiXmQ6CbQhFyGyrnd3u9-11" style="shape=partialRectangle;collapsible=0;dropTarget=0;pointerEvents=0;fillColor=none;points=[[0,0.5],[1,0.5]];portConstraint=eastwest;top=0;left=0;right=0;bottom=1;fontColor=default;strokeColor=default;fontStyle=0" parent="jiXmQ6CbQhFyGyrnd3u9-1" vertex="1">
          <mxGeometry y="90" width="250" height="30" as="geometry" />
        </mxCell>
        <mxCell id="jiXmQ6CbQhFyGyrnd3u9-12" style="shape=partialRectangle;overflow=hidden;connectable=0;fillColor=none;top=0;left=0;bottom=0;right=0;fontStyle=0;fontColor=default;strokeColor=default;" parent="jiXmQ6CbQhFyGyrnd3u9-11" vertex="1">
          <mxGeometry width="30" height="30" as="geometry">
            <mxRectangle width="30" height="30" as="alternateBounds" />
          </mxGeometry>
        </mxCell>
        <mxCell id="jiXmQ6CbQhFyGyrnd3u9-13" value="name | srt" style="shape=partialRectangle;overflow=hidden;connectable=0;fillColor=none;top=0;left=0;bottom=0;right=0;align=left;spacingLeft=6;fontStyle=0;fontColor=default;strokeColor=default;" parent="jiXmQ6CbQhFyGyrnd3u9-11" vertex="1">
          <mxGeometry x="30" width="220" height="30" as="geometry">
            <mxRectangle width="220" height="30" as="alternateBounds" />
          </mxGeometry>
        </mxCell>
        <mxCell id="jiXmQ6CbQhFyGyrnd3u9-14" style="shape=partialRectangle;collapsible=0;dropTarget=0;pointerEvents=0;fillColor=none;points=[[0,0.5],[1,0.5]];portConstraint=eastwest;top=0;left=0;right=0;bottom=1;fontColor=default;strokeColor=default;fontStyle=0" parent="jiXmQ6CbQhFyGyrnd3u9-1" vertex="1">
          <mxGeometry y="120" width="250" height="30" as="geometry" />
        </mxCell>
        <mxCell id="jiXmQ6CbQhFyGyrnd3u9-15" style="shape=partialRectangle;overflow=hidden;connectable=0;fillColor=none;top=0;left=0;bottom=0;right=0;fontStyle=0;fontColor=default;strokeColor=default;" parent="jiXmQ6CbQhFyGyrnd3u9-14" vertex="1">
          <mxGeometry width="30" height="30" as="geometry">
            <mxRectangle width="30" height="30" as="alternateBounds" />
          </mxGeometry>
        </mxCell>
        <mxCell id="jiXmQ6CbQhFyGyrnd3u9-16" value="value | any" style="shape=partialRectangle;overflow=hidden;connectable=0;fillColor=none;top=0;left=0;bottom=0;right=0;align=left;spacingLeft=6;fontStyle=0;fontColor=default;strokeColor=default;" parent="jiXmQ6CbQhFyGyrnd3u9-14" vertex="1">
          <mxGeometry x="30" width="220" height="30" as="geometry">
            <mxRectangle width="220" height="30" as="alternateBounds" />
          </mxGeometry>
        </mxCell>
        <mxCell id="jiXmQ6CbQhFyGyrnd3u9-20" value="&lt;h1&gt;&lt;font style=&quot;font-size: 40px;&quot; face=&quot;Verdana&quot;&gt;Roam Database Diagram&lt;/font&gt;&lt;/h1&gt;" style="text;html=1;align=center;verticalAlign=middle;resizable=0;points=[];autosize=1;strokeColor=none;fillColor=none;fontStyle=0" parent="1" vertex="1">
          <mxGeometry x="-345" y="-900" width="580" height="90" as="geometry" />
        </mxCell>
        <mxCell id="q44F4qtlCPMgeSK7Yo-w-23" style="edgeStyle=orthogonalEdgeStyle;rounded=0;orthogonalLoop=1;jettySize=auto;html=1;fontStyle=0" parent="1" source="q44F4qtlCPMgeSK7Yo-w-20" target="OM2PtFSdT_WDv1JEF2DZ-2" edge="1">
          <mxGeometry relative="1" as="geometry" />
        </mxCell>
        <mxCell id="q44F4qtlCPMgeSK7Yo-w-27" style="edgeStyle=orthogonalEdgeStyle;rounded=0;orthogonalLoop=1;jettySize=auto;html=1;strokeColor=#FF00FF;" parent="1" target="q44F4qtlCPMgeSK7Yo-w-1" edge="1">
          <mxGeometry relative="1" as="geometry" />
        </mxCell>
        <mxCell id="q44F4qtlCPMgeSK7Yo-w-37" value="" style="edgeStyle=orthogonalEdgeStyle;rounded=0;orthogonalLoop=1;jettySize=auto;html=1;strokeColor=#2D7600;fillColor=#60a917;fontStyle=0" parent="1" source="OM2PtFSdT_WDv1JEF2DZ-5" target="sZ9AA6oVAfDoWRBkB18B-30" edge="1">
          <mxGeometry relative="1" as="geometry">
            <mxPoint x="-250" y="-635" as="sourcePoint" />
            <mxPoint y="-695" as="targetPoint" />
            <Array as="points">
              <mxPoint x="-560" y="-635" />
              <mxPoint x="-560" y="-710" />
            </Array>
          </mxGeometry>
        </mxCell>
        <mxCell id="q44F4qtlCPMgeSK7Yo-w-1" value="Message Threads" style="shape=table;startSize=30;container=1;collapsible=1;childLayout=tableLayout;fixedRows=1;rowLines=0;fontStyle=0;align=center;resizeLast=1;fontColor=default;strokeColor=default;" parent="1" vertex="1">
          <mxGeometry x="-500" y="-700" width="250" height="150" as="geometry">
            <mxRectangle x="-500" y="-700" width="70" height="30" as="alternateBounds" />
          </mxGeometry>
        </mxCell>
        <mxCell id="q44F4qtlCPMgeSK7Yo-w-2" style="shape=partialRectangle;collapsible=0;dropTarget=0;pointerEvents=0;fillColor=none;points=[[0,0.5],[1,0.5]];portConstraint=eastwest;top=0;left=0;right=0;bottom=1;fontColor=default;strokeColor=default;fontStyle=0" parent="q44F4qtlCPMgeSK7Yo-w-1" vertex="1">
          <mxGeometry y="30" width="250" height="30" as="geometry" />
        </mxCell>
        <mxCell id="q44F4qtlCPMgeSK7Yo-w-3" value="1" style="shape=partialRectangle;overflow=hidden;connectable=0;fillColor=none;top=0;left=0;bottom=0;right=0;fontStyle=0;fontColor=default;strokeColor=default;" parent="q44F4qtlCPMgeSK7Yo-w-2" vertex="1">
          <mxGeometry width="30" height="30" as="geometry">
            <mxRectangle width="30" height="30" as="alternateBounds" />
          </mxGeometry>
        </mxCell>
        <mxCell id="q44F4qtlCPMgeSK7Yo-w-4" value="_id" style="shape=partialRectangle;overflow=hidden;connectable=0;fillColor=none;top=0;left=0;bottom=0;right=0;align=left;spacingLeft=6;fontStyle=0;fontColor=default;strokeColor=default;" parent="q44F4qtlCPMgeSK7Yo-w-2" vertex="1">
          <mxGeometry x="30" width="220" height="30" as="geometry">
            <mxRectangle width="220" height="30" as="alternateBounds" />
          </mxGeometry>
        </mxCell>
        <mxCell id="q44F4qtlCPMgeSK7Yo-w-5" style="shape=partialRectangle;collapsible=0;dropTarget=0;pointerEvents=0;fillColor=none;points=[[0,0.5],[1,0.5]];portConstraint=eastwest;top=0;left=0;right=0;bottom=1;fontColor=default;strokeColor=default;fontStyle=0" parent="q44F4qtlCPMgeSK7Yo-w-1" vertex="1">
          <mxGeometry y="60" width="250" height="30" as="geometry" />
        </mxCell>
        <mxCell id="q44F4qtlCPMgeSK7Yo-w-6" value="2" style="shape=partialRectangle;overflow=hidden;connectable=0;fillColor=none;top=0;left=0;bottom=0;right=0;fontStyle=0;fontColor=default;strokeColor=default;" parent="q44F4qtlCPMgeSK7Yo-w-5" vertex="1">
          <mxGeometry width="30" height="30" as="geometry">
            <mxRectangle width="30" height="30" as="alternateBounds" />
          </mxGeometry>
        </mxCell>
        <mxCell id="q44F4qtlCPMgeSK7Yo-w-7" value="participants [user id]" style="shape=partialRectangle;overflow=hidden;connectable=0;fillColor=#00FF00;top=0;left=0;bottom=0;right=0;align=left;spacingLeft=6;fontStyle=0;fontColor=#000000;strokeColor=default;" parent="q44F4qtlCPMgeSK7Yo-w-5" vertex="1">
          <mxGeometry x="30" width="220" height="30" as="geometry">
            <mxRectangle width="220" height="30" as="alternateBounds" />
          </mxGeometry>
        </mxCell>
        <mxCell id="q44F4qtlCPMgeSK7Yo-w-20" style="shape=partialRectangle;collapsible=0;dropTarget=0;pointerEvents=0;fillColor=none;points=[[0,0.5],[1,0.5]];portConstraint=eastwest;top=0;left=0;right=0;bottom=1;fontColor=default;strokeColor=default;fontStyle=0" parent="q44F4qtlCPMgeSK7Yo-w-1" vertex="1">
          <mxGeometry y="90" width="250" height="30" as="geometry" />
        </mxCell>
        <mxCell id="q44F4qtlCPMgeSK7Yo-w-21" style="shape=partialRectangle;overflow=hidden;connectable=0;fillColor=none;top=0;left=0;bottom=0;right=0;fontStyle=0;fontColor=default;strokeColor=default;" parent="q44F4qtlCPMgeSK7Yo-w-20" vertex="1">
          <mxGeometry width="30" height="30" as="geometry">
            <mxRectangle width="30" height="30" as="alternateBounds" />
          </mxGeometry>
        </mxCell>
        <mxCell id="q44F4qtlCPMgeSK7Yo-w-22" value="lastMessageId" style="shape=partialRectangle;overflow=hidden;connectable=0;fillColor=none;top=0;left=0;bottom=0;right=0;align=left;spacingLeft=6;fontStyle=0;fontColor=default;strokeColor=default;" parent="q44F4qtlCPMgeSK7Yo-w-20" vertex="1">
          <mxGeometry x="30" width="220" height="30" as="geometry">
            <mxRectangle width="220" height="30" as="alternateBounds" />
          </mxGeometry>
        </mxCell>
        <mxCell id="q44F4qtlCPMgeSK7Yo-w-11" style="shape=partialRectangle;collapsible=0;dropTarget=0;pointerEvents=0;fillColor=none;points=[[0,0.5],[1,0.5]];portConstraint=eastwest;top=0;left=0;right=0;bottom=1;fontColor=default;strokeColor=default;fontStyle=0" parent="q44F4qtlCPMgeSK7Yo-w-1" vertex="1">
          <mxGeometry y="120" width="250" height="30" as="geometry" />
        </mxCell>
        <mxCell id="q44F4qtlCPMgeSK7Yo-w-12" style="shape=partialRectangle;overflow=hidden;connectable=0;fillColor=none;top=0;left=0;bottom=0;right=0;fontStyle=0;fontColor=default;strokeColor=default;" parent="q44F4qtlCPMgeSK7Yo-w-11" vertex="1">
          <mxGeometry width="30" height="30" as="geometry">
            <mxRectangle width="30" height="30" as="alternateBounds" />
          </mxGeometry>
        </mxCell>
        <mxCell id="q44F4qtlCPMgeSK7Yo-w-13" value="unreadCount: Map&lt;userId, number&gt;" style="shape=partialRectangle;overflow=hidden;connectable=0;fillColor=none;top=0;left=0;bottom=0;right=0;align=left;spacingLeft=6;fontStyle=0;fontColor=default;strokeColor=default;" parent="q44F4qtlCPMgeSK7Yo-w-11" vertex="1">
          <mxGeometry x="30" width="220" height="30" as="geometry">
            <mxRectangle width="220" height="30" as="alternateBounds" />
          </mxGeometry>
        </mxCell>
        <mxCell id="q44F4qtlCPMgeSK7Yo-w-39" style="edgeStyle=orthogonalEdgeStyle;rounded=0;orthogonalLoop=1;jettySize=auto;html=1;strokeColor=#2D7600;fillColor=#60a917;fontStyle=0" parent="1" source="q44F4qtlCPMgeSK7Yo-w-5" target="sZ9AA6oVAfDoWRBkB18B-30" edge="1">
          <mxGeometry relative="1" as="geometry" />
        </mxCell>
        <mxCell id="q44F4qtlCPMgeSK7Yo-w-40" style="edgeStyle=orthogonalEdgeStyle;rounded=0;orthogonalLoop=1;jettySize=auto;html=1;strokeColor=#FF00FF;fontStyle=0" parent="1" source="q44F4qtlCPMgeSK7Yo-w-34" target="q44F4qtlCPMgeSK7Yo-w-2" edge="1">
          <mxGeometry relative="1" as="geometry" />
        </mxCell>
        <mxCell id="9j3H_LcjLFZRQ34MltGA-4" value="Transaction" style="shape=table;startSize=30;container=1;collapsible=1;childLayout=tableLayout;fixedRows=1;rowLines=0;fontStyle=0;align=center;resizeLast=1;shadow=0;strokeColor=#FFFFFF;" parent="1" vertex="1">
          <mxGeometry x="380" y="-75" width="250" height="360" as="geometry">
            <mxRectangle x="120" y="110" width="70" height="30" as="alternateBounds" />
          </mxGeometry>
        </mxCell>
        <mxCell id="9j3H_LcjLFZRQ34MltGA-5" style="shape=partialRectangle;collapsible=0;dropTarget=0;pointerEvents=0;fillColor=none;points=[[0,0.5],[1,0.5]];portConstraint=eastwest;top=0;left=0;right=0;bottom=1;shadow=0;strokeColor=#FFFFFF;fontStyle=0" parent="9j3H_LcjLFZRQ34MltGA-4" vertex="1">
          <mxGeometry y="30" width="250" height="30" as="geometry" />
        </mxCell>
        <mxCell id="9j3H_LcjLFZRQ34MltGA-6" value="1" style="shape=partialRectangle;overflow=hidden;connectable=0;fillColor=none;top=0;left=0;bottom=0;right=0;fontStyle=0;shadow=0;strokeColor=#FFFFFF;" parent="9j3H_LcjLFZRQ34MltGA-5" vertex="1">
          <mxGeometry width="30" height="30" as="geometry">
            <mxRectangle width="30" height="30" as="alternateBounds" />
          </mxGeometry>
        </mxCell>
        <mxCell id="9j3H_LcjLFZRQ34MltGA-7" value="_id" style="shape=partialRectangle;overflow=hidden;connectable=0;fillColor=none;top=0;left=0;bottom=0;right=0;align=left;spacingLeft=6;fontStyle=0;shadow=0;strokeColor=#FFFFFF;" parent="9j3H_LcjLFZRQ34MltGA-5" vertex="1">
          <mxGeometry x="30" width="220" height="30" as="geometry">
            <mxRectangle width="220" height="30" as="alternateBounds" />
          </mxGeometry>
        </mxCell>
        <mxCell id="9j3H_LcjLFZRQ34MltGA-8" style="shape=partialRectangle;collapsible=0;dropTarget=0;pointerEvents=0;fillColor=none;points=[[0,0.5],[1,0.5]];portConstraint=eastwest;top=0;left=0;right=0;bottom=1;shadow=0;strokeColor=#FFFFFF;fontStyle=0" parent="9j3H_LcjLFZRQ34MltGA-4" vertex="1">
          <mxGeometry y="60" width="250" height="30" as="geometry" />
        </mxCell>
        <mxCell id="9j3H_LcjLFZRQ34MltGA-9" style="shape=partialRectangle;overflow=hidden;connectable=0;fillColor=none;top=0;left=0;bottom=0;right=0;fontStyle=0;shadow=0;strokeColor=#FFFFFF;" parent="9j3H_LcjLFZRQ34MltGA-8" vertex="1">
          <mxGeometry width="30" height="30" as="geometry">
            <mxRectangle width="30" height="30" as="alternateBounds" />
          </mxGeometry>
        </mxCell>
        <mxCell id="9j3H_LcjLFZRQ34MltGA-10" value="userId" style="shape=partialRectangle;overflow=hidden;connectable=0;fillColor=#00FF00;top=0;left=0;bottom=0;right=0;align=left;spacingLeft=6;fontStyle=0;shadow=0;strokeColor=#FFFFFF;fontColor=#000000;" parent="9j3H_LcjLFZRQ34MltGA-8" vertex="1">
          <mxGeometry x="30" width="220" height="30" as="geometry">
            <mxRectangle width="220" height="30" as="alternateBounds" />
          </mxGeometry>
        </mxCell>
        <mxCell id="9j3H_LcjLFZRQ34MltGA-11" style="shape=partialRectangle;collapsible=0;dropTarget=0;pointerEvents=0;fillColor=none;points=[[0,0.5],[1,0.5]];portConstraint=eastwest;top=0;left=0;right=0;bottom=1;shadow=0;strokeColor=#FFFFFF;fontStyle=0" parent="9j3H_LcjLFZRQ34MltGA-4" vertex="1">
          <mxGeometry y="90" width="250" height="30" as="geometry" />
        </mxCell>
        <mxCell id="9j3H_LcjLFZRQ34MltGA-12" style="shape=partialRectangle;overflow=hidden;connectable=0;fillColor=none;top=0;left=0;bottom=0;right=0;fontStyle=0;shadow=0;strokeColor=#FFFFFF;" parent="9j3H_LcjLFZRQ34MltGA-11" vertex="1">
          <mxGeometry width="30" height="30" as="geometry">
            <mxRectangle width="30" height="30" as="alternateBounds" />
          </mxGeometry>
        </mxCell>
        <mxCell id="9j3H_LcjLFZRQ34MltGA-13" value="providerId" style="shape=partialRectangle;overflow=hidden;connectable=0;fillColor=#0000CC;top=0;left=0;bottom=0;right=0;align=left;spacingLeft=6;fontStyle=0;shadow=0;strokeColor=#FFFFFF;fontColor=#FFFFFF;" parent="9j3H_LcjLFZRQ34MltGA-11" vertex="1">
          <mxGeometry x="30" width="220" height="30" as="geometry">
            <mxRectangle width="220" height="30" as="alternateBounds" />
          </mxGeometry>
        </mxCell>
        <mxCell id="9j3H_LcjLFZRQ34MltGA-14" style="shape=partialRectangle;collapsible=0;dropTarget=0;pointerEvents=0;fillColor=none;points=[[0,0.5],[1,0.5]];portConstraint=eastwest;top=0;left=0;right=0;bottom=1;shadow=0;strokeColor=#FFFFFF;fontStyle=0" parent="9j3H_LcjLFZRQ34MltGA-4" vertex="1">
          <mxGeometry y="120" width="250" height="30" as="geometry" />
        </mxCell>
        <mxCell id="9j3H_LcjLFZRQ34MltGA-15" value="" style="shape=partialRectangle;overflow=hidden;connectable=0;fillColor=none;top=0;left=0;bottom=0;right=0;fontStyle=0;shadow=0;strokeColor=#FFFFFF;" parent="9j3H_LcjLFZRQ34MltGA-14" vertex="1">
          <mxGeometry width="30" height="30" as="geometry">
            <mxRectangle width="30" height="30" as="alternateBounds" />
          </mxGeometry>
        </mxCell>
        <mxCell id="9j3H_LcjLFZRQ34MltGA-16" value="jobId" style="shape=partialRectangle;overflow=hidden;connectable=0;fillColor=#00CCCC;top=0;left=0;bottom=0;right=0;align=left;spacingLeft=6;fontStyle=0;shadow=0;strokeColor=#FFFFFF;fontColor=#000000;" parent="9j3H_LcjLFZRQ34MltGA-14" vertex="1">
          <mxGeometry x="30" width="220" height="30" as="geometry">
            <mxRectangle width="220" height="30" as="alternateBounds" />
          </mxGeometry>
        </mxCell>
        <mxCell id="9j3H_LcjLFZRQ34MltGA-20" style="shape=partialRectangle;collapsible=0;dropTarget=0;pointerEvents=0;fillColor=none;points=[[0,0.5],[1,0.5]];portConstraint=eastwest;top=0;left=0;right=0;bottom=1;shadow=0;strokeColor=#FFFFFF;fontStyle=0" parent="9j3H_LcjLFZRQ34MltGA-4" vertex="1">
          <mxGeometry y="150" width="250" height="30" as="geometry" />
        </mxCell>
        <mxCell id="9j3H_LcjLFZRQ34MltGA-21" style="shape=partialRectangle;overflow=hidden;connectable=0;fillColor=none;top=0;left=0;bottom=0;right=0;fontStyle=0;shadow=0;strokeColor=#FFFFFF;" parent="9j3H_LcjLFZRQ34MltGA-20" vertex="1">
          <mxGeometry width="30" height="30" as="geometry">
            <mxRectangle width="30" height="30" as="alternateBounds" />
          </mxGeometry>
        </mxCell>
        <mxCell id="9j3H_LcjLFZRQ34MltGA-22" value="promoId" style="shape=partialRectangle;overflow=hidden;connectable=0;fillColor=#d80073;top=0;left=0;bottom=0;right=0;align=left;spacingLeft=6;fontStyle=0;shadow=0;strokeColor=#A50040;fontColor=#ffffff;" parent="9j3H_LcjLFZRQ34MltGA-20" vertex="1">
          <mxGeometry x="30" width="220" height="30" as="geometry">
            <mxRectangle width="220" height="30" as="alternateBounds" />
          </mxGeometry>
        </mxCell>
        <mxCell id="ezP1WiZqv_afubqY5u5t-226" style="shape=partialRectangle;collapsible=0;dropTarget=0;pointerEvents=0;fillColor=none;points=[[0,0.5],[1,0.5]];portConstraint=eastwest;top=0;left=0;right=0;bottom=1;shadow=0;strokeColor=#FFFFFF;fontStyle=0" parent="9j3H_LcjLFZRQ34MltGA-4" vertex="1">
          <mxGeometry y="180" width="250" height="30" as="geometry" />
        </mxCell>
        <mxCell id="ezP1WiZqv_afubqY5u5t-227" style="shape=partialRectangle;overflow=hidden;connectable=0;fillColor=none;top=0;left=0;bottom=0;right=0;fontStyle=0;shadow=0;strokeColor=#FFFFFF;" parent="ezP1WiZqv_afubqY5u5t-226" vertex="1">
          <mxGeometry width="30" height="30" as="geometry">
            <mxRectangle width="30" height="30" as="alternateBounds" />
          </mxGeometry>
        </mxCell>
        <mxCell id="ezP1WiZqv_afubqY5u5t-228" value="ammount | float" style="shape=partialRectangle;overflow=hidden;connectable=0;fillColor=none;top=0;left=0;bottom=0;right=0;align=left;spacingLeft=6;fontStyle=0;shadow=0;strokeColor=#FFFFFF;" parent="ezP1WiZqv_afubqY5u5t-226" vertex="1">
          <mxGeometry x="30" width="220" height="30" as="geometry">
            <mxRectangle width="220" height="30" as="alternateBounds" />
          </mxGeometry>
        </mxCell>
        <mxCell id="ezP1WiZqv_afubqY5u5t-229" style="shape=partialRectangle;collapsible=0;dropTarget=0;pointerEvents=0;fillColor=none;points=[[0,0.5],[1,0.5]];portConstraint=eastwest;top=0;left=0;right=0;bottom=1;shadow=0;strokeColor=#FFFFFF;fontStyle=0" parent="9j3H_LcjLFZRQ34MltGA-4" vertex="1">
          <mxGeometry y="210" width="250" height="30" as="geometry" />
        </mxCell>
        <mxCell id="ezP1WiZqv_afubqY5u5t-230" style="shape=partialRectangle;overflow=hidden;connectable=0;fillColor=none;top=0;left=0;bottom=0;right=0;fontStyle=0;shadow=0;strokeColor=#FFFFFF;" parent="ezP1WiZqv_afubqY5u5t-229" vertex="1">
          <mxGeometry width="30" height="30" as="geometry">
            <mxRectangle width="30" height="30" as="alternateBounds" />
          </mxGeometry>
        </mxCell>
        <mxCell id="ezP1WiZqv_afubqY5u5t-231" value="discount | float" style="shape=partialRectangle;overflow=hidden;connectable=0;fillColor=none;top=0;left=0;bottom=0;right=0;align=left;spacingLeft=6;fontStyle=0;shadow=0;strokeColor=#FFFFFF;" parent="ezP1WiZqv_afubqY5u5t-229" vertex="1">
          <mxGeometry x="30" width="220" height="30" as="geometry">
            <mxRectangle width="220" height="30" as="alternateBounds" />
          </mxGeometry>
        </mxCell>
        <mxCell id="ezP1WiZqv_afubqY5u5t-232" style="shape=partialRectangle;collapsible=0;dropTarget=0;pointerEvents=0;fillColor=none;points=[[0,0.5],[1,0.5]];portConstraint=eastwest;top=0;left=0;right=0;bottom=1;shadow=0;strokeColor=#FFFFFF;fontStyle=0" parent="9j3H_LcjLFZRQ34MltGA-4" vertex="1">
          <mxGeometry y="240" width="250" height="30" as="geometry" />
        </mxCell>
        <mxCell id="ezP1WiZqv_afubqY5u5t-233" style="shape=partialRectangle;overflow=hidden;connectable=0;fillColor=none;top=0;left=0;bottom=0;right=0;fontStyle=0;shadow=0;strokeColor=#FFFFFF;" parent="ezP1WiZqv_afubqY5u5t-232" vertex="1">
          <mxGeometry width="30" height="30" as="geometry">
            <mxRectangle width="30" height="30" as="alternateBounds" />
          </mxGeometry>
        </mxCell>
        <mxCell id="ezP1WiZqv_afubqY5u5t-234" value="finalAmmount | float" style="shape=partialRectangle;overflow=hidden;connectable=0;fillColor=none;top=0;left=0;bottom=0;right=0;align=left;spacingLeft=6;fontStyle=0;shadow=0;strokeColor=#FFFFFF;" parent="ezP1WiZqv_afubqY5u5t-232" vertex="1">
          <mxGeometry x="30" width="220" height="30" as="geometry">
            <mxRectangle width="220" height="30" as="alternateBounds" />
          </mxGeometry>
        </mxCell>
        <mxCell id="9j3H_LcjLFZRQ34MltGA-29" style="shape=partialRectangle;collapsible=0;dropTarget=0;pointerEvents=0;fillColor=none;points=[[0,0.5],[1,0.5]];portConstraint=eastwest;top=0;left=0;right=0;bottom=1;shadow=0;strokeColor=#FFFFFF;fontStyle=0" parent="9j3H_LcjLFZRQ34MltGA-4" vertex="1">
          <mxGeometry y="270" width="250" height="30" as="geometry" />
        </mxCell>
        <mxCell id="9j3H_LcjLFZRQ34MltGA-30" style="shape=partialRectangle;overflow=hidden;connectable=0;fillColor=none;top=0;left=0;bottom=0;right=0;fontStyle=0;shadow=0;strokeColor=#FFFFFF;" parent="9j3H_LcjLFZRQ34MltGA-29" vertex="1">
          <mxGeometry width="30" height="30" as="geometry">
            <mxRectangle width="30" height="30" as="alternateBounds" />
          </mxGeometry>
        </mxCell>
        <mxCell id="9j3H_LcjLFZRQ34MltGA-31" value="isRefundRequested" style="shape=partialRectangle;overflow=hidden;connectable=0;fillColor=none;top=0;left=0;bottom=0;right=0;align=left;spacingLeft=6;fontStyle=0;shadow=0;strokeColor=#FFFFFF;" parent="9j3H_LcjLFZRQ34MltGA-29" vertex="1">
          <mxGeometry x="30" width="220" height="30" as="geometry">
            <mxRectangle width="220" height="30" as="alternateBounds" />
          </mxGeometry>
        </mxCell>
        <mxCell id="9j3H_LcjLFZRQ34MltGA-35" style="shape=partialRectangle;collapsible=0;dropTarget=0;pointerEvents=0;fillColor=none;points=[[0,0.5],[1,0.5]];portConstraint=eastwest;top=0;left=0;right=0;bottom=1;shadow=0;strokeColor=#FFFFFF;fontStyle=0" parent="9j3H_LcjLFZRQ34MltGA-4" vertex="1">
          <mxGeometry y="300" width="250" height="30" as="geometry" />
        </mxCell>
        <mxCell id="9j3H_LcjLFZRQ34MltGA-36" style="shape=partialRectangle;overflow=hidden;connectable=0;fillColor=none;top=0;left=0;bottom=0;right=0;fontStyle=0;shadow=0;strokeColor=#FFFFFF;" parent="9j3H_LcjLFZRQ34MltGA-35" vertex="1">
          <mxGeometry width="30" height="30" as="geometry">
            <mxRectangle width="30" height="30" as="alternateBounds" />
          </mxGeometry>
        </mxCell>
        <mxCell id="9j3H_LcjLFZRQ34MltGA-37" value="refundDetails" style="shape=partialRectangle;overflow=hidden;connectable=0;fillColor=none;top=0;left=0;bottom=0;right=0;align=left;spacingLeft=6;fontStyle=0;shadow=0;strokeColor=#FFFFFF;" parent="9j3H_LcjLFZRQ34MltGA-35" vertex="1">
          <mxGeometry x="30" width="220" height="30" as="geometry">
            <mxRectangle width="220" height="30" as="alternateBounds" />
          </mxGeometry>
        </mxCell>
        <mxCell id="9j3H_LcjLFZRQ34MltGA-38" style="shape=partialRectangle;collapsible=0;dropTarget=0;pointerEvents=0;fillColor=none;points=[[0,0.5],[1,0.5]];portConstraint=eastwest;top=0;left=0;right=0;bottom=1;shadow=0;strokeColor=#FFFFFF;fontStyle=0" parent="9j3H_LcjLFZRQ34MltGA-4" vertex="1">
          <mxGeometry y="330" width="250" height="30" as="geometry" />
        </mxCell>
        <mxCell id="9j3H_LcjLFZRQ34MltGA-39" style="shape=partialRectangle;overflow=hidden;connectable=0;fillColor=none;top=0;left=0;bottom=0;right=0;fontStyle=0;shadow=0;strokeColor=#FFFFFF;" parent="9j3H_LcjLFZRQ34MltGA-38" vertex="1">
          <mxGeometry width="30" height="30" as="geometry">
            <mxRectangle width="30" height="30" as="alternateBounds" />
          </mxGeometry>
        </mxCell>
        <mxCell id="9j3H_LcjLFZRQ34MltGA-40" value="staus | &#39;created&#39;, &#39;success&#39;, &#39;failed&#39;, &#39;refunded&#39;" style="shape=partialRectangle;overflow=hidden;connectable=0;fillColor=none;top=0;left=0;bottom=0;right=0;align=left;spacingLeft=6;fontStyle=0;shadow=0;strokeColor=#FFFFFF;" parent="9j3H_LcjLFZRQ34MltGA-38" vertex="1">
          <mxGeometry x="30" width="220" height="30" as="geometry">
            <mxRectangle width="220" height="30" as="alternateBounds" />
          </mxGeometry>
        </mxCell>
        <mxCell id="9j3H_LcjLFZRQ34MltGA-41" value="withdrow" style="shape=table;startSize=30;container=1;collapsible=1;childLayout=tableLayout;fixedRows=1;rowLines=0;fontStyle=0;align=center;resizeLast=1;shadow=0;strokeColor=#FFFFFF;" parent="1" vertex="1">
          <mxGeometry x="520" y="420" width="250" height="180" as="geometry">
            <mxRectangle x="120" y="110" width="70" height="30" as="alternateBounds" />
          </mxGeometry>
        </mxCell>
        <mxCell id="9j3H_LcjLFZRQ34MltGA-42" style="shape=partialRectangle;collapsible=0;dropTarget=0;pointerEvents=0;fillColor=none;points=[[0,0.5],[1,0.5]];portConstraint=eastwest;top=0;left=0;right=0;bottom=1;shadow=0;strokeColor=#FFFFFF;fontStyle=0" parent="9j3H_LcjLFZRQ34MltGA-41" vertex="1">
          <mxGeometry y="30" width="250" height="30" as="geometry" />
        </mxCell>
        <mxCell id="9j3H_LcjLFZRQ34MltGA-43" value="1" style="shape=partialRectangle;overflow=hidden;connectable=0;fillColor=none;top=0;left=0;bottom=0;right=0;fontStyle=0;shadow=0;strokeColor=#FFFFFF;" parent="9j3H_LcjLFZRQ34MltGA-42" vertex="1">
          <mxGeometry width="30" height="30" as="geometry">
            <mxRectangle width="30" height="30" as="alternateBounds" />
          </mxGeometry>
        </mxCell>
        <mxCell id="9j3H_LcjLFZRQ34MltGA-44" value="_id" style="shape=partialRectangle;overflow=hidden;connectable=0;fillColor=none;top=0;left=0;bottom=0;right=0;align=left;spacingLeft=6;fontStyle=0;shadow=0;strokeColor=#FFFFFF;" parent="9j3H_LcjLFZRQ34MltGA-42" vertex="1">
          <mxGeometry x="30" width="220" height="30" as="geometry">
            <mxRectangle width="220" height="30" as="alternateBounds" />
          </mxGeometry>
        </mxCell>
        <mxCell id="9j3H_LcjLFZRQ34MltGA-45" style="shape=partialRectangle;collapsible=0;dropTarget=0;pointerEvents=0;fillColor=none;points=[[0,0.5],[1,0.5]];portConstraint=eastwest;top=0;left=0;right=0;bottom=1;shadow=0;strokeColor=#FFFFFF;fontStyle=0" parent="9j3H_LcjLFZRQ34MltGA-41" vertex="1">
          <mxGeometry y="60" width="250" height="30" as="geometry" />
        </mxCell>
        <mxCell id="9j3H_LcjLFZRQ34MltGA-46" style="shape=partialRectangle;overflow=hidden;connectable=0;fillColor=none;top=0;left=0;bottom=0;right=0;fontStyle=0;shadow=0;strokeColor=#FFFFFF;" parent="9j3H_LcjLFZRQ34MltGA-45" vertex="1">
          <mxGeometry width="30" height="30" as="geometry">
            <mxRectangle width="30" height="30" as="alternateBounds" />
          </mxGeometry>
        </mxCell>
        <mxCell id="9j3H_LcjLFZRQ34MltGA-47" value="userId" style="shape=partialRectangle;overflow=hidden;connectable=0;fillColor=#00FF00;top=0;left=0;bottom=0;right=0;align=left;spacingLeft=6;fontStyle=0;shadow=0;strokeColor=#FFFFFF;fontColor=#000000;" parent="9j3H_LcjLFZRQ34MltGA-45" vertex="1">
          <mxGeometry x="30" width="220" height="30" as="geometry">
            <mxRectangle width="220" height="30" as="alternateBounds" />
          </mxGeometry>
        </mxCell>
        <mxCell id="9j3H_LcjLFZRQ34MltGA-51" style="shape=partialRectangle;collapsible=0;dropTarget=0;pointerEvents=0;fillColor=none;points=[[0,0.5],[1,0.5]];portConstraint=eastwest;top=0;left=0;right=0;bottom=1;shadow=0;strokeColor=#FFFFFF;fontStyle=0" parent="9j3H_LcjLFZRQ34MltGA-41" vertex="1">
          <mxGeometry y="90" width="250" height="30" as="geometry" />
        </mxCell>
        <mxCell id="9j3H_LcjLFZRQ34MltGA-52" style="shape=partialRectangle;overflow=hidden;connectable=0;fillColor=none;top=0;left=0;bottom=0;right=0;fontStyle=0;shadow=0;strokeColor=#FFFFFF;" parent="9j3H_LcjLFZRQ34MltGA-51" vertex="1">
          <mxGeometry width="30" height="30" as="geometry">
            <mxRectangle width="30" height="30" as="alternateBounds" />
          </mxGeometry>
        </mxCell>
        <mxCell id="9j3H_LcjLFZRQ34MltGA-53" value="amount | int" style="shape=partialRectangle;overflow=hidden;connectable=0;fillColor=none;top=0;left=0;bottom=0;right=0;align=left;spacingLeft=6;fontStyle=0;shadow=0;strokeColor=#FFFFFF;" parent="9j3H_LcjLFZRQ34MltGA-51" vertex="1">
          <mxGeometry x="30" width="220" height="30" as="geometry">
            <mxRectangle width="220" height="30" as="alternateBounds" />
          </mxGeometry>
        </mxCell>
        <mxCell id="JmKSOmOS5GsvNi9dBlRt-4" style="shape=partialRectangle;collapsible=0;dropTarget=0;pointerEvents=0;fillColor=none;points=[[0,0.5],[1,0.5]];portConstraint=eastwest;top=0;left=0;right=0;bottom=1;shadow=0;strokeColor=#FFFFFF;fontStyle=0" parent="9j3H_LcjLFZRQ34MltGA-41" vertex="1">
          <mxGeometry y="120" width="250" height="30" as="geometry" />
        </mxCell>
        <mxCell id="JmKSOmOS5GsvNi9dBlRt-5" style="shape=partialRectangle;overflow=hidden;connectable=0;fillColor=none;top=0;left=0;bottom=0;right=0;fontStyle=0;shadow=0;strokeColor=#FFFFFF;" parent="JmKSOmOS5GsvNi9dBlRt-4" vertex="1">
          <mxGeometry width="30" height="30" as="geometry">
            <mxRectangle width="30" height="30" as="alternateBounds" />
          </mxGeometry>
        </mxCell>
        <mxCell id="JmKSOmOS5GsvNi9dBlRt-6" value="charge: number," style="shape=partialRectangle;overflow=hidden;connectable=0;fillColor=none;top=0;left=0;bottom=0;right=0;align=left;spacingLeft=6;fontStyle=0;shadow=0;strokeColor=#FFFFFF;" parent="JmKSOmOS5GsvNi9dBlRt-4" vertex="1">
          <mxGeometry x="30" width="220" height="30" as="geometry">
            <mxRectangle width="220" height="30" as="alternateBounds" />
          </mxGeometry>
        </mxCell>
        <mxCell id="9j3H_LcjLFZRQ34MltGA-54" style="shape=partialRectangle;collapsible=0;dropTarget=0;pointerEvents=0;fillColor=none;points=[[0,0.5],[1,0.5]];portConstraint=eastwest;top=0;left=0;right=0;bottom=1;shadow=0;strokeColor=#FFFFFF;fontStyle=0" parent="9j3H_LcjLFZRQ34MltGA-41" vertex="1">
          <mxGeometry y="150" width="250" height="30" as="geometry" />
        </mxCell>
        <mxCell id="9j3H_LcjLFZRQ34MltGA-55" style="shape=partialRectangle;overflow=hidden;connectable=0;fillColor=none;top=0;left=0;bottom=0;right=0;fontStyle=0;shadow=0;strokeColor=#FFFFFF;" parent="9j3H_LcjLFZRQ34MltGA-54" vertex="1">
          <mxGeometry width="30" height="30" as="geometry">
            <mxRectangle width="30" height="30" as="alternateBounds" />
          </mxGeometry>
        </mxCell>
        <mxCell id="9j3H_LcjLFZRQ34MltGA-56" value="staus | &quot;pending&quot;, &quot;success&quot;, &quot;canceled&quot;" style="shape=partialRectangle;overflow=hidden;connectable=0;fillColor=none;top=0;left=0;bottom=0;right=0;align=left;spacingLeft=6;fontStyle=0;shadow=0;strokeColor=#FFFFFF;" parent="9j3H_LcjLFZRQ34MltGA-54" vertex="1">
          <mxGeometry x="30" width="220" height="30" as="geometry">
            <mxRectangle width="220" height="30" as="alternateBounds" />
          </mxGeometry>
        </mxCell>
        <mxCell id="NCPCcDAu_NDGkJqAFtBE-1" style="edgeStyle=orthogonalEdgeStyle;rounded=0;orthogonalLoop=1;jettySize=auto;html=1;fillColor=#60a917;strokeColor=#2D7600;fontStyle=0" parent="1" source="sZ9AA6oVAfDoWRBkB18B-120" target="C-vyLk0tnHw3VtMMgP7b-23" edge="1">
          <mxGeometry relative="1" as="geometry" />
        </mxCell>
        <mxCell id="ezP1WiZqv_afubqY5u5t-93" style="edgeStyle=orthogonalEdgeStyle;rounded=0;orthogonalLoop=1;jettySize=auto;html=1;fillColor=#60a917;strokeColor=#2D7600;fontStyle=0" parent="1" source="sZ9AA6oVAfDoWRBkB18B-189" target="sZ9AA6oVAfDoWRBkB18B-30" edge="1">
          <mxGeometry relative="1" as="geometry" />
        </mxCell>
        <mxCell id="ezP1WiZqv_afubqY5u5t-124" style="edgeStyle=orthogonalEdgeStyle;rounded=0;orthogonalLoop=1;jettySize=auto;html=1;fillColor=#60a917;strokeColor=#2D7600;fontStyle=0" parent="1" source="ezP1WiZqv_afubqY5u5t-87" target="sZ9AA6oVAfDoWRBkB18B-189" edge="1">
          <mxGeometry relative="1" as="geometry">
            <Array as="points">
              <mxPoint x="357" y="30" />
              <mxPoint x="357" y="-660" />
            </Array>
          </mxGeometry>
        </mxCell>
        <mxCell id="ezP1WiZqv_afubqY5u5t-238" value="Tow Type" style="shape=table;startSize=30;container=1;collapsible=1;childLayout=tableLayout;fixedRows=1;rowLines=0;fontStyle=0;align=center;resizeLast=1;fillColor=#6a00ff;fontColor=#ffffff;strokeColor=#3700CC;" parent="1" vertex="1">
          <mxGeometry x="-400" y="-30" width="250" height="180" as="geometry">
            <mxRectangle x="120" y="110" width="70" height="30" as="alternateBounds" />
          </mxGeometry>
        </mxCell>
        <mxCell id="ezP1WiZqv_afubqY5u5t-239" style="shape=partialRectangle;collapsible=0;dropTarget=0;pointerEvents=0;fillColor=none;points=[[0,0.5],[1,0.5]];portConstraint=eastwest;top=0;left=0;right=0;bottom=1;fontColor=default;strokeColor=default;fontStyle=0" parent="ezP1WiZqv_afubqY5u5t-238" vertex="1">
          <mxGeometry y="30" width="250" height="30" as="geometry" />
        </mxCell>
        <mxCell id="ezP1WiZqv_afubqY5u5t-240" value="1" style="shape=partialRectangle;overflow=hidden;connectable=0;fillColor=none;top=0;left=0;bottom=0;right=0;fontStyle=0;fontColor=default;strokeColor=default;" parent="ezP1WiZqv_afubqY5u5t-239" vertex="1">
          <mxGeometry width="30" height="30" as="geometry">
            <mxRectangle width="30" height="30" as="alternateBounds" />
          </mxGeometry>
        </mxCell>
        <mxCell id="ezP1WiZqv_afubqY5u5t-241" value="_id" style="shape=partialRectangle;overflow=hidden;connectable=0;fillColor=none;top=0;left=0;bottom=0;right=0;align=left;spacingLeft=6;fontStyle=0;fontColor=default;strokeColor=default;" parent="ezP1WiZqv_afubqY5u5t-239" vertex="1">
          <mxGeometry x="30" width="220" height="30" as="geometry">
            <mxRectangle width="220" height="30" as="alternateBounds" />
          </mxGeometry>
        </mxCell>
        <mxCell id="ezP1WiZqv_afubqY5u5t-242" style="shape=partialRectangle;collapsible=0;dropTarget=0;pointerEvents=0;fillColor=none;points=[[0,0.5],[1,0.5]];portConstraint=eastwest;top=0;left=0;right=0;bottom=1;fontColor=default;strokeColor=default;fontStyle=0" parent="ezP1WiZqv_afubqY5u5t-238" vertex="1">
          <mxGeometry y="60" width="250" height="30" as="geometry" />
        </mxCell>
        <mxCell id="ezP1WiZqv_afubqY5u5t-243" style="shape=partialRectangle;overflow=hidden;connectable=0;fillColor=none;top=0;left=0;bottom=0;right=0;fontStyle=0;fontColor=default;strokeColor=default;" parent="ezP1WiZqv_afubqY5u5t-242" vertex="1">
          <mxGeometry width="30" height="30" as="geometry">
            <mxRectangle width="30" height="30" as="alternateBounds" />
          </mxGeometry>
        </mxCell>
        <mxCell id="ezP1WiZqv_afubqY5u5t-244" value="name | str" style="shape=partialRectangle;overflow=hidden;connectable=0;fillColor=none;top=0;left=0;bottom=0;right=0;align=left;spacingLeft=6;fontStyle=0;fontColor=default;strokeColor=default;" parent="ezP1WiZqv_afubqY5u5t-242" vertex="1">
          <mxGeometry x="30" width="220" height="30" as="geometry">
            <mxRectangle width="220" height="30" as="alternateBounds" />
          </mxGeometry>
        </mxCell>
        <mxCell id="ezP1WiZqv_afubqY5u5t-245" style="shape=partialRectangle;collapsible=0;dropTarget=0;pointerEvents=0;fillColor=none;points=[[0,0.5],[1,0.5]];portConstraint=eastwest;top=0;left=0;right=0;bottom=1;fontColor=default;strokeColor=default;fontStyle=0" parent="ezP1WiZqv_afubqY5u5t-238" vertex="1">
          <mxGeometry y="90" width="250" height="30" as="geometry" />
        </mxCell>
        <mxCell id="ezP1WiZqv_afubqY5u5t-246" style="shape=partialRectangle;overflow=hidden;connectable=0;fillColor=none;top=0;left=0;bottom=0;right=0;fontStyle=0;fontColor=default;strokeColor=default;" parent="ezP1WiZqv_afubqY5u5t-245" vertex="1">
          <mxGeometry width="30" height="30" as="geometry">
            <mxRectangle width="30" height="30" as="alternateBounds" />
          </mxGeometry>
        </mxCell>
        <mxCell id="ezP1WiZqv_afubqY5u5t-247" value="baseFare | float" style="shape=partialRectangle;overflow=hidden;connectable=0;fillColor=none;top=0;left=0;bottom=0;right=0;align=left;spacingLeft=6;fontStyle=0;fontColor=default;strokeColor=default;" parent="ezP1WiZqv_afubqY5u5t-245" vertex="1">
          <mxGeometry x="30" width="220" height="30" as="geometry">
            <mxRectangle width="220" height="30" as="alternateBounds" />
          </mxGeometry>
        </mxCell>
        <mxCell id="ezP1WiZqv_afubqY5u5t-248" style="shape=partialRectangle;collapsible=0;dropTarget=0;pointerEvents=0;fillColor=none;points=[[0,0.5],[1,0.5]];portConstraint=eastwest;top=0;left=0;right=0;bottom=1;fontColor=default;strokeColor=default;fontStyle=0" parent="ezP1WiZqv_afubqY5u5t-238" vertex="1">
          <mxGeometry y="120" width="250" height="30" as="geometry" />
        </mxCell>
        <mxCell id="ezP1WiZqv_afubqY5u5t-249" style="shape=partialRectangle;overflow=hidden;connectable=0;fillColor=none;top=0;left=0;bottom=0;right=0;fontStyle=0;fontColor=default;strokeColor=default;" parent="ezP1WiZqv_afubqY5u5t-248" vertex="1">
          <mxGeometry width="30" height="30" as="geometry">
            <mxRectangle width="30" height="30" as="alternateBounds" />
          </mxGeometry>
        </mxCell>
        <mxCell id="ezP1WiZqv_afubqY5u5t-250" value="perKM | float" style="shape=partialRectangle;overflow=hidden;connectable=0;fillColor=none;top=0;left=0;bottom=0;right=0;align=left;spacingLeft=6;fontStyle=0;fontColor=default;strokeColor=default;" parent="ezP1WiZqv_afubqY5u5t-248" vertex="1">
          <mxGeometry x="30" width="220" height="30" as="geometry">
            <mxRectangle width="220" height="30" as="alternateBounds" />
          </mxGeometry>
        </mxCell>
        <mxCell id="ezP1WiZqv_afubqY5u5t-251" style="shape=partialRectangle;collapsible=0;dropTarget=0;pointerEvents=0;fillColor=none;points=[[0,0.5],[1,0.5]];portConstraint=eastwest;top=0;left=0;right=0;bottom=1;fontColor=default;strokeColor=default;fontStyle=0" parent="ezP1WiZqv_afubqY5u5t-238" vertex="1">
          <mxGeometry y="150" width="250" height="30" as="geometry" />
        </mxCell>
        <mxCell id="ezP1WiZqv_afubqY5u5t-252" style="shape=partialRectangle;overflow=hidden;connectable=0;fillColor=none;top=0;left=0;bottom=0;right=0;fontStyle=0;fontColor=default;strokeColor=default;" parent="ezP1WiZqv_afubqY5u5t-251" vertex="1">
          <mxGeometry width="30" height="30" as="geometry">
            <mxRectangle width="30" height="30" as="alternateBounds" />
          </mxGeometry>
        </mxCell>
        <mxCell id="ezP1WiZqv_afubqY5u5t-253" value="charge| float" style="shape=partialRectangle;overflow=hidden;connectable=0;fillColor=none;top=0;left=0;bottom=0;right=0;align=left;spacingLeft=6;fontStyle=0;fontColor=default;strokeColor=default;" parent="ezP1WiZqv_afubqY5u5t-251" vertex="1">
          <mxGeometry x="30" width="220" height="30" as="geometry">
            <mxRectangle width="220" height="30" as="alternateBounds" />
          </mxGeometry>
        </mxCell>
        <mxCell id="ezP1WiZqv_afubqY5u5t-254" value="Promo" style="shape=table;startSize=30;container=1;collapsible=1;childLayout=tableLayout;fixedRows=1;rowLines=0;fontStyle=0;align=center;resizeLast=1;fillColor=#d80073;fontColor=#ffffff;strokeColor=#A50040;" parent="1" vertex="1">
          <mxGeometry x="710" y="15" width="250" height="270" as="geometry">
            <mxRectangle x="120" y="110" width="70" height="30" as="alternateBounds" />
          </mxGeometry>
        </mxCell>
        <mxCell id="ezP1WiZqv_afubqY5u5t-255" style="shape=partialRectangle;collapsible=0;dropTarget=0;pointerEvents=0;fillColor=none;points=[[0,0.5],[1,0.5]];portConstraint=eastwest;top=0;left=0;right=0;bottom=1;fontColor=default;strokeColor=default;fontStyle=0" parent="ezP1WiZqv_afubqY5u5t-254" vertex="1">
          <mxGeometry y="30" width="250" height="30" as="geometry" />
        </mxCell>
        <mxCell id="ezP1WiZqv_afubqY5u5t-256" value="1" style="shape=partialRectangle;overflow=hidden;connectable=0;fillColor=none;top=0;left=0;bottom=0;right=0;fontStyle=0;fontColor=default;strokeColor=default;" parent="ezP1WiZqv_afubqY5u5t-255" vertex="1">
          <mxGeometry width="30" height="30" as="geometry">
            <mxRectangle width="30" height="30" as="alternateBounds" />
          </mxGeometry>
        </mxCell>
        <mxCell id="ezP1WiZqv_afubqY5u5t-257" value="_id" style="shape=partialRectangle;overflow=hidden;connectable=0;fillColor=none;top=0;left=0;bottom=0;right=0;align=left;spacingLeft=6;fontStyle=0;fontColor=default;strokeColor=default;" parent="ezP1WiZqv_afubqY5u5t-255" vertex="1">
          <mxGeometry x="30" width="220" height="30" as="geometry">
            <mxRectangle width="220" height="30" as="alternateBounds" />
          </mxGeometry>
        </mxCell>
        <mxCell id="ezP1WiZqv_afubqY5u5t-273" style="shape=partialRectangle;collapsible=0;dropTarget=0;pointerEvents=0;fillColor=none;points=[[0,0.5],[1,0.5]];portConstraint=eastwest;top=0;left=0;right=0;bottom=1;fontColor=default;strokeColor=default;fontStyle=0" parent="ezP1WiZqv_afubqY5u5t-254" vertex="1">
          <mxGeometry y="60" width="250" height="30" as="geometry" />
        </mxCell>
        <mxCell id="ezP1WiZqv_afubqY5u5t-274" style="shape=partialRectangle;overflow=hidden;connectable=0;fillColor=none;top=0;left=0;bottom=0;right=0;fontStyle=0;fontColor=default;strokeColor=default;" parent="ezP1WiZqv_afubqY5u5t-273" vertex="1">
          <mxGeometry width="30" height="30" as="geometry">
            <mxRectangle width="30" height="30" as="alternateBounds" />
          </mxGeometry>
        </mxCell>
        <mxCell id="ezP1WiZqv_afubqY5u5t-275" value="users | arr[userId] whom used the promo" style="shape=partialRectangle;overflow=hidden;connectable=0;fillColor=none;top=0;left=0;bottom=0;right=0;align=left;spacingLeft=6;fontStyle=0;fontColor=default;strokeColor=default;" parent="ezP1WiZqv_afubqY5u5t-273" vertex="1">
          <mxGeometry x="30" width="220" height="30" as="geometry">
            <mxRectangle width="220" height="30" as="alternateBounds" />
          </mxGeometry>
        </mxCell>
        <mxCell id="ezP1WiZqv_afubqY5u5t-258" style="shape=partialRectangle;collapsible=0;dropTarget=0;pointerEvents=0;fillColor=none;points=[[0,0.5],[1,0.5]];portConstraint=eastwest;top=0;left=0;right=0;bottom=1;fontColor=default;strokeColor=default;fontStyle=0" parent="ezP1WiZqv_afubqY5u5t-254" vertex="1">
          <mxGeometry y="90" width="250" height="30" as="geometry" />
        </mxCell>
        <mxCell id="ezP1WiZqv_afubqY5u5t-259" style="shape=partialRectangle;overflow=hidden;connectable=0;fillColor=none;top=0;left=0;bottom=0;right=0;fontStyle=0;fontColor=default;strokeColor=default;" parent="ezP1WiZqv_afubqY5u5t-258" vertex="1">
          <mxGeometry width="30" height="30" as="geometry">
            <mxRectangle width="30" height="30" as="alternateBounds" />
          </mxGeometry>
        </mxCell>
        <mxCell id="ezP1WiZqv_afubqY5u5t-260" value="code | str, unique" style="shape=partialRectangle;overflow=hidden;connectable=0;fillColor=none;top=0;left=0;bottom=0;right=0;align=left;spacingLeft=6;fontStyle=0;fontColor=default;strokeColor=default;" parent="ezP1WiZqv_afubqY5u5t-258" vertex="1">
          <mxGeometry x="30" width="220" height="30" as="geometry">
            <mxRectangle width="220" height="30" as="alternateBounds" />
          </mxGeometry>
        </mxCell>
        <mxCell id="ezP1WiZqv_afubqY5u5t-279" style="shape=partialRectangle;collapsible=0;dropTarget=0;pointerEvents=0;fillColor=none;points=[[0,0.5],[1,0.5]];portConstraint=eastwest;top=0;left=0;right=0;bottom=1;fontColor=default;strokeColor=default;fontStyle=0" parent="ezP1WiZqv_afubqY5u5t-254" vertex="1">
          <mxGeometry y="120" width="250" height="30" as="geometry" />
        </mxCell>
        <mxCell id="ezP1WiZqv_afubqY5u5t-280" style="shape=partialRectangle;overflow=hidden;connectable=0;fillColor=none;top=0;left=0;bottom=0;right=0;fontStyle=0;fontColor=default;strokeColor=default;" parent="ezP1WiZqv_afubqY5u5t-279" vertex="1">
          <mxGeometry width="30" height="30" as="geometry">
            <mxRectangle width="30" height="30" as="alternateBounds" />
          </mxGeometry>
        </mxCell>
        <mxCell id="ezP1WiZqv_afubqY5u5t-281" value="name | str" style="shape=partialRectangle;overflow=hidden;connectable=0;fillColor=none;top=0;left=0;bottom=0;right=0;align=left;spacingLeft=6;fontStyle=0;fontColor=default;strokeColor=default;" parent="ezP1WiZqv_afubqY5u5t-279" vertex="1">
          <mxGeometry x="30" width="220" height="30" as="geometry">
            <mxRectangle width="220" height="30" as="alternateBounds" />
          </mxGeometry>
        </mxCell>
        <mxCell id="ezP1WiZqv_afubqY5u5t-261" style="shape=partialRectangle;collapsible=0;dropTarget=0;pointerEvents=0;fillColor=none;points=[[0,0.5],[1,0.5]];portConstraint=eastwest;top=0;left=0;right=0;bottom=1;fontColor=default;strokeColor=default;fontStyle=0" parent="ezP1WiZqv_afubqY5u5t-254" vertex="1">
          <mxGeometry y="150" width="250" height="30" as="geometry" />
        </mxCell>
        <mxCell id="ezP1WiZqv_afubqY5u5t-262" style="shape=partialRectangle;overflow=hidden;connectable=0;fillColor=none;top=0;left=0;bottom=0;right=0;fontStyle=0;fontColor=default;strokeColor=default;" parent="ezP1WiZqv_afubqY5u5t-261" vertex="1">
          <mxGeometry width="30" height="30" as="geometry">
            <mxRectangle width="30" height="30" as="alternateBounds" />
          </mxGeometry>
        </mxCell>
        <mxCell id="ezP1WiZqv_afubqY5u5t-263" value="type | str enum | percent, fixed" style="shape=partialRectangle;overflow=hidden;connectable=0;fillColor=none;top=0;left=0;bottom=0;right=0;align=left;spacingLeft=6;fontStyle=0;fontColor=default;strokeColor=default;" parent="ezP1WiZqv_afubqY5u5t-261" vertex="1">
          <mxGeometry x="30" width="220" height="30" as="geometry">
            <mxRectangle width="220" height="30" as="alternateBounds" />
          </mxGeometry>
        </mxCell>
        <mxCell id="ezP1WiZqv_afubqY5u5t-264" style="shape=partialRectangle;collapsible=0;dropTarget=0;pointerEvents=0;fillColor=none;points=[[0,0.5],[1,0.5]];portConstraint=eastwest;top=0;left=0;right=0;bottom=1;fontColor=default;strokeColor=default;fontStyle=0" parent="ezP1WiZqv_afubqY5u5t-254" vertex="1">
          <mxGeometry y="180" width="250" height="30" as="geometry" />
        </mxCell>
        <mxCell id="ezP1WiZqv_afubqY5u5t-265" style="shape=partialRectangle;overflow=hidden;connectable=0;fillColor=none;top=0;left=0;bottom=0;right=0;fontStyle=0;fontColor=default;strokeColor=default;" parent="ezP1WiZqv_afubqY5u5t-264" vertex="1">
          <mxGeometry width="30" height="30" as="geometry">
            <mxRectangle width="30" height="30" as="alternateBounds" />
          </mxGeometry>
        </mxCell>
        <mxCell id="ezP1WiZqv_afubqY5u5t-266" value="value | float" style="shape=partialRectangle;overflow=hidden;connectable=0;fillColor=none;top=0;left=0;bottom=0;right=0;align=left;spacingLeft=6;fontStyle=0;fontColor=default;strokeColor=default;" parent="ezP1WiZqv_afubqY5u5t-264" vertex="1">
          <mxGeometry x="30" width="220" height="30" as="geometry">
            <mxRectangle width="220" height="30" as="alternateBounds" />
          </mxGeometry>
        </mxCell>
        <mxCell id="ezP1WiZqv_afubqY5u5t-267" style="shape=partialRectangle;collapsible=0;dropTarget=0;pointerEvents=0;fillColor=none;points=[[0,0.5],[1,0.5]];portConstraint=eastwest;top=0;left=0;right=0;bottom=1;fontColor=default;strokeColor=default;fontStyle=0" parent="ezP1WiZqv_afubqY5u5t-254" vertex="1">
          <mxGeometry y="210" width="250" height="30" as="geometry" />
        </mxCell>
        <mxCell id="ezP1WiZqv_afubqY5u5t-268" style="shape=partialRectangle;overflow=hidden;connectable=0;fillColor=none;top=0;left=0;bottom=0;right=0;fontStyle=0;fontColor=default;strokeColor=default;" parent="ezP1WiZqv_afubqY5u5t-267" vertex="1">
          <mxGeometry width="30" height="30" as="geometry">
            <mxRectangle width="30" height="30" as="alternateBounds" />
          </mxGeometry>
        </mxCell>
        <mxCell id="ezP1WiZqv_afubqY5u5t-269" value="expireDate" style="shape=partialRectangle;overflow=hidden;connectable=0;fillColor=none;top=0;left=0;bottom=0;right=0;align=left;spacingLeft=6;fontStyle=0;fontColor=default;strokeColor=default;" parent="ezP1WiZqv_afubqY5u5t-267" vertex="1">
          <mxGeometry x="30" width="220" height="30" as="geometry">
            <mxRectangle width="220" height="30" as="alternateBounds" />
          </mxGeometry>
        </mxCell>
        <mxCell id="ezP1WiZqv_afubqY5u5t-276" style="shape=partialRectangle;collapsible=0;dropTarget=0;pointerEvents=0;fillColor=none;points=[[0,0.5],[1,0.5]];portConstraint=eastwest;top=0;left=0;right=0;bottom=1;fontColor=default;strokeColor=default;fontStyle=0" parent="ezP1WiZqv_afubqY5u5t-254" vertex="1">
          <mxGeometry y="240" width="250" height="30" as="geometry" />
        </mxCell>
        <mxCell id="ezP1WiZqv_afubqY5u5t-277" style="shape=partialRectangle;overflow=hidden;connectable=0;fillColor=none;top=0;left=0;bottom=0;right=0;fontStyle=0;fontColor=default;strokeColor=default;" parent="ezP1WiZqv_afubqY5u5t-276" vertex="1">
          <mxGeometry width="30" height="30" as="geometry">
            <mxRectangle width="30" height="30" as="alternateBounds" />
          </mxGeometry>
        </mxCell>
        <mxCell id="ezP1WiZqv_afubqY5u5t-278" value="status | str enum | active, inactive" style="shape=partialRectangle;overflow=hidden;connectable=0;fillColor=none;top=0;left=0;bottom=0;right=0;align=left;spacingLeft=6;fontStyle=0;fontColor=default;strokeColor=default;" parent="ezP1WiZqv_afubqY5u5t-276" vertex="1">
          <mxGeometry x="30" width="220" height="30" as="geometry">
            <mxRectangle width="220" height="30" as="alternateBounds" />
          </mxGeometry>
        </mxCell>
      </root>
    </mxGraphModel>
  </diagram>
  <diagram id="w0cQQnPS79cKQQWPcEzx" name="Flow">
    <mxGraphModel dx="2700" dy="972" grid="1" gridSize="10" guides="1" tooltips="1" connect="1" arrows="1" fold="1" page="1" pageScale="1" pageWidth="850" pageHeight="1100" math="0" shadow="0">
      <root>
        <mxCell id="0" />
        <mxCell id="1" parent="0" />
        <mxCell id="7HWGmRLe4D3nRdCx-Xzt-4" style="edgeStyle=orthogonalEdgeStyle;rounded=0;orthogonalLoop=1;jettySize=auto;html=1;strokeColor=#3333FF;" parent="1" source="7HWGmRLe4D3nRdCx-Xzt-2" target="7HWGmRLe4D3nRdCx-Xzt-3" edge="1">
          <mxGeometry relative="1" as="geometry" />
        </mxCell>
        <mxCell id="7HWGmRLe4D3nRdCx-Xzt-2" value="&lt;font&gt;Job Post&lt;/font&gt;" style="rounded=1;whiteSpace=wrap;html=1;strokeColor=#00FF00;" parent="1" vertex="1">
          <mxGeometry x="-345" y="420" width="120" height="60" as="geometry" />
        </mxCell>
        <mxCell id="7HWGmRLe4D3nRdCx-Xzt-10" style="edgeStyle=orthogonalEdgeStyle;rounded=0;orthogonalLoop=1;jettySize=auto;html=1;entryX=0;entryY=0.5;entryDx=0;entryDy=0;strokeColor=#3333FF;" parent="1" source="7HWGmRLe4D3nRdCx-Xzt-3" target="7HWGmRLe4D3nRdCx-Xzt-8" edge="1">
          <mxGeometry relative="1" as="geometry" />
        </mxCell>
        <mxCell id="7HWGmRLe4D3nRdCx-Xzt-12" style="edgeStyle=orthogonalEdgeStyle;rounded=0;orthogonalLoop=1;jettySize=auto;html=1;strokeColor=#FF3333;" parent="1" source="7HWGmRLe4D3nRdCx-Xzt-3" target="7HWGmRLe4D3nRdCx-Xzt-9" edge="1">
          <mxGeometry relative="1" as="geometry">
            <Array as="points">
              <mxPoint x="90" y="450" />
              <mxPoint x="90" y="450" />
            </Array>
          </mxGeometry>
        </mxCell>
        <mxCell id="9X6dypCObs3BK0b8G1pb-4" style="edgeStyle=orthogonalEdgeStyle;rounded=0;orthogonalLoop=1;jettySize=auto;html=1;entryX=0;entryY=0.5;entryDx=0;entryDy=0;strokeColor=#FF3333;" parent="1" source="7HWGmRLe4D3nRdCx-Xzt-3" target="9X6dypCObs3BK0b8G1pb-2" edge="1">
          <mxGeometry relative="1" as="geometry" />
        </mxCell>
        <mxCell id="7HWGmRLe4D3nRdCx-Xzt-3" value="requested" style="rounded=1;whiteSpace=wrap;html=1;strokeColor=#00FF00;" parent="1" vertex="1">
          <mxGeometry x="-75" y="420" width="120" height="60" as="geometry" />
        </mxCell>
        <mxCell id="7HWGmRLe4D3nRdCx-Xzt-6" value="&lt;font style=&quot;font-size: 8px;&quot;&gt;The customer posts a job targeting specific providers&lt;/font&gt;" style="text;html=1;align=center;verticalAlign=middle;resizable=0;points=[];autosize=1;strokeColor=none;fillColor=none;" parent="1" vertex="1">
          <mxGeometry x="-390" y="480" width="210" height="30" as="geometry" />
        </mxCell>
        <mxCell id="7HWGmRLe4D3nRdCx-Xzt-8" value="request-canceled" style="rounded=1;whiteSpace=wrap;html=1;strokeColor=#FF3333;" parent="1" vertex="1">
          <mxGeometry x="130" y="250" width="120" height="60" as="geometry" />
        </mxCell>
        <mxCell id="9X6dypCObs3BK0b8G1pb-7" style="edgeStyle=orthogonalEdgeStyle;rounded=0;orthogonalLoop=1;jettySize=auto;html=1;entryX=0;entryY=0.5;entryDx=0;entryDy=0;strokeColor=#3333FF;" parent="1" source="7HWGmRLe4D3nRdCx-Xzt-9" target="9X6dypCObs3BK0b8G1pb-5" edge="1">
          <mxGeometry relative="1" as="geometry" />
        </mxCell>
        <mxCell id="9X6dypCObs3BK0b8G1pb-9" style="edgeStyle=orthogonalEdgeStyle;rounded=0;orthogonalLoop=1;jettySize=auto;html=1;entryX=0;entryY=0.5;entryDx=0;entryDy=0;strokeColor=#3333FF;" parent="1" source="7HWGmRLe4D3nRdCx-Xzt-9" target="9X6dypCObs3BK0b8G1pb-8" edge="1">
          <mxGeometry relative="1" as="geometry" />
        </mxCell>
        <mxCell id="HQwV86AaHP5QPpCFtKeb-1" style="edgeStyle=orthogonalEdgeStyle;rounded=0;orthogonalLoop=1;jettySize=auto;html=1;entryX=0;entryY=0.5;entryDx=0;entryDy=0;" parent="1" source="7HWGmRLe4D3nRdCx-Xzt-9" target="9X6dypCObs3BK0b8G1pb-10" edge="1">
          <mxGeometry relative="1" as="geometry">
            <Array as="points">
              <mxPoint x="700" y="450" />
              <mxPoint x="700" y="530" />
            </Array>
          </mxGeometry>
        </mxCell>
        <mxCell id="7HWGmRLe4D3nRdCx-Xzt-9" value="accepted" style="rounded=1;whiteSpace=wrap;html=1;strokeColor=#00FF00;" parent="1" vertex="1">
          <mxGeometry x="130" y="420" width="120" height="60" as="geometry" />
        </mxCell>
        <mxCell id="9X6dypCObs3BK0b8G1pb-2" value="rejected" style="rounded=1;whiteSpace=wrap;html=1;strokeColor=#FF3333;" parent="1" vertex="1">
          <mxGeometry x="130" y="600" width="120" height="60" as="geometry" />
        </mxCell>
        <mxCell id="9X6dypCObs3BK0b8G1pb-11" style="edgeStyle=orthogonalEdgeStyle;rounded=0;orthogonalLoop=1;jettySize=auto;html=1;strokeColor=#3333FF;" parent="1" source="9X6dypCObs3BK0b8G1pb-5" target="9X6dypCObs3BK0b8G1pb-10" edge="1">
          <mxGeometry relative="1" as="geometry" />
        </mxCell>
        <mxCell id="9X6dypCObs3BK0b8G1pb-5" value="confirmed" style="rounded=1;whiteSpace=wrap;html=1;strokeColor=#00FF00;" parent="1" vertex="1">
          <mxGeometry x="420" y="500" width="120" height="60" as="geometry" />
        </mxCell>
        <mxCell id="9X6dypCObs3BK0b8G1pb-8" value="denied" style="rounded=1;whiteSpace=wrap;html=1;strokeColor=#FF3333;" parent="1" vertex="1">
          <mxGeometry x="420" y="330" width="120" height="60" as="geometry" />
        </mxCell>
        <mxCell id="9X6dypCObs3BK0b8G1pb-15" style="edgeStyle=orthogonalEdgeStyle;rounded=0;orthogonalLoop=1;jettySize=auto;html=1;entryX=0;entryY=0.5;entryDx=0;entryDy=0;strokeColor=#FF3333;" parent="1" source="9X6dypCObs3BK0b8G1pb-10" target="9X6dypCObs3BK0b8G1pb-13" edge="1">
          <mxGeometry relative="1" as="geometry" />
        </mxCell>
        <mxCell id="9X6dypCObs3BK0b8G1pb-16" style="edgeStyle=orthogonalEdgeStyle;rounded=0;orthogonalLoop=1;jettySize=auto;html=1;entryX=0;entryY=0.5;entryDx=0;entryDy=0;strokeColor=#FF3333;" parent="1" source="9X6dypCObs3BK0b8G1pb-10" target="9X6dypCObs3BK0b8G1pb-14" edge="1">
          <mxGeometry relative="1" as="geometry" />
        </mxCell>
        <mxCell id="9X6dypCObs3BK0b8G1pb-10" value="serviced" style="rounded=1;whiteSpace=wrap;html=1;strokeColor=#00FF00;" parent="1" vertex="1">
          <mxGeometry x="720" y="500" width="120" height="60" as="geometry" />
        </mxCell>
        <mxCell id="9X6dypCObs3BK0b8G1pb-12" value="&lt;font style=&quot;font-size: 8px;&quot;&gt;mechanic come to customer&lt;/font&gt;&lt;div&gt;&lt;font style=&quot;font-size: 8px;&quot;&gt;location and provide services&lt;/font&gt;&lt;/div&gt;" style="text;html=1;align=center;verticalAlign=middle;resizable=0;points=[];autosize=1;strokeColor=none;fillColor=none;" parent="1" vertex="1">
          <mxGeometry x="551" y="508" width="130" height="40" as="geometry" />
        </mxCell>
        <mxCell id="9X6dypCObs3BK0b8G1pb-13" value="service-rejected" style="rounded=1;whiteSpace=wrap;html=1;strokeColor=#FF3333;" parent="1" vertex="1">
          <mxGeometry x="990" y="390" width="120" height="60" as="geometry" />
        </mxCell>
        <mxCell id="9X6dypCObs3BK0b8G1pb-22" style="edgeStyle=orthogonalEdgeStyle;rounded=0;orthogonalLoop=1;jettySize=auto;html=1;entryX=0;entryY=0.5;entryDx=0;entryDy=0;strokeColor=#FF3333;" parent="1" source="9X6dypCObs3BK0b8G1pb-14" target="9X6dypCObs3BK0b8G1pb-20" edge="1">
          <mxGeometry relative="1" as="geometry" />
        </mxCell>
        <mxCell id="9X6dypCObs3BK0b8G1pb-23" style="edgeStyle=orthogonalEdgeStyle;rounded=0;orthogonalLoop=1;jettySize=auto;html=1;entryX=0;entryY=0.5;entryDx=0;entryDy=0;strokeColor=#FF3333;" parent="1" source="9X6dypCObs3BK0b8G1pb-14" target="9X6dypCObs3BK0b8G1pb-21" edge="1">
          <mxGeometry relative="1" as="geometry" />
        </mxCell>
        <mxCell id="9X6dypCObs3BK0b8G1pb-14" value="paid" style="rounded=1;whiteSpace=wrap;html=1;strokeColor=#00FF00;" parent="1" vertex="1">
          <mxGeometry x="990" y="600" width="120" height="60" as="geometry" />
        </mxCell>
        <mxCell id="9X6dypCObs3BK0b8G1pb-17" value="customer reject provider services and deny for pay" style="text;html=1;align=center;verticalAlign=middle;resizable=0;points=[];autosize=1;strokeColor=none;fillColor=none;fontSize=8;" parent="1" vertex="1">
          <mxGeometry x="895" y="366" width="200" height="20" as="geometry" />
        </mxCell>
        <mxCell id="9X6dypCObs3BK0b8G1pb-19" value="Services are ok, customer make payment" style="text;html=1;align=center;verticalAlign=middle;resizable=0;points=[];autosize=1;strokeColor=none;fillColor=none;fontSize=8;" parent="1" vertex="1">
          <mxGeometry x="925" y="665" width="170" height="20" as="geometry" />
        </mxCell>
        <mxCell id="9X6dypCObs3BK0b8G1pb-20" value="canceled" style="rounded=1;whiteSpace=wrap;html=1;strokeColor=#FFCC01;" parent="1" vertex="1">
          <mxGeometry x="1250" y="490" width="120" height="60" as="geometry" />
        </mxCell>
        <mxCell id="9X6dypCObs3BK0b8G1pb-21" value="completed" style="rounded=1;whiteSpace=wrap;html=1;strokeColor=#00FF00;" parent="1" vertex="1">
          <mxGeometry x="1250" y="710" width="120" height="60" as="geometry" />
        </mxCell>
        <mxCell id="9X6dypCObs3BK0b8G1pb-24" value="refund" style="text;html=1;align=center;verticalAlign=middle;resizable=0;points=[];autosize=1;strokeColor=none;fillColor=none;fontSize=8;" parent="1" vertex="1">
          <mxGeometry x="1175" y="495" width="50" height="20" as="geometry" />
        </mxCell>
        <mxCell id="9X6dypCObs3BK0b8G1pb-25" value="ok" style="text;html=1;align=center;verticalAlign=middle;resizable=0;points=[];autosize=1;strokeColor=none;fillColor=none;fontSize=8;" parent="1" vertex="1">
          <mxGeometry x="1195" y="743" width="30" height="20" as="geometry" />
        </mxCell>
        <mxCell id="9X6dypCObs3BK0b8G1pb-27" value="" style="endArrow=classic;html=1;rounded=0;strokeColor=#FF3333;fontSize=14;" parent="1" edge="1">
          <mxGeometry width="50" height="50" relative="1" as="geometry">
            <mxPoint x="-730" y="475" as="sourcePoint" />
            <mxPoint x="-590" y="475" as="targetPoint" />
          </mxGeometry>
        </mxCell>
        <mxCell id="9X6dypCObs3BK0b8G1pb-28" value="&lt;font style=&quot;color: rgb(255, 51, 51);&quot;&gt;Customer Action&lt;/font&gt;" style="text;html=1;align=center;verticalAlign=middle;resizable=0;points=[];autosize=1;strokeColor=none;fillColor=none;fontSize=14;" parent="1" vertex="1">
          <mxGeometry x="-725" y="450" width="130" height="30" as="geometry" />
        </mxCell>
        <mxCell id="9X6dypCObs3BK0b8G1pb-30" value="" style="endArrow=classic;html=1;rounded=0;strokeColor=#3333FF;fontSize=14;" parent="1" edge="1">
          <mxGeometry width="50" height="50" relative="1" as="geometry">
            <mxPoint x="-730" y="545" as="sourcePoint" />
            <mxPoint x="-590" y="545" as="targetPoint" />
          </mxGeometry>
        </mxCell>
        <mxCell id="9X6dypCObs3BK0b8G1pb-31" value="&lt;font style=&quot;color: rgb(51, 51, 255);&quot;&gt;Provider Action&lt;/font&gt;" style="text;html=1;align=center;verticalAlign=middle;resizable=0;points=[];autosize=1;strokeColor=none;fillColor=none;fontSize=14;" parent="1" vertex="1">
          <mxGeometry x="-720" y="520" width="120" height="30" as="geometry" />
        </mxCell>
        <mxCell id="9X6dypCObs3BK0b8G1pb-32" value="&lt;font style=&quot;font-size: 8px;&quot;&gt;Make transport payment&lt;/font&gt;" style="text;html=1;align=center;verticalAlign=middle;resizable=0;points=[];autosize=1;strokeColor=none;fillColor=none;" parent="1" vertex="1">
          <mxGeometry x="135" y="390" width="110" height="30" as="geometry" />
        </mxCell>
        <mxCell id="9X6dypCObs3BK0b8G1pb-33" style="edgeStyle=orthogonalEdgeStyle;rounded=0;orthogonalLoop=1;jettySize=auto;html=1;strokeColor=#3333FF;" parent="1" source="9X6dypCObs3BK0b8G1pb-44" target="9X6dypCObs3BK0b8G1pb-45" edge="1">
          <mxGeometry relative="1" as="geometry" />
        </mxCell>
        <mxCell id="9X6dypCObs3BK0b8G1pb-34" style="edgeStyle=orthogonalEdgeStyle;rounded=0;orthogonalLoop=1;jettySize=auto;html=1;entryX=0;entryY=0.5;entryDx=0;entryDy=0;strokeColor=#3333FF;" parent="1" source="9X6dypCObs3BK0b8G1pb-45" target="9X6dypCObs3BK0b8G1pb-47" edge="1">
          <mxGeometry relative="1" as="geometry" />
        </mxCell>
        <mxCell id="9X6dypCObs3BK0b8G1pb-35" style="edgeStyle=orthogonalEdgeStyle;rounded=0;orthogonalLoop=1;jettySize=auto;html=1;strokeColor=#FF3333;" parent="1" source="9X6dypCObs3BK0b8G1pb-45" target="9X6dypCObs3BK0b8G1pb-48" edge="1">
          <mxGeometry relative="1" as="geometry">
            <Array as="points">
              <mxPoint x="90" y="1934" />
              <mxPoint x="90" y="1934" />
            </Array>
          </mxGeometry>
        </mxCell>
        <mxCell id="9X6dypCObs3BK0b8G1pb-36" style="edgeStyle=orthogonalEdgeStyle;rounded=0;orthogonalLoop=1;jettySize=auto;html=1;entryX=0;entryY=0.5;entryDx=0;entryDy=0;strokeColor=#FF3333;" parent="1" source="9X6dypCObs3BK0b8G1pb-45" target="9X6dypCObs3BK0b8G1pb-49" edge="1">
          <mxGeometry relative="1" as="geometry" />
        </mxCell>
        <mxCell id="9X6dypCObs3BK0b8G1pb-37" style="edgeStyle=orthogonalEdgeStyle;rounded=0;orthogonalLoop=1;jettySize=auto;html=1;entryX=0;entryY=0.5;entryDx=0;entryDy=0;strokeColor=#3333FF;" parent="1" source="9X6dypCObs3BK0b8G1pb-48" target="9X6dypCObs3BK0b8G1pb-50" edge="1">
          <mxGeometry relative="1" as="geometry" />
        </mxCell>
        <mxCell id="9X6dypCObs3BK0b8G1pb-38" style="edgeStyle=orthogonalEdgeStyle;rounded=0;orthogonalLoop=1;jettySize=auto;html=1;entryX=0;entryY=0.5;entryDx=0;entryDy=0;strokeColor=#3333FF;" parent="1" source="9X6dypCObs3BK0b8G1pb-48" target="9X6dypCObs3BK0b8G1pb-51" edge="1">
          <mxGeometry relative="1" as="geometry" />
        </mxCell>
        <mxCell id="9X6dypCObs3BK0b8G1pb-41" style="edgeStyle=orthogonalEdgeStyle;rounded=0;orthogonalLoop=1;jettySize=auto;html=1;entryX=0;entryY=0.5;entryDx=0;entryDy=0;strokeColor=#FF3333;exitX=1;exitY=0.5;exitDx=0;exitDy=0;" parent="1" source="9X6dypCObs3BK0b8G1pb-50" target="9X6dypCObs3BK0b8G1pb-55" edge="1">
          <mxGeometry relative="1" as="geometry">
            <mxPoint x="840" y="2014" as="sourcePoint" />
          </mxGeometry>
        </mxCell>
        <mxCell id="9X6dypCObs3BK0b8G1pb-42" style="edgeStyle=orthogonalEdgeStyle;rounded=0;orthogonalLoop=1;jettySize=auto;html=1;entryX=0;entryY=0.5;entryDx=0;entryDy=0;strokeColor=#FF3333;" parent="1" source="9X6dypCObs3BK0b8G1pb-55" target="9X6dypCObs3BK0b8G1pb-58" edge="1">
          <mxGeometry relative="1" as="geometry" />
        </mxCell>
        <mxCell id="9X6dypCObs3BK0b8G1pb-43" style="edgeStyle=orthogonalEdgeStyle;rounded=0;orthogonalLoop=1;jettySize=auto;html=1;entryX=0;entryY=0.5;entryDx=0;entryDy=0;strokeColor=#FF3333;" parent="1" source="9X6dypCObs3BK0b8G1pb-55" target="9X6dypCObs3BK0b8G1pb-59" edge="1">
          <mxGeometry relative="1" as="geometry" />
        </mxCell>
        <mxCell id="9X6dypCObs3BK0b8G1pb-44" value="&lt;font&gt;Job Post&lt;/font&gt;" style="rounded=1;whiteSpace=wrap;html=1;strokeColor=#00FF00;" parent="1" vertex="1">
          <mxGeometry x="-345" y="1904" width="120" height="60" as="geometry" />
        </mxCell>
        <mxCell id="9X6dypCObs3BK0b8G1pb-45" value="requested" style="rounded=1;whiteSpace=wrap;html=1;strokeColor=#00FF00;" parent="1" vertex="1">
          <mxGeometry x="-75" y="1904" width="120" height="60" as="geometry" />
        </mxCell>
        <mxCell id="9X6dypCObs3BK0b8G1pb-46" value="&lt;font style=&quot;font-size: 8px;&quot;&gt;The customer posts a job targeting specific providers&lt;/font&gt;" style="text;html=1;align=center;verticalAlign=middle;resizable=0;points=[];autosize=1;strokeColor=none;fillColor=none;" parent="1" vertex="1">
          <mxGeometry x="-390" y="1964" width="210" height="30" as="geometry" />
        </mxCell>
        <mxCell id="9X6dypCObs3BK0b8G1pb-47" value="request-canceled" style="rounded=1;whiteSpace=wrap;html=1;strokeColor=#FF3333;" parent="1" vertex="1">
          <mxGeometry x="130" y="1734" width="120" height="60" as="geometry" />
        </mxCell>
        <mxCell id="9X6dypCObs3BK0b8G1pb-48" value="accepted" style="rounded=1;whiteSpace=wrap;html=1;strokeColor=#00FF00;" parent="1" vertex="1">
          <mxGeometry x="130" y="1904" width="120" height="60" as="geometry" />
        </mxCell>
        <mxCell id="9X6dypCObs3BK0b8G1pb-49" value="rejected" style="rounded=1;whiteSpace=wrap;html=1;strokeColor=#FF3333;" parent="1" vertex="1">
          <mxGeometry x="130" y="2084" width="120" height="60" as="geometry" />
        </mxCell>
        <mxCell id="9X6dypCObs3BK0b8G1pb-50" value="confirmed" style="rounded=1;whiteSpace=wrap;html=1;strokeColor=#00FF00;" parent="1" vertex="1">
          <mxGeometry x="420" y="1984" width="120" height="60" as="geometry" />
        </mxCell>
        <mxCell id="9X6dypCObs3BK0b8G1pb-51" value="denied" style="rounded=1;whiteSpace=wrap;html=1;strokeColor=#FF3333;" parent="1" vertex="1">
          <mxGeometry x="420" y="1814" width="120" height="60" as="geometry" />
        </mxCell>
        <mxCell id="9X6dypCObs3BK0b8G1pb-53" value="tow turking" style="text;html=1;align=center;verticalAlign=middle;resizable=0;points=[];autosize=1;strokeColor=none;fillColor=none;" parent="1" vertex="1">
          <mxGeometry x="660" y="2014" width="80" height="30" as="geometry" />
        </mxCell>
        <mxCell id="9X6dypCObs3BK0b8G1pb-55" value="paid" style="rounded=1;whiteSpace=wrap;html=1;strokeColor=#00FF00;" parent="1" vertex="1">
          <mxGeometry x="910" y="1984" width="120" height="60" as="geometry" />
        </mxCell>
        <mxCell id="9X6dypCObs3BK0b8G1pb-57" value="Services are ok, customer make payment" style="text;html=1;align=center;verticalAlign=middle;resizable=0;points=[];autosize=1;strokeColor=none;fillColor=none;fontSize=8;" parent="1" vertex="1">
          <mxGeometry x="845" y="2049" width="170" height="20" as="geometry" />
        </mxCell>
        <mxCell id="9X6dypCObs3BK0b8G1pb-58" value="canceled" style="rounded=1;whiteSpace=wrap;html=1;strokeColor=#FF3333;" parent="1" vertex="1">
          <mxGeometry x="1170" y="1874" width="120" height="60" as="geometry" />
        </mxCell>
        <mxCell id="9X6dypCObs3BK0b8G1pb-59" value="completed" style="rounded=1;whiteSpace=wrap;html=1;strokeColor=#00FF00;" parent="1" vertex="1">
          <mxGeometry x="1170" y="2094" width="120" height="60" as="geometry" />
        </mxCell>
        <mxCell id="9X6dypCObs3BK0b8G1pb-60" value="refund" style="text;html=1;align=center;verticalAlign=middle;resizable=0;points=[];autosize=1;strokeColor=none;fillColor=none;fontSize=8;" parent="1" vertex="1">
          <mxGeometry x="1095" y="1879" width="50" height="20" as="geometry" />
        </mxCell>
        <mxCell id="9X6dypCObs3BK0b8G1pb-61" value="ok" style="text;html=1;align=center;verticalAlign=middle;resizable=0;points=[];autosize=1;strokeColor=none;fillColor=none;fontSize=8;" parent="1" vertex="1">
          <mxGeometry x="1115" y="2127" width="30" height="20" as="geometry" />
        </mxCell>
        <mxCell id="9X6dypCObs3BK0b8G1pb-62" value="&lt;font style=&quot;font-size: 8px;&quot;&gt;Make transport payment&lt;/font&gt;" style="text;html=1;align=center;verticalAlign=middle;resizable=0;points=[];autosize=1;strokeColor=none;fillColor=none;" parent="1" vertex="1">
          <mxGeometry x="135" y="1874" width="110" height="30" as="geometry" />
        </mxCell>
        <mxCell id="9X6dypCObs3BK0b8G1pb-63" value="&lt;font style=&quot;font-size: 25px;&quot;&gt;Tow Turk&lt;/font&gt;" style="text;html=1;align=center;verticalAlign=middle;resizable=0;points=[];autosize=1;strokeColor=none;fillColor=none;" parent="1" vertex="1">
          <mxGeometry x="410" y="1660" width="120" height="40" as="geometry" />
        </mxCell>
        <mxCell id="9X6dypCObs3BK0b8G1pb-65" value="&lt;span style=&quot;font-size: 25px;&quot;&gt;Mechanic On-Site&lt;/span&gt;" style="text;html=1;align=center;verticalAlign=middle;resizable=0;points=[];autosize=1;strokeColor=none;fillColor=none;" parent="1" vertex="1">
          <mxGeometry x="330" y="130" width="220" height="40" as="geometry" />
        </mxCell>
        <mxCell id="RoGjLXBgy-u3Dhw3Ltex-1" value="&lt;h1&gt;&lt;font face=&quot;Verdana&quot; style=&quot;font-size: 40px;&quot;&gt;Roam Flow&lt;/font&gt;&lt;/h1&gt;" style="text;html=1;align=center;verticalAlign=middle;resizable=0;points=[];autosize=1;strokeColor=none;fillColor=none;" parent="1" vertex="1">
          <mxGeometry x="205" y="1" width="400" height="90" as="geometry" />
        </mxCell>
        <mxCell id="RoGjLXBgy-u3Dhw3Ltex-3" style="edgeStyle=orthogonalEdgeStyle;rounded=0;orthogonalLoop=1;jettySize=auto;html=1;strokeColor=#3333FF;" parent="1" source="RoGjLXBgy-u3Dhw3Ltex-4" target="RoGjLXBgy-u3Dhw3Ltex-8" edge="1">
          <mxGeometry relative="1" as="geometry" />
        </mxCell>
        <mxCell id="RoGjLXBgy-u3Dhw3Ltex-4" value="&lt;font&gt;Job Post&lt;/font&gt;" style="rounded=1;whiteSpace=wrap;html=1;strokeColor=#00FF00;" parent="1" vertex="1">
          <mxGeometry x="-345" y="1130" width="120" height="60" as="geometry" />
        </mxCell>
        <mxCell id="RoGjLXBgy-u3Dhw3Ltex-5" style="edgeStyle=orthogonalEdgeStyle;rounded=0;orthogonalLoop=1;jettySize=auto;html=1;entryX=0;entryY=0.5;entryDx=0;entryDy=0;strokeColor=#3333FF;" parent="1" source="RoGjLXBgy-u3Dhw3Ltex-8" target="RoGjLXBgy-u3Dhw3Ltex-10" edge="1">
          <mxGeometry relative="1" as="geometry" />
        </mxCell>
        <mxCell id="RoGjLXBgy-u3Dhw3Ltex-6" style="edgeStyle=orthogonalEdgeStyle;rounded=0;orthogonalLoop=1;jettySize=auto;html=1;strokeColor=#FF3333;" parent="1" source="RoGjLXBgy-u3Dhw3Ltex-8" target="RoGjLXBgy-u3Dhw3Ltex-13" edge="1">
          <mxGeometry relative="1" as="geometry">
            <Array as="points">
              <mxPoint x="90" y="1160" />
              <mxPoint x="90" y="1160" />
            </Array>
          </mxGeometry>
        </mxCell>
        <mxCell id="RoGjLXBgy-u3Dhw3Ltex-7" style="edgeStyle=orthogonalEdgeStyle;rounded=0;orthogonalLoop=1;jettySize=auto;html=1;entryX=0;entryY=0.5;entryDx=0;entryDy=0;strokeColor=#FF3333;" parent="1" source="RoGjLXBgy-u3Dhw3Ltex-8" target="RoGjLXBgy-u3Dhw3Ltex-14" edge="1">
          <mxGeometry relative="1" as="geometry" />
        </mxCell>
        <mxCell id="RoGjLXBgy-u3Dhw3Ltex-8" value="requested" style="rounded=1;whiteSpace=wrap;html=1;strokeColor=#00FF00;" parent="1" vertex="1">
          <mxGeometry x="-75" y="1130" width="120" height="60" as="geometry" />
        </mxCell>
        <mxCell id="RoGjLXBgy-u3Dhw3Ltex-9" value="&lt;font style=&quot;font-size: 8px;&quot;&gt;The customer posts a job targeting specific providers&lt;/font&gt;" style="text;html=1;align=center;verticalAlign=middle;resizable=0;points=[];autosize=1;strokeColor=none;fillColor=none;" parent="1" vertex="1">
          <mxGeometry x="-390" y="1190" width="210" height="30" as="geometry" />
        </mxCell>
        <mxCell id="RoGjLXBgy-u3Dhw3Ltex-10" value="request-canceled" style="rounded=1;whiteSpace=wrap;html=1;strokeColor=#FF3333;" parent="1" vertex="1">
          <mxGeometry x="130" y="960" width="120" height="60" as="geometry" />
        </mxCell>
        <mxCell id="RoGjLXBgy-u3Dhw3Ltex-11" style="edgeStyle=orthogonalEdgeStyle;rounded=0;orthogonalLoop=1;jettySize=auto;html=1;entryX=0;entryY=0.5;entryDx=0;entryDy=0;strokeColor=#3333FF;" parent="1" source="RoGjLXBgy-u3Dhw3Ltex-13" target="RoGjLXBgy-u3Dhw3Ltex-16" edge="1">
          <mxGeometry relative="1" as="geometry" />
        </mxCell>
        <mxCell id="RoGjLXBgy-u3Dhw3Ltex-12" style="edgeStyle=orthogonalEdgeStyle;rounded=0;orthogonalLoop=1;jettySize=auto;html=1;entryX=0;entryY=0.5;entryDx=0;entryDy=0;strokeColor=#3333FF;" parent="1" source="RoGjLXBgy-u3Dhw3Ltex-13" target="RoGjLXBgy-u3Dhw3Ltex-17" edge="1">
          <mxGeometry relative="1" as="geometry" />
        </mxCell>
        <mxCell id="RoGjLXBgy-u3Dhw3Ltex-13" value="accepted" style="rounded=1;whiteSpace=wrap;html=1;strokeColor=#00FF00;" parent="1" vertex="1">
          <mxGeometry x="130" y="1130" width="120" height="60" as="geometry" />
        </mxCell>
        <mxCell id="RoGjLXBgy-u3Dhw3Ltex-14" value="rejected" style="rounded=1;whiteSpace=wrap;html=1;strokeColor=#FF3333;" parent="1" vertex="1">
          <mxGeometry x="130" y="1310" width="120" height="60" as="geometry" />
        </mxCell>
        <mxCell id="RoGjLXBgy-u3Dhw3Ltex-15" style="edgeStyle=orthogonalEdgeStyle;rounded=0;orthogonalLoop=1;jettySize=auto;html=1;strokeColor=#3333FF;" parent="1" source="RoGjLXBgy-u3Dhw3Ltex-16" target="RoGjLXBgy-u3Dhw3Ltex-20" edge="1">
          <mxGeometry relative="1" as="geometry" />
        </mxCell>
        <mxCell id="RoGjLXBgy-u3Dhw3Ltex-16" value="confirmed" style="rounded=1;whiteSpace=wrap;html=1;strokeColor=#00FF00;" parent="1" vertex="1">
          <mxGeometry x="420" y="1210" width="120" height="60" as="geometry" />
        </mxCell>
        <mxCell id="RoGjLXBgy-u3Dhw3Ltex-17" value="denied" style="rounded=1;whiteSpace=wrap;html=1;strokeColor=#FF3333;" parent="1" vertex="1">
          <mxGeometry x="420" y="1040" width="120" height="60" as="geometry" />
        </mxCell>
        <mxCell id="RoGjLXBgy-u3Dhw3Ltex-18" style="edgeStyle=orthogonalEdgeStyle;rounded=0;orthogonalLoop=1;jettySize=auto;html=1;entryX=0;entryY=0.5;entryDx=0;entryDy=0;strokeColor=#FF3333;" parent="1" source="RoGjLXBgy-u3Dhw3Ltex-20" target="RoGjLXBgy-u3Dhw3Ltex-22" edge="1">
          <mxGeometry relative="1" as="geometry" />
        </mxCell>
        <mxCell id="RoGjLXBgy-u3Dhw3Ltex-19" style="edgeStyle=orthogonalEdgeStyle;rounded=0;orthogonalLoop=1;jettySize=auto;html=1;entryX=0;entryY=0.5;entryDx=0;entryDy=0;strokeColor=#FF3333;" parent="1" source="RoGjLXBgy-u3Dhw3Ltex-20" target="RoGjLXBgy-u3Dhw3Ltex-25" edge="1">
          <mxGeometry relative="1" as="geometry" />
        </mxCell>
        <mxCell id="RoGjLXBgy-u3Dhw3Ltex-20" value="serviced" style="rounded=1;whiteSpace=wrap;html=1;strokeColor=#00FF00;" parent="1" vertex="1">
          <mxGeometry x="720" y="1210" width="120" height="60" as="geometry" />
        </mxCell>
        <mxCell id="RoGjLXBgy-u3Dhw3Ltex-21" value="&lt;font style=&quot;font-size: 8px;&quot;&gt;customer will go in shop, and then&amp;nbsp;&lt;/font&gt;&lt;div&gt;&lt;font style=&quot;font-size: 8px;&quot;&gt;the provider will provide services&lt;/font&gt;&lt;/div&gt;" style="text;html=1;align=center;verticalAlign=middle;resizable=0;points=[];autosize=1;strokeColor=none;fillColor=none;" parent="1" vertex="1">
          <mxGeometry x="550" y="1218" width="150" height="40" as="geometry" />
        </mxCell>
        <mxCell id="RoGjLXBgy-u3Dhw3Ltex-22" value="service-rejected" style="rounded=1;whiteSpace=wrap;html=1;strokeColor=#FF3333;" parent="1" vertex="1">
          <mxGeometry x="990" y="1100" width="120" height="60" as="geometry" />
        </mxCell>
        <mxCell id="RoGjLXBgy-u3Dhw3Ltex-23" style="edgeStyle=orthogonalEdgeStyle;rounded=0;orthogonalLoop=1;jettySize=auto;html=1;entryX=0;entryY=0.5;entryDx=0;entryDy=0;strokeColor=#FF3333;" parent="1" source="RoGjLXBgy-u3Dhw3Ltex-25" target="RoGjLXBgy-u3Dhw3Ltex-28" edge="1">
          <mxGeometry relative="1" as="geometry" />
        </mxCell>
        <mxCell id="RoGjLXBgy-u3Dhw3Ltex-24" style="edgeStyle=orthogonalEdgeStyle;rounded=0;orthogonalLoop=1;jettySize=auto;html=1;entryX=0;entryY=0.5;entryDx=0;entryDy=0;strokeColor=#FF3333;" parent="1" source="RoGjLXBgy-u3Dhw3Ltex-25" target="RoGjLXBgy-u3Dhw3Ltex-29" edge="1">
          <mxGeometry relative="1" as="geometry" />
        </mxCell>
        <mxCell id="RoGjLXBgy-u3Dhw3Ltex-25" value="paid" style="rounded=1;whiteSpace=wrap;html=1;strokeColor=#00FF00;" parent="1" vertex="1">
          <mxGeometry x="990" y="1310" width="120" height="60" as="geometry" />
        </mxCell>
        <mxCell id="RoGjLXBgy-u3Dhw3Ltex-26" value="customer reject provider services and deny for pay" style="text;html=1;align=center;verticalAlign=middle;resizable=0;points=[];autosize=1;strokeColor=none;fillColor=none;fontSize=8;" parent="1" vertex="1">
          <mxGeometry x="895" y="1076" width="200" height="20" as="geometry" />
        </mxCell>
        <mxCell id="RoGjLXBgy-u3Dhw3Ltex-27" value="Services are ok, customer make payment" style="text;html=1;align=center;verticalAlign=middle;resizable=0;points=[];autosize=1;strokeColor=none;fillColor=none;fontSize=8;" parent="1" vertex="1">
          <mxGeometry x="925" y="1375" width="170" height="20" as="geometry" />
        </mxCell>
        <mxCell id="RoGjLXBgy-u3Dhw3Ltex-28" value="canceled" style="rounded=1;whiteSpace=wrap;html=1;strokeColor=#FF3333;" parent="1" vertex="1">
          <mxGeometry x="1250" y="1200" width="120" height="60" as="geometry" />
        </mxCell>
        <mxCell id="RoGjLXBgy-u3Dhw3Ltex-29" value="completed" style="rounded=1;whiteSpace=wrap;html=1;strokeColor=#00FF00;" parent="1" vertex="1">
          <mxGeometry x="1250" y="1420" width="120" height="60" as="geometry" />
        </mxCell>
        <mxCell id="RoGjLXBgy-u3Dhw3Ltex-30" value="refund" style="text;html=1;align=center;verticalAlign=middle;resizable=0;points=[];autosize=1;strokeColor=none;fillColor=none;fontSize=8;" parent="1" vertex="1">
          <mxGeometry x="1175" y="1205" width="50" height="20" as="geometry" />
        </mxCell>
        <mxCell id="RoGjLXBgy-u3Dhw3Ltex-31" value="ok" style="text;html=1;align=center;verticalAlign=middle;resizable=0;points=[];autosize=1;strokeColor=none;fillColor=none;fontSize=8;" parent="1" vertex="1">
          <mxGeometry x="1195" y="1453" width="30" height="20" as="geometry" />
        </mxCell>
        <mxCell id="RoGjLXBgy-u3Dhw3Ltex-32" value="&lt;font style=&quot;font-size: 8px;&quot;&gt;Make transport payment&lt;/font&gt;" style="text;html=1;align=center;verticalAlign=middle;resizable=0;points=[];autosize=1;strokeColor=none;fillColor=none;" parent="1" vertex="1">
          <mxGeometry x="135" y="1100" width="110" height="30" as="geometry" />
        </mxCell>
        <mxCell id="RoGjLXBgy-u3Dhw3Ltex-33" value="&lt;span style=&quot;font-size: 25px;&quot;&gt;Mechanic In-Shop&lt;/span&gt;" style="text;html=1;align=center;verticalAlign=middle;resizable=0;points=[];autosize=1;strokeColor=none;fillColor=none;" parent="1" vertex="1">
          <mxGeometry x="291" y="860" width="230" height="40" as="geometry" />
        </mxCell>
        <mxCell id="KaYnxdlIJdnsm3M0sPXc-2" value="&lt;font style=&quot;font-size: 8px;&quot;&gt;reset job status to init&lt;/font&gt;" style="text;html=1;align=center;verticalAlign=middle;resizable=0;points=[];autosize=1;strokeColor=none;fillColor=none;" vertex="1" parent="1">
          <mxGeometry x="430" y="300" width="100" height="30" as="geometry" />
        </mxCell>
        <mxCell id="KaYnxdlIJdnsm3M0sPXc-3" value="&lt;font style=&quot;font-size: 8px;&quot;&gt;reset job status to init&lt;/font&gt;" style="text;html=1;align=center;verticalAlign=middle;resizable=0;points=[];autosize=1;strokeColor=none;fillColor=none;" vertex="1" parent="1">
          <mxGeometry x="430" y="1010" width="100" height="30" as="geometry" />
        </mxCell>
        <mxCell id="KaYnxdlIJdnsm3M0sPXc-4" value="&lt;font style=&quot;font-size: 8px;&quot;&gt;reset job status to init&lt;/font&gt;" style="text;html=1;align=center;verticalAlign=middle;resizable=0;points=[];autosize=1;strokeColor=none;fillColor=none;" vertex="1" parent="1">
          <mxGeometry x="425" y="1784" width="100" height="30" as="geometry" />
        </mxCell>
      </root>
    </mxGraphModel>
  </diagram>
</mxfile>
